G04*
G04 #@! TF.GenerationSoftware,Altium Limited,Altium Designer,24.3.1 (35)*
G04*
G04 Layer_Color=65535*
%FSLAX44Y44*%
%MOMM*%
G71*
G04*
G04 #@! TF.SameCoordinates,E7721F7D-E282-41D9-B0B1-2D617A9ED9AD*
G04*
G04*
G04 #@! TF.FilePolarity,Positive*
G04*
G01*
G75*
%ADD10C,0.3810*%
%ADD11C,0.1500*%
%ADD12C,0.1270*%
%ADD13C,0.2500*%
%ADD14C,0.2000*%
%ADD15C,0.2540*%
%ADD16C,0.2560*%
%ADD17C,0.1016*%
%ADD18C,0.1000*%
%ADD19R,0.7620X0.7620*%
D10*
X907855Y178080D02*
G03*
X907855Y178080I-1905J0D01*
G01*
X95955Y436920D02*
G03*
X95955Y436920I-1905J0D01*
G01*
Y184220D02*
G03*
X95955Y184220I-1905J0D01*
G01*
X57855Y393480D02*
G03*
X57855Y393480I-1905J0D01*
G01*
X820955Y274220D02*
G03*
X820955Y274220I-1905J0D01*
G01*
X378355Y158720D02*
G03*
X378355Y158720I-1905J0D01*
G01*
X225955D02*
G03*
X225955Y158720I-1905J0D01*
G01*
X470955Y284620D02*
G03*
X470955Y284620I-1905J0D01*
G01*
D11*
X282500Y850000D02*
G03*
X282500Y850000I-52500J0D01*
G01*
X483194Y153451D02*
G03*
X516811Y153448I16806J-25751D01*
G01*
X850494Y525754D02*
G03*
X884111Y525751I16806J-25751D01*
G01*
X483194Y153448D02*
X516812D01*
X850494Y525752D02*
X884112D01*
D12*
X825000Y625000D02*
G03*
X825000Y625000I-25000J0D01*
G01*
X625000D02*
G03*
X625000Y625000I-25000J0D01*
G01*
X450000Y145000D02*
Y165000D01*
X448000Y145000D02*
X456000D01*
X444000D02*
X447667D01*
X444000Y105000D02*
Y145000D01*
Y105000D02*
X456000D01*
Y145000D01*
X450000Y85000D02*
Y105000D01*
X925000Y520000D02*
Y540000D01*
X923000Y520000D02*
X931000D01*
X919000D02*
X922667D01*
X919000Y480000D02*
Y520000D01*
Y480000D02*
X931000D01*
Y520000D01*
X925000Y460000D02*
Y480000D01*
X265000Y425000D02*
Y445000D01*
X259000D02*
X267000D01*
X267333D02*
X271000D01*
Y485000D01*
X259000D02*
X271000D01*
X259000Y445000D02*
Y485000D01*
X265000D02*
Y505000D01*
D13*
X695850Y683350D02*
G03*
X695850Y683350I-1250J0D01*
G01*
X926250Y215250D02*
G03*
X926250Y215250I-1250J0D01*
G01*
D14*
X937700Y88438D02*
Y190800D01*
X912300D02*
X937700D01*
X931350Y88400D02*
X937700D01*
X912300D02*
X918650D01*
X912300Y88692D02*
Y190800D01*
X918650Y88400D02*
X931350D01*
X27499Y799998D02*
X84499D01*
X92999D02*
X102499D01*
X83999Y793998D02*
X84499Y799998D01*
X92999D02*
X93499Y793998D01*
X83999D02*
X93499D01*
X51499Y899999D02*
X102499D01*
Y799998D02*
Y899999D01*
X27499D02*
X44499D01*
X43749Y905999D02*
X44499Y899999D01*
X51499D02*
X52249Y905999D01*
X43749D02*
X52249D01*
X27499Y799998D02*
X27499Y899999D01*
X205000Y805250D02*
X255000D01*
X127300Y567700D02*
X133650D01*
X146350D02*
X152700D01*
Y542300D02*
Y567700D01*
X127300Y542300D02*
Y567700D01*
Y542300D02*
X152700D01*
X133650Y567700D02*
X146350D01*
X127300Y500400D02*
X133650D01*
X146350D02*
X152700D01*
Y475000D02*
Y500400D01*
X127300Y475000D02*
Y500400D01*
Y475000D02*
X152700D01*
X133650Y500400D02*
X146350D01*
X62300Y424200D02*
Y526562D01*
Y424200D02*
X87700D01*
X62300Y526600D02*
X68650D01*
X81350D02*
X87700D01*
Y424200D02*
Y526308D01*
X68650Y526600D02*
X81350D01*
X127300Y457700D02*
X133650D01*
X146350D02*
X152700D01*
Y432300D02*
Y457700D01*
X127300Y432300D02*
Y457700D01*
Y432300D02*
X152700D01*
X133650Y457700D02*
X146350D01*
X127300Y422700D02*
X133650D01*
X146350D02*
X152700D01*
Y397300D02*
Y422700D01*
X127300Y397300D02*
Y422700D01*
Y397300D02*
X152700D01*
X133650Y422700D02*
X146350D01*
X127300Y374600D02*
X133650D01*
X146350D02*
X152700D01*
Y349200D02*
Y374600D01*
X127300Y349200D02*
Y374600D01*
Y349200D02*
X152700D01*
X133650Y374600D02*
X146350D01*
X112300Y267700D02*
X118650D01*
X131350D02*
X137700D01*
Y242300D02*
Y267700D01*
X112300Y242300D02*
Y267700D01*
Y242300D02*
X137700D01*
X118650Y267700D02*
X131350D01*
X62300Y117700D02*
X68650D01*
X81350D02*
X87700D01*
Y92300D02*
Y117700D01*
X62300Y92300D02*
Y117700D01*
Y92300D02*
X87700D01*
X68650Y117700D02*
X81350D01*
X112300Y192700D02*
X118650D01*
X131350D02*
X137700D01*
Y167300D02*
Y192700D01*
X112300Y167300D02*
Y192700D01*
Y167300D02*
X137700D01*
X118650Y192700D02*
X131350D01*
X437300Y422700D02*
X443650D01*
X456350D02*
X462700D01*
Y397300D02*
Y422700D01*
X437300Y397300D02*
Y422700D01*
Y397300D02*
X462700D01*
X443650Y422700D02*
X456350D01*
X512300Y337700D02*
X518650D01*
X531350D02*
X537700D01*
Y312300D02*
Y337700D01*
X512300Y312300D02*
Y337700D01*
Y312300D02*
X537700D01*
X518650Y337700D02*
X531350D01*
X512300Y307700D02*
X518650D01*
X531350D02*
X537700D01*
Y282300D02*
Y307700D01*
X512300Y282300D02*
Y307700D01*
Y282300D02*
X537700D01*
X518650Y307700D02*
X531350D01*
X68650Y247954D02*
X81350D01*
X87700Y171500D02*
Y247954D01*
X81350D02*
X87700D01*
X62300D02*
X68650D01*
X62300Y171500D02*
X87700D01*
X62300D02*
Y247954D01*
X68650Y278654D02*
X81350D01*
X62300Y406200D02*
X87700D01*
X62300Y278692D02*
Y406200D01*
Y278692D02*
X62338Y278654D01*
X68650D01*
X87700Y278946D02*
Y406200D01*
X87408Y278654D02*
X87700Y278946D01*
X81350Y278654D02*
X87408D01*
X137300Y962700D02*
X143650D01*
X156350D02*
X162700D01*
Y937300D02*
Y962700D01*
X137300Y937300D02*
Y962700D01*
Y937300D02*
X162700D01*
X143650Y962700D02*
X156350D01*
X937300Y887700D02*
X943650D01*
X956350D02*
X962700D01*
Y862300D02*
Y887700D01*
X937300Y862300D02*
Y887700D01*
Y862300D02*
X962700D01*
X943650Y887700D02*
X956350D01*
X837300Y714700D02*
X843650D01*
X856350D02*
X862700D01*
Y689300D02*
Y714700D01*
X837300Y689300D02*
Y714700D01*
Y689300D02*
X862700D01*
X843650Y714700D02*
X856350D01*
X537300Y447700D02*
X543650D01*
X556350D02*
X562700D01*
Y422300D02*
Y447700D01*
X537300Y422300D02*
Y447700D01*
Y422300D02*
X562700D01*
X543650Y447700D02*
X556350D01*
X537300Y62700D02*
X543650D01*
X556350D02*
X562700D01*
Y37300D02*
Y62700D01*
X537300Y37300D02*
Y62700D01*
Y37300D02*
X562700D01*
X543650Y62700D02*
X556350D01*
X537300Y502700D02*
X543650D01*
X556350D02*
X562700D01*
Y477300D02*
Y502700D01*
X537300Y477300D02*
Y502700D01*
Y477300D02*
X562700D01*
X543650Y502700D02*
X556350D01*
X937300Y812700D02*
X943650D01*
X956350D02*
X962700D01*
Y787300D02*
Y812700D01*
X937300Y787300D02*
Y812700D01*
Y787300D02*
X962700D01*
X943650Y812700D02*
X956350D01*
X537300Y572700D02*
X543650D01*
X556350D02*
X562700D01*
Y547300D02*
Y572700D01*
X537300Y547300D02*
Y572700D01*
Y547300D02*
X562700D01*
X543650Y572700D02*
X556350D01*
X112300Y307700D02*
X118650D01*
X131350D02*
X137700D01*
Y282300D02*
Y307700D01*
X112300Y282300D02*
Y307700D01*
Y282300D02*
X137700D01*
X118650Y307700D02*
X131350D01*
X931350Y644000D02*
X937700D01*
X912300D02*
X918650D01*
X912300Y644700D02*
Y695400D01*
X937700Y644700D02*
Y695400D01*
X912300D02*
X937700D01*
X918650Y644000D02*
X931350D01*
X676500Y667680D02*
X723500Y678350D01*
Y572150D02*
Y677850D01*
X676500Y582320D02*
X723500Y571650D01*
X676500Y582320D02*
Y667680D01*
X891000Y220500D02*
Y394500D01*
X948500D01*
Y220500D02*
Y394500D01*
X891000Y220500D02*
X948500D01*
X787300Y261500D02*
Y363862D01*
Y261500D02*
X812700D01*
X787300Y363900D02*
X793650D01*
X806350D02*
X812700D01*
Y261500D02*
Y363608D01*
X793650Y363900D02*
X806350D01*
X370100Y298400D02*
Y654000D01*
X344700D02*
X351050D01*
X363750D02*
X370100D01*
Y146000D02*
Y501600D01*
X351050Y654000D02*
X363750D01*
X344700Y146000D02*
X370100D01*
X344700D02*
Y501600D01*
Y298400D02*
Y654000D01*
X217700Y298400D02*
Y654000D01*
X192300D02*
X198650D01*
X211350D02*
X217700D01*
Y146000D02*
Y501600D01*
X198650Y654000D02*
X211350D01*
X192300Y146000D02*
X217700D01*
X192300D02*
Y501600D01*
Y298400D02*
Y654000D01*
X443650Y348354D02*
X456350D01*
X462700Y271900D02*
Y348354D01*
X456350D02*
X462700D01*
X437300D02*
X443650D01*
X437300Y271900D02*
X462700D01*
X437300D02*
Y348354D01*
X456350Y579000D02*
X462700D01*
X437300D02*
X443650D01*
X437300Y579700D02*
Y630400D01*
X462700Y579700D02*
Y630400D01*
X437300D02*
X462700D01*
X443650Y579000D02*
X456350D01*
D15*
X295000Y730000D02*
X915000D01*
X295000Y990000D02*
X915000D01*
Y730000D02*
Y990000D01*
X295000Y730000D02*
Y990000D01*
X884843Y167617D02*
Y154922D01*
X887383Y152382D01*
X892461D01*
X895000Y154922D01*
Y167617D01*
X900078Y152382D02*
X905157D01*
X902617D01*
Y167617D01*
X900078Y165078D01*
X48495Y775078D02*
X45956Y777617D01*
X40878D01*
X38339Y775078D01*
Y764922D01*
X40878Y762383D01*
X45956D01*
X48495Y764922D01*
X53574Y762383D02*
Y777617D01*
X63730Y762383D01*
Y777617D01*
X68809Y762383D02*
X73887D01*
X71348D01*
Y777617D01*
X68809Y775078D01*
X81505D02*
X84044Y777617D01*
X89122D01*
X91661Y775078D01*
Y764922D01*
X89122Y762383D01*
X84044D01*
X81505Y764922D01*
Y775078D01*
X262304Y972617D02*
Y959922D01*
X264843Y957383D01*
X269922D01*
X272461Y959922D01*
Y972617D01*
X277539Y970078D02*
X280078Y972617D01*
X285157D01*
X287696Y970078D01*
Y967539D01*
X285157Y965000D01*
X282617D01*
X285157D01*
X287696Y962461D01*
Y959922D01*
X285157Y957383D01*
X280078D01*
X277539Y959922D01*
X232461Y925078D02*
X229922Y927617D01*
X224843D01*
X222304Y925078D01*
Y914922D01*
X224843Y912383D01*
X229922D01*
X232461Y914922D01*
X237539Y925078D02*
X240078Y927617D01*
X245157D01*
X247696Y925078D01*
Y922539D01*
X245157Y920000D01*
X242617D01*
X245157D01*
X247696Y917461D01*
Y914922D01*
X245157Y912383D01*
X240078D01*
X237539Y914922D01*
X407304Y117382D02*
Y132618D01*
X414922D01*
X417461Y130078D01*
Y125000D01*
X414922Y122461D01*
X407304D01*
X412383D02*
X417461Y117382D01*
X432696D02*
X422539D01*
X432696Y127539D01*
Y130078D01*
X430157Y132618D01*
X425078D01*
X422539Y130078D01*
X544843Y147618D02*
Y132382D01*
X552461D01*
X555000Y134922D01*
Y145078D01*
X552461Y147618D01*
X544843D01*
X560078Y132382D02*
X565157D01*
X562618D01*
Y147618D01*
X560078Y145078D01*
X86034Y575078D02*
X83495Y577617D01*
X78417D01*
X75878Y575078D01*
Y564922D01*
X78417Y562383D01*
X83495D01*
X86034Y564922D01*
X91113Y562383D02*
Y577617D01*
X101270Y562383D01*
Y577617D01*
X106348Y562383D02*
X111426D01*
X108887D01*
Y577617D01*
X106348Y575078D01*
X119044Y562383D02*
X124122D01*
X121583D01*
Y577617D01*
X119044Y575078D01*
X118495Y520078D02*
X115956Y522617D01*
X110878D01*
X108339Y520078D01*
Y509922D01*
X110878Y507383D01*
X115956D01*
X118495Y509922D01*
X123574Y507383D02*
Y522617D01*
X133730Y507383D01*
Y522617D01*
X138809Y507383D02*
X143887D01*
X141348D01*
Y522617D01*
X138809Y520078D01*
X151505D02*
X154044Y522617D01*
X159122D01*
X161661Y520078D01*
Y517539D01*
X159122Y515000D01*
X156583D01*
X159122D01*
X161661Y512461D01*
Y509922D01*
X159122Y507383D01*
X154044D01*
X151505Y509922D01*
X24843Y480078D02*
X22304Y482617D01*
X17226D01*
X14687Y480078D01*
Y469922D01*
X17226Y467383D01*
X22304D01*
X24843Y469922D01*
X29922Y467383D02*
Y482617D01*
X40078Y467383D01*
Y482617D01*
X55314Y467383D02*
X45157D01*
X55314Y477539D01*
Y480078D01*
X52774Y482617D01*
X47696D01*
X45157Y480078D01*
X113495Y470078D02*
X110956Y472617D01*
X105878D01*
X103339Y470078D01*
Y459922D01*
X105878Y457383D01*
X110956D01*
X113495Y459922D01*
X118574Y457383D02*
Y472617D01*
X128730Y457383D01*
Y472617D01*
X133809Y457383D02*
X138887D01*
X136348D01*
Y472617D01*
X133809Y470078D01*
X156661Y472617D02*
X146505D01*
Y465000D01*
X151583Y467539D01*
X154122D01*
X156661Y465000D01*
Y459922D01*
X154122Y457383D01*
X149044D01*
X146505Y459922D01*
X82226Y420078D02*
X79687Y422617D01*
X74608D01*
X72069Y420078D01*
Y409922D01*
X74608Y407383D01*
X79687D01*
X82226Y409922D01*
X87304Y407383D02*
Y422617D01*
X97461Y407383D01*
Y422617D01*
X112696Y407383D02*
X102539D01*
X112696Y417539D01*
Y420078D01*
X110157Y422617D01*
X105078D01*
X102539Y420078D01*
X117774Y422617D02*
X127931D01*
Y420078D01*
X117774Y409922D01*
Y407383D01*
X127226Y390078D02*
X124687Y392617D01*
X119608D01*
X117069Y390078D01*
Y379922D01*
X119608Y377383D01*
X124687D01*
X127226Y379922D01*
X132304Y377383D02*
Y392617D01*
X142461Y377383D01*
Y392617D01*
X157696Y377383D02*
X147539D01*
X157696Y387539D01*
Y390078D01*
X155157Y392617D01*
X150078D01*
X147539Y390078D01*
X172931Y392617D02*
X167853Y390078D01*
X162774Y385000D01*
Y379922D01*
X165313Y377383D01*
X170392D01*
X172931Y379922D01*
Y382461D01*
X170392Y385000D01*
X162774D01*
X127226Y235078D02*
X124687Y237617D01*
X119608D01*
X117069Y235078D01*
Y224922D01*
X119608Y222383D01*
X124687D01*
X127226Y224922D01*
X132304Y222383D02*
Y237617D01*
X142461Y222383D01*
Y237617D01*
X157696Y222383D02*
X147539D01*
X157696Y232539D01*
Y235078D01*
X155157Y237617D01*
X150078D01*
X147539Y235078D01*
X162774D02*
X165313Y237617D01*
X170392D01*
X172931Y235078D01*
Y232539D01*
X170392Y230000D01*
X167853D01*
X170392D01*
X172931Y227461D01*
Y224922D01*
X170392Y222383D01*
X165313D01*
X162774Y224922D01*
X107226Y110078D02*
X104687Y112618D01*
X99608D01*
X97069Y110078D01*
Y99922D01*
X99608Y97382D01*
X104687D01*
X107226Y99922D01*
X112304Y97382D02*
Y112618D01*
X122461Y97382D01*
Y112618D01*
X137696Y97382D02*
X127539D01*
X137696Y107539D01*
Y110078D01*
X135157Y112618D01*
X130078D01*
X127539Y110078D01*
X152931Y97382D02*
X142774D01*
X152931Y107539D01*
Y110078D01*
X150392Y112618D01*
X145314D01*
X142774Y110078D01*
X132226Y160078D02*
X129687Y162617D01*
X124608D01*
X122069Y160078D01*
Y149922D01*
X124608Y147382D01*
X129687D01*
X132226Y149922D01*
X137304Y147382D02*
Y162617D01*
X147461Y147382D01*
Y162617D01*
X162696Y147382D02*
X152539D01*
X162696Y157539D01*
Y160078D01*
X160157Y162617D01*
X155078D01*
X152539Y160078D01*
X175392Y147382D02*
Y162617D01*
X167774Y155000D01*
X177931D01*
X524253Y673872D02*
X521713Y676411D01*
X516635D01*
X514096Y673872D01*
Y663715D01*
X516635Y661176D01*
X521713D01*
X524253Y663715D01*
X529331Y676411D02*
X539488D01*
Y673872D01*
X529331Y663715D01*
Y661176D01*
X482226Y415078D02*
X479687Y417617D01*
X474608D01*
X472069Y415078D01*
Y404922D01*
X474608Y402383D01*
X479687D01*
X482226Y404922D01*
X487304Y402383D02*
Y417617D01*
X497461Y402383D01*
Y417617D01*
X512696Y402383D02*
X502539D01*
X512696Y412539D01*
Y415078D01*
X510157Y417617D01*
X505078D01*
X502539Y415078D01*
X517774D02*
X520313Y417617D01*
X525392D01*
X527931Y415078D01*
Y412539D01*
X525392Y410000D01*
X527931Y407461D01*
Y404922D01*
X525392Y402383D01*
X520313D01*
X517774Y404922D01*
Y407461D01*
X520313Y410000D01*
X517774Y412539D01*
Y415078D01*
X520313Y410000D02*
X525392D01*
X552226Y330078D02*
X549687Y332617D01*
X544608D01*
X542069Y330078D01*
Y319922D01*
X544608Y317383D01*
X549687D01*
X552226Y319922D01*
X557304Y317383D02*
Y332617D01*
X567461Y317383D01*
Y332617D01*
X572539Y330078D02*
X575078Y332617D01*
X580157D01*
X582696Y330078D01*
Y327539D01*
X580157Y325000D01*
X577617D01*
X580157D01*
X582696Y322461D01*
Y319922D01*
X580157Y317383D01*
X575078D01*
X572539Y319922D01*
X587774Y330078D02*
X590313Y332617D01*
X595392D01*
X597931Y330078D01*
Y319922D01*
X595392Y317383D01*
X590313D01*
X587774Y319922D01*
Y330078D01*
X552226Y300078D02*
X549687Y302617D01*
X544608D01*
X542069Y300078D01*
Y289922D01*
X544608Y287383D01*
X549687D01*
X552226Y289922D01*
X557304Y287383D02*
Y302617D01*
X567461Y287383D01*
Y302617D01*
X582696Y287383D02*
X572539D01*
X582696Y297539D01*
Y300078D01*
X580157Y302617D01*
X575078D01*
X572539Y300078D01*
X587774Y289922D02*
X590313Y287383D01*
X595392D01*
X597931Y289922D01*
Y300078D01*
X595392Y302617D01*
X590313D01*
X587774Y300078D01*
Y297539D01*
X590313Y295000D01*
X597931D01*
X19843Y225078D02*
X17304Y227617D01*
X12226D01*
X9687Y225078D01*
Y214922D01*
X12226Y212383D01*
X17304D01*
X19843Y214922D01*
X24922Y212383D02*
Y227617D01*
X35078Y212383D01*
Y227617D01*
X40157D02*
X50313D01*
Y225078D01*
X40157Y214922D01*
Y212383D01*
X24843Y375078D02*
X22304Y377617D01*
X17226D01*
X14687Y375078D01*
Y364922D01*
X17226Y362383D01*
X22304D01*
X24843Y364922D01*
X29922Y362383D02*
Y377617D01*
X40078Y362383D01*
Y377617D01*
X55314D02*
X45157D01*
Y370000D01*
X50235Y372539D01*
X52774D01*
X55314Y370000D01*
Y364922D01*
X52774Y362383D01*
X47696D01*
X45157Y364922D01*
X799081Y548904D02*
X796542Y551443D01*
X791463D01*
X788924Y548904D01*
Y538747D01*
X791463Y536208D01*
X796542D01*
X799081Y538747D01*
X804159D02*
X806698Y536208D01*
X811777D01*
X814316Y538747D01*
Y548904D01*
X811777Y551443D01*
X806698D01*
X804159Y548904D01*
Y546365D01*
X806698Y543825D01*
X814316D01*
X772461Y677078D02*
X769922Y679617D01*
X764843D01*
X762304Y677078D01*
Y666922D01*
X764843Y664382D01*
X769922D01*
X772461Y666922D01*
X785157Y664382D02*
Y679617D01*
X777539Y672000D01*
X787696D01*
X149095Y984006D02*
X146556Y986545D01*
X141477D01*
X138938Y984006D01*
Y973849D01*
X141477Y971310D01*
X146556D01*
X149095Y973849D01*
X154173Y971310D02*
Y986545D01*
X164330Y971310D01*
Y986545D01*
X169408Y971310D02*
X174487D01*
X171947D01*
Y986545D01*
X169408Y984006D01*
X192261Y971310D02*
X182104D01*
X192261Y981467D01*
Y984006D01*
X189722Y986545D01*
X184643D01*
X182104Y984006D01*
X948941Y909076D02*
X946402Y911615D01*
X941323D01*
X938784Y909076D01*
Y898919D01*
X941323Y896380D01*
X946402D01*
X948941Y898919D01*
X954019Y896380D02*
Y911615D01*
X964176Y896380D01*
Y911615D01*
X969254Y896380D02*
X974333D01*
X971793D01*
Y911615D01*
X969254Y909076D01*
X989568Y896380D02*
Y911615D01*
X981950Y903997D01*
X992107D01*
X849119Y736102D02*
X846580Y738641D01*
X841501D01*
X838962Y736102D01*
Y725945D01*
X841501Y723406D01*
X846580D01*
X849119Y725945D01*
X854197Y723406D02*
Y738641D01*
X864354Y723406D01*
Y738641D01*
X869432Y723406D02*
X874510D01*
X871971D01*
Y738641D01*
X869432Y736102D01*
X892285Y738641D02*
X887206Y736102D01*
X882128Y731023D01*
Y725945D01*
X884667Y723406D01*
X889746D01*
X892285Y725945D01*
Y728484D01*
X889746Y731023D01*
X882128D01*
X548891Y468894D02*
X546352Y471433D01*
X541273D01*
X538734Y468894D01*
Y458737D01*
X541273Y456198D01*
X546352D01*
X548891Y458737D01*
X553969Y456198D02*
Y471433D01*
X564126Y456198D01*
Y471433D01*
X569204Y456198D02*
X574282D01*
X571743D01*
Y471433D01*
X569204Y468894D01*
X581900Y471433D02*
X592057D01*
Y468894D01*
X581900Y458737D01*
Y456198D01*
X548891Y84084D02*
X546352Y86623D01*
X541273D01*
X538734Y84084D01*
Y73927D01*
X541273Y71388D01*
X546352D01*
X548891Y73927D01*
X553969Y71388D02*
Y86623D01*
X564126Y71388D01*
Y86623D01*
X569204Y71388D02*
X574282D01*
X571743D01*
Y86623D01*
X569204Y84084D01*
X581900D02*
X584439Y86623D01*
X589518D01*
X592057Y84084D01*
Y81545D01*
X589518Y79005D01*
X592057Y76466D01*
Y73927D01*
X589518Y71388D01*
X584439D01*
X581900Y73927D01*
Y76466D01*
X584439Y79005D01*
X581900Y81545D01*
Y84084D01*
X584439Y79005D02*
X589518D01*
X548891Y524012D02*
X546352Y526551D01*
X541273D01*
X538734Y524012D01*
Y513855D01*
X541273Y511316D01*
X546352D01*
X548891Y513855D01*
X553969Y511316D02*
Y526551D01*
X564126Y511316D01*
Y526551D01*
X569204Y511316D02*
X574282D01*
X571743D01*
Y526551D01*
X569204Y524012D01*
X581900Y513855D02*
X584439Y511316D01*
X589518D01*
X592057Y513855D01*
Y524012D01*
X589518Y526551D01*
X584439D01*
X581900Y524012D01*
Y521473D01*
X584439Y518933D01*
X592057D01*
X948941Y833892D02*
X946402Y836431D01*
X941323D01*
X938784Y833892D01*
Y823735D01*
X941323Y821196D01*
X946402D01*
X948941Y823735D01*
X954019Y821196D02*
Y836431D01*
X964176Y821196D01*
Y836431D01*
X979411Y821196D02*
X969254D01*
X979411Y831353D01*
Y833892D01*
X976872Y836431D01*
X971793D01*
X969254Y833892D01*
X984489D02*
X987028Y836431D01*
X992107D01*
X994646Y833892D01*
Y823735D01*
X992107Y821196D01*
X987028D01*
X984489Y823735D01*
Y833892D01*
X548891Y594116D02*
X546352Y596655D01*
X541273D01*
X538734Y594116D01*
Y583959D01*
X541273Y581420D01*
X546352D01*
X548891Y583959D01*
X553969Y581420D02*
Y596655D01*
X564126Y581420D01*
Y596655D01*
X579361Y581420D02*
X569204D01*
X579361Y591577D01*
Y594116D01*
X576822Y596655D01*
X571743D01*
X569204Y594116D01*
X584439Y581420D02*
X589518D01*
X586978D01*
Y596655D01*
X584439Y594116D01*
X123949Y328940D02*
X121410Y331479D01*
X116331D01*
X113792Y328940D01*
Y318783D01*
X116331Y316244D01*
X121410D01*
X123949Y318783D01*
X129027Y316244D02*
Y331479D01*
X139184Y316244D01*
Y331479D01*
X154419Y316244D02*
X144262D01*
X154419Y326401D01*
Y328940D01*
X151880Y331479D01*
X146801D01*
X144262Y328940D01*
X169654Y331479D02*
X159497D01*
Y323862D01*
X164576Y326401D01*
X167115D01*
X169654Y323862D01*
Y318783D01*
X167115Y316244D01*
X162036D01*
X159497Y318783D01*
X924049Y716798D02*
X921509Y719337D01*
X916431D01*
X913892Y716798D01*
Y706641D01*
X916431Y704102D01*
X921509D01*
X924049Y706641D01*
X929127Y704102D02*
Y719337D01*
X939284Y704102D01*
Y719337D01*
X944362Y706641D02*
X946901Y704102D01*
X951980D01*
X954519Y706641D01*
Y716798D01*
X951980Y719337D01*
X946901D01*
X944362Y716798D01*
Y714259D01*
X946901Y711720D01*
X954519D01*
X677164Y708669D02*
Y695973D01*
X679703Y693434D01*
X684781D01*
X687321Y695973D01*
Y708669D01*
X702556Y693434D02*
X692399D01*
X702556Y703591D01*
Y706130D01*
X700017Y708669D01*
X694938D01*
X692399Y706130D01*
X582165Y685302D02*
X579626Y687841D01*
X574547D01*
X572008Y685302D01*
Y675145D01*
X574547Y672606D01*
X579626D01*
X582165Y675145D01*
X597400Y687841D02*
X587243D01*
Y680223D01*
X592321Y682763D01*
X594861D01*
X597400Y680223D01*
Y675145D01*
X594861Y672606D01*
X589782D01*
X587243Y675145D01*
X139189Y908822D02*
X136650Y911361D01*
X131571D01*
X129032Y908822D01*
Y898665D01*
X131571Y896126D01*
X136650D01*
X139189Y898665D01*
X154424Y896126D02*
X144267D01*
X154424Y906283D01*
Y908822D01*
X151885Y911361D01*
X146806D01*
X144267Y908822D01*
X914146Y571260D02*
Y586495D01*
X921764D01*
X924303Y583956D01*
Y578877D01*
X921764Y576338D01*
X914146D01*
X919224D02*
X924303Y571260D01*
X929381Y583956D02*
X931920Y586495D01*
X936999D01*
X939538Y583956D01*
Y581417D01*
X936999Y578877D01*
X934459D01*
X936999D01*
X939538Y576338D01*
Y573799D01*
X936999Y571260D01*
X931920D01*
X929381Y573799D01*
X884171Y673872D02*
X881631Y676411D01*
X876553D01*
X874014Y673872D01*
Y663715D01*
X876553Y661176D01*
X881631D01*
X884171Y663715D01*
X889249Y673872D02*
X891788Y676411D01*
X896867D01*
X899406Y673872D01*
Y671333D01*
X896867Y668793D01*
X899406Y666254D01*
Y663715D01*
X896867Y661176D01*
X891788D01*
X889249Y663715D01*
Y666254D01*
X891788Y668793D01*
X889249Y671333D01*
Y673872D01*
X891788Y668793D02*
X896867D01*
X849119Y413776D02*
X846580Y416315D01*
X841501D01*
X838962Y413776D01*
Y403619D01*
X841501Y401080D01*
X846580D01*
X849119Y403619D01*
X864354Y416315D02*
X859275Y413776D01*
X854197Y408698D01*
Y403619D01*
X856736Y401080D01*
X861815D01*
X864354Y403619D01*
Y406158D01*
X861815Y408698D01*
X854197D01*
X836930Y550935D02*
Y535700D01*
X844548D01*
X847087Y538239D01*
Y548396D01*
X844548Y550935D01*
X836930D01*
X862322Y535700D02*
X852165D01*
X862322Y545857D01*
Y548396D01*
X859783Y550935D01*
X854704D01*
X852165Y548396D01*
X254000Y536208D02*
Y551443D01*
X261618D01*
X264157Y548904D01*
Y543825D01*
X261618Y541286D01*
X254000D01*
X259078D02*
X264157Y536208D01*
X269235D02*
X274313D01*
X271774D01*
Y551443D01*
X269235Y548904D01*
X901697Y419363D02*
X896618D01*
X899157D01*
Y406667D01*
X896618Y404128D01*
X894079D01*
X891540Y406667D01*
X906775Y404128D02*
X911853D01*
X909314D01*
Y419363D01*
X906775Y416824D01*
X799081Y385328D02*
X796542Y387867D01*
X791463D01*
X788924Y385328D01*
Y375171D01*
X791463Y372632D01*
X796542D01*
X799081Y375171D01*
X804159Y372632D02*
Y387867D01*
X814316Y372632D01*
Y387867D01*
X819394Y372632D02*
X824473D01*
X821933D01*
Y387867D01*
X819394Y385328D01*
X299209Y513852D02*
X296670Y516391D01*
X291591D01*
X289052Y513852D01*
Y503695D01*
X291591Y501156D01*
X296670D01*
X299209Y503695D01*
X304287Y501156D02*
X309365D01*
X306826D01*
Y516391D01*
X304287Y513852D01*
X356359Y676920D02*
X353820Y679459D01*
X348741D01*
X346202Y676920D01*
Y666763D01*
X348741Y664224D01*
X353820D01*
X356359Y666763D01*
X361437Y664224D02*
Y679459D01*
X371594Y664224D01*
Y679459D01*
X384290Y664224D02*
Y679459D01*
X376672Y671842D01*
X386829D01*
X203959Y676920D02*
X201420Y679459D01*
X196341D01*
X193802Y676920D01*
Y666763D01*
X196341Y664224D01*
X201420D01*
X203959Y666763D01*
X209037Y664224D02*
Y679459D01*
X219194Y664224D01*
Y679459D01*
X224272Y676920D02*
X226811Y679459D01*
X231890D01*
X234429Y676920D01*
Y674381D01*
X231890Y671842D01*
X229350D01*
X231890D01*
X234429Y669302D01*
Y666763D01*
X231890Y664224D01*
X226811D01*
X224272Y666763D01*
X449069Y369580D02*
X446530Y372119D01*
X441451D01*
X438912Y369580D01*
Y359423D01*
X441451Y356884D01*
X446530D01*
X449069Y359423D01*
X454147Y356884D02*
Y372119D01*
X464304Y356884D01*
Y372119D01*
X479539D02*
X474460Y369580D01*
X469382Y364501D01*
Y359423D01*
X471921Y356884D01*
X477000D01*
X479539Y359423D01*
Y361962D01*
X477000Y364501D01*
X469382D01*
X449069Y651774D02*
X446530Y654313D01*
X441451D01*
X438912Y651774D01*
Y641617D01*
X441451Y639078D01*
X446530D01*
X449069Y641617D01*
X454147Y639078D02*
Y654313D01*
X464304Y639078D01*
Y654313D01*
X469382Y651774D02*
X471921Y654313D01*
X477000D01*
X479539Y651774D01*
Y649235D01*
X477000Y646695D01*
X479539Y644156D01*
Y641617D01*
X477000Y639078D01*
X471921D01*
X469382Y641617D01*
Y644156D01*
X471921Y646695D01*
X469382Y649235D01*
Y651774D01*
X471921Y646695D02*
X477000D01*
D16*
X514492Y626658D02*
X534492D01*
X525000Y622000D02*
Y627500D01*
X514492Y623182D02*
X534492D01*
X789492Y501658D02*
X809492D01*
X800000Y497000D02*
Y502500D01*
X789492Y498182D02*
X809492D01*
X130508Y858342D02*
X150508D01*
X140000Y857500D02*
Y863000D01*
X130508Y861818D02*
X150508D01*
X874492Y626658D02*
X894492D01*
X885000Y622000D02*
Y627500D01*
X874492Y623182D02*
X894492D01*
X839492Y366658D02*
X859492D01*
X850000Y362000D02*
Y367500D01*
X839492Y363182D02*
X859492D01*
X289492Y466658D02*
X309492D01*
X300000Y462000D02*
Y467500D01*
X289492Y463182D02*
X309492D01*
D17*
X794000Y657000D02*
Y664500D01*
X594000Y657000D02*
Y664500D01*
D18*
X496446Y90626D02*
X503302D01*
X499874Y87198D02*
Y94054D01*
X863746Y462929D02*
X870602D01*
X867174Y459502D02*
Y466357D01*
D19*
X600190Y652808D02*
D03*
X800190Y652807D02*
D03*
M02*
