G04*
G04 #@! TF.GenerationSoftware,Altium Limited,Altium Designer,24.3.1 (35)*
G04*
G04 Layer_Physical_Order=2*
G04 Layer_Color=16711680*
%FSLAX44Y44*%
%MOMM*%
G71*
G04*
G04 #@! TF.SameCoordinates,E7721F7D-E282-41D9-B0B1-2D617A9ED9AD*
G04*
G04*
G04 #@! TF.FilePolarity,Positive*
G04*
G01*
G75*
%ADD24R,1.3000X1.3000*%
%ADD25C,1.3000*%
%ADD30C,2.0500*%
%ADD31R,2.0500X2.0500*%
%ADD32R,1.4000X1.4000*%
%ADD33C,1.4000*%
%ADD35C,0.8000*%
%ADD36R,2.0000X2.0000*%
%ADD37C,3.0000*%
G04:AMPARAMS|DCode=38|XSize=3mm|YSize=3mm|CornerRadius=0.75mm|HoleSize=0mm|Usage=FLASHONLY|Rotation=270.000|XOffset=0mm|YOffset=0mm|HoleType=Round|Shape=RoundedRectangle|*
%AMROUNDEDRECTD38*
21,1,3.0000,1.5000,0,0,270.0*
21,1,1.5000,3.0000,0,0,270.0*
1,1,1.5000,-0.7500,-0.7500*
1,1,1.5000,-0.7500,0.7500*
1,1,1.5000,0.7500,0.7500*
1,1,1.5000,0.7500,-0.7500*
%
%ADD38ROUNDEDRECTD38*%
%ADD39C,1.7780*%
%ADD40C,2.5000*%
%ADD41C,1.5000*%
%ADD42C,1.7000*%
%ADD43C,5.0000*%
%ADD44C,2.5400*%
%ADD45C,1.0000*%
G36*
X1000000Y0D02*
X0D01*
Y1000000D01*
X1000000D01*
Y0D01*
D02*
G37*
%LPC*%
G36*
X952597Y983000D02*
X947403D01*
X942272Y982187D01*
X937332Y980582D01*
X932704Y978224D01*
X928502Y975171D01*
X924829Y971498D01*
X921776Y967296D01*
X919418Y962668D01*
X917813Y957728D01*
X917000Y952597D01*
Y947403D01*
X917813Y942272D01*
X919418Y937332D01*
X921776Y932704D01*
X924829Y928502D01*
X928502Y924829D01*
X932704Y921776D01*
X937332Y919418D01*
X942272Y917813D01*
X947403Y917000D01*
X952597D01*
X957728Y917813D01*
X962668Y919418D01*
X967296Y921776D01*
X971498Y924829D01*
X975171Y928502D01*
X978224Y932704D01*
X980582Y937332D01*
X982187Y942272D01*
X983000Y947403D01*
Y952597D01*
X982187Y957728D01*
X980582Y962668D01*
X978224Y967296D01*
X975171Y971498D01*
X971498Y975171D01*
X967296Y978224D01*
X962668Y980582D01*
X957728Y982187D01*
X952597Y983000D01*
D02*
G37*
G36*
X52597D02*
X47403D01*
X42273Y982187D01*
X37332Y980582D01*
X32704Y978224D01*
X28502Y975171D01*
X24829Y971498D01*
X21776Y967296D01*
X19418Y962668D01*
X17813Y957728D01*
X17000Y952597D01*
Y947403D01*
X17813Y942272D01*
X19418Y937332D01*
X21776Y932704D01*
X24829Y928502D01*
X28502Y924829D01*
X32704Y921776D01*
X37332Y919418D01*
X42273Y917813D01*
X47403Y917000D01*
X52597D01*
X57727Y917813D01*
X62668Y919418D01*
X67296Y921776D01*
X71498Y924829D01*
X75171Y928502D01*
X78224Y932704D01*
X80582Y937332D01*
X82187Y942272D01*
X83000Y947403D01*
Y952597D01*
X82187Y957728D01*
X80582Y962668D01*
X78224Y967296D01*
X75171Y971498D01*
X71498Y975171D01*
X67296Y978224D01*
X62668Y980582D01*
X57727Y982187D01*
X52597Y983000D01*
D02*
G37*
G36*
X168000Y968000D02*
X132000D01*
Y932000D01*
X161888D01*
Y888112D01*
X155879D01*
X153068Y890923D01*
X149710Y893167D01*
X145980Y894712D01*
X142019Y895500D01*
X137981D01*
X134020Y894712D01*
X130290Y893167D01*
X126932Y890923D01*
X124121Y888112D01*
X82495D01*
X82389Y888460D01*
X80950Y891153D01*
X79013Y893513D01*
X76653Y895450D01*
X73960Y896889D01*
X71038Y897776D01*
X68000Y898075D01*
X53000D01*
X49961Y897776D01*
X47039Y896889D01*
X44347Y895450D01*
X41987Y893513D01*
X40050Y891153D01*
X38610Y888460D01*
X37724Y885538D01*
X37425Y882500D01*
Y867500D01*
X37724Y864462D01*
X38610Y861540D01*
X40050Y858847D01*
X41987Y856487D01*
X44347Y854550D01*
X47039Y853111D01*
X49961Y852224D01*
X53000Y851925D01*
X68000D01*
X71038Y852224D01*
X73960Y853111D01*
X76653Y854550D01*
X79013Y856487D01*
X80950Y858847D01*
X82389Y861540D01*
X82495Y861888D01*
X124121D01*
X126932Y859077D01*
X129377Y857443D01*
X129538Y855808D01*
X128318Y854587D01*
X126672Y852124D01*
X125538Y849387D01*
X125461Y849000D01*
X140000D01*
X154539D01*
X154462Y849387D01*
X153328Y852124D01*
X151682Y854587D01*
X150462Y855808D01*
X150623Y857443D01*
X153068Y859077D01*
X155879Y861888D01*
X215500D01*
Y860500D01*
X244500D01*
Y861888D01*
X320000D01*
X323394Y862335D01*
X326556Y863644D01*
X329272Y865728D01*
X331356Y868444D01*
X332665Y871606D01*
X333112Y875000D01*
Y914226D01*
X333119Y914233D01*
X334968Y917000D01*
X336241Y920073D01*
X336890Y923336D01*
Y926664D01*
X336241Y929927D01*
X334968Y933000D01*
X333119Y935767D01*
X330767Y938119D01*
X328000Y939968D01*
X324927Y941241D01*
X321664Y941890D01*
X318337D01*
X315073Y941241D01*
X312000Y939968D01*
X309233Y938119D01*
X306881Y935767D01*
X305032Y933000D01*
X303759Y929927D01*
X303110Y926664D01*
Y923336D01*
X303759Y920073D01*
X305032Y917000D01*
X306881Y914233D01*
X306888Y914226D01*
Y888112D01*
X244500D01*
Y889500D01*
X215500D01*
Y888112D01*
X188112D01*
Y950000D01*
X187665Y953394D01*
X186355Y956556D01*
X184272Y959272D01*
X181556Y961356D01*
X178394Y962665D01*
X175000Y963112D01*
X168000D01*
Y968000D01*
D02*
G37*
G36*
X136000Y841000D02*
X125461D01*
X125538Y840613D01*
X126672Y837876D01*
X128318Y835413D01*
X130413Y833318D01*
X132876Y831672D01*
X135613Y830538D01*
X136000Y830461D01*
Y841000D01*
D02*
G37*
G36*
X154539D02*
X144000D01*
Y830461D01*
X144387Y830538D01*
X147124Y831672D01*
X149587Y833318D01*
X151682Y835413D01*
X153328Y837876D01*
X154462Y840613D01*
X154539Y841000D01*
D02*
G37*
G36*
X64500Y842088D02*
Y829000D01*
X77588D01*
X77366Y830116D01*
X76044Y833308D01*
X74124Y836181D01*
X71681Y838624D01*
X68808Y840544D01*
X65616Y841866D01*
X64500Y842088D01*
D02*
G37*
G36*
X56500Y842088D02*
X55384Y841866D01*
X52192Y840544D01*
X49319Y838624D01*
X46876Y836181D01*
X44956Y833308D01*
X43634Y830116D01*
X43412Y829000D01*
X56500D01*
Y842088D01*
D02*
G37*
G36*
X234000Y833129D02*
Y829000D01*
X238129D01*
X237234Y830551D01*
X235551Y832234D01*
X234000Y833129D01*
D02*
G37*
G36*
X226000Y833129D02*
X224449Y832234D01*
X222766Y830551D01*
X221871Y829000D01*
X226000D01*
Y833129D01*
D02*
G37*
G36*
X238129Y821000D02*
X234000D01*
Y816871D01*
X235551Y817766D01*
X237234Y819449D01*
X238129Y821000D01*
D02*
G37*
G36*
X226000D02*
X221871D01*
X222766Y819449D01*
X224449Y817766D01*
X226000Y816871D01*
Y821000D01*
D02*
G37*
G36*
X56500Y821000D02*
X43412D01*
X43634Y819884D01*
X44956Y816692D01*
X46876Y813819D01*
X49319Y811376D01*
X52192Y809456D01*
X55384Y808134D01*
X56500Y807912D01*
Y821000D01*
D02*
G37*
G36*
X77588D02*
X64500D01*
Y807912D01*
X65616Y808134D01*
X68808Y809456D01*
X71681Y811376D01*
X74124Y813819D01*
X76044Y816692D01*
X77366Y819884D01*
X77588Y821000D01*
D02*
G37*
G36*
X954000Y812540D02*
Y804000D01*
X962540D01*
Y812540D01*
X954000D01*
D02*
G37*
G36*
X894000Y805761D02*
Y799000D01*
X900761D01*
X900651Y799412D01*
X899146Y802018D01*
X897018Y804146D01*
X894412Y805651D01*
X894000Y805761D01*
D02*
G37*
G36*
X886000D02*
X885588Y805651D01*
X882982Y804146D01*
X880854Y802018D01*
X879349Y799412D01*
X879239Y799000D01*
X886000D01*
Y805761D01*
D02*
G37*
G36*
X324000D02*
Y799000D01*
X330761D01*
X330651Y799412D01*
X329146Y802018D01*
X327018Y804146D01*
X324412Y805651D01*
X324000Y805761D01*
D02*
G37*
G36*
X316000Y805761D02*
X315588Y805651D01*
X312982Y804146D01*
X310854Y802018D01*
X309349Y799412D01*
X309239Y799000D01*
X316000D01*
Y805761D01*
D02*
G37*
G36*
X962540Y796000D02*
X954000D01*
Y787460D01*
X962540D01*
Y796000D01*
D02*
G37*
G36*
X316000Y791000D02*
X309239D01*
X309349Y790588D01*
X310854Y787982D01*
X312982Y785854D01*
X315588Y784349D01*
X316000Y784239D01*
Y791000D01*
D02*
G37*
G36*
X900761Y791000D02*
X894000D01*
Y784239D01*
X894412Y784349D01*
X897018Y785854D01*
X899146Y787982D01*
X900651Y790588D01*
X900761Y791000D01*
D02*
G37*
G36*
X886000D02*
X879239D01*
X879349Y790588D01*
X880854Y787982D01*
X882982Y785854D01*
X885588Y784349D01*
X886000Y784239D01*
Y791000D01*
D02*
G37*
G36*
X330761Y791000D02*
X324000D01*
Y784239D01*
X324412Y784349D01*
X327018Y785854D01*
X329146Y787982D01*
X330651Y790588D01*
X330761Y791000D01*
D02*
G37*
G36*
X707390Y663140D02*
X698600D01*
Y654350D01*
X707390D01*
Y663140D01*
D02*
G37*
G36*
X690600D02*
X681810D01*
Y654350D01*
X690600D01*
Y663140D01*
D02*
G37*
G36*
X889000Y654539D02*
Y644000D01*
X899539D01*
X899462Y644387D01*
X898328Y647124D01*
X896682Y649587D01*
X894587Y651682D01*
X892124Y653328D01*
X889387Y654462D01*
X889000Y654539D01*
D02*
G37*
G36*
X881000D02*
X880613Y654462D01*
X877876Y653328D01*
X875413Y651682D01*
X873318Y649587D01*
X871672Y647124D01*
X870538Y644387D01*
X870461Y644000D01*
X881000D01*
Y654539D01*
D02*
G37*
G36*
X529000Y654539D02*
Y644000D01*
X539539D01*
X539462Y644387D01*
X538328Y647124D01*
X536682Y649587D01*
X534587Y651682D01*
X532124Y653328D01*
X529387Y654462D01*
X529000Y654539D01*
D02*
G37*
G36*
X521000Y654539D02*
X520613Y654462D01*
X517876Y653328D01*
X515413Y651682D01*
X513318Y649587D01*
X511672Y647124D01*
X510538Y644387D01*
X510461Y644000D01*
X521000D01*
Y654539D01*
D02*
G37*
G36*
X804000Y647358D02*
Y641000D01*
X810358D01*
X810288Y641261D01*
X808834Y643779D01*
X806779Y645834D01*
X804261Y647288D01*
X804000Y647358D01*
D02*
G37*
G36*
X604000D02*
Y641000D01*
X610358D01*
X610288Y641261D01*
X608834Y643779D01*
X606779Y645834D01*
X604261Y647288D01*
X604000Y647358D01*
D02*
G37*
G36*
X796000D02*
X795739Y647288D01*
X793221Y645834D01*
X791166Y643779D01*
X789712Y641261D01*
X789642Y641000D01*
X796000D01*
Y647358D01*
D02*
G37*
G36*
X596000D02*
X595739Y647288D01*
X593221Y645834D01*
X591166Y643779D01*
X589712Y641261D01*
X589642Y641000D01*
X596000D01*
Y647358D01*
D02*
G37*
G36*
X891664Y941890D02*
X888336D01*
X885073Y941241D01*
X882000Y939968D01*
X879233Y938119D01*
X876881Y935767D01*
X875032Y933000D01*
X873759Y929927D01*
X873110Y926664D01*
Y923336D01*
X873759Y920073D01*
X875032Y917000D01*
X876881Y914233D01*
X877896Y913217D01*
Y875000D01*
X878309Y871867D01*
X879518Y868948D01*
X881441Y866441D01*
X883948Y864518D01*
X886867Y863309D01*
X890000Y862896D01*
X912896D01*
Y700700D01*
X907000D01*
Y664700D01*
Y639300D01*
X912896D01*
Y622104D01*
X901568D01*
X900923Y623068D01*
X898068Y625923D01*
X895623Y627557D01*
X895462Y629192D01*
X896682Y630413D01*
X898328Y632876D01*
X899462Y635613D01*
X899539Y636000D01*
X885000D01*
X870461D01*
X870538Y635613D01*
X871672Y632876D01*
X873318Y630413D01*
X874538Y629192D01*
X874377Y627557D01*
X871932Y625923D01*
X869077Y623068D01*
X868432Y622104D01*
X847848D01*
X846052Y623482D01*
X843133Y624691D01*
X840000Y625104D01*
X811231D01*
X810518Y625816D01*
X807945Y627536D01*
X807797Y627802D01*
X807670Y629057D01*
X808834Y630221D01*
X810288Y632739D01*
X810358Y633000D01*
X800000D01*
X789642D01*
X789712Y632739D01*
X791166Y630221D01*
X792330Y629057D01*
X792203Y627802D01*
X792055Y627536D01*
X789482Y625816D01*
X788769Y625104D01*
X750000D01*
X746867Y624691D01*
X745199Y624000D01*
X742935D01*
X742098Y624955D01*
X742104Y625000D01*
Y667896D01*
X823826D01*
X824352Y666627D01*
X821921Y664195D01*
X819656Y660805D01*
X818095Y657038D01*
X817300Y653039D01*
Y648961D01*
X818095Y644962D01*
X819656Y641195D01*
X821921Y637804D01*
X824805Y634921D01*
X828195Y632656D01*
X831962Y631096D01*
X835961Y630300D01*
X840039D01*
X844038Y631096D01*
X847805Y632656D01*
X851196Y634921D01*
X854079Y637804D01*
X856344Y641195D01*
X857905Y644962D01*
X858700Y648961D01*
Y653039D01*
X857905Y657038D01*
X856344Y660805D01*
X854079Y664195D01*
X851466Y666808D01*
X851672Y667814D01*
X851886Y668145D01*
X853133Y668309D01*
X856052Y669518D01*
X858559Y671441D01*
X860482Y673948D01*
X861691Y676867D01*
X862104Y680000D01*
Y684000D01*
X868000D01*
Y720000D01*
X832000D01*
Y692104D01*
X730000D01*
X726867Y691691D01*
X723948Y690482D01*
X721441Y688559D01*
X719518Y686052D01*
X718309Y683133D01*
X717896Y680000D01*
Y637104D01*
X708306D01*
X707390Y638019D01*
Y646350D01*
X681810D01*
Y638019D01*
X680894Y637104D01*
X650000D01*
X646867Y636691D01*
X643948Y635482D01*
X641441Y633559D01*
X639518Y631052D01*
X638309Y628133D01*
X637910Y625104D01*
X611231D01*
X610518Y625816D01*
X607945Y627536D01*
X607797Y627802D01*
X607670Y629057D01*
X608834Y630221D01*
X610288Y632739D01*
X610358Y633000D01*
X600000D01*
X589642D01*
X589712Y632739D01*
X591166Y630221D01*
X592330Y629057D01*
X592203Y627802D01*
X592055Y627536D01*
X589482Y625816D01*
X587184Y623518D01*
X586239Y622104D01*
X541568D01*
X540923Y623068D01*
X538068Y625923D01*
X535623Y627557D01*
X535462Y629192D01*
X536682Y630413D01*
X538328Y632876D01*
X539462Y635613D01*
X539539Y636000D01*
X525000D01*
X510461D01*
X510538Y635613D01*
X511672Y632876D01*
X513318Y630413D01*
X514538Y629192D01*
X514377Y627557D01*
X511932Y625923D01*
X510850Y624841D01*
X509582Y624924D01*
X508559Y626259D01*
X506052Y628182D01*
X503133Y629391D01*
X500000Y629804D01*
X468000D01*
Y635700D01*
X432000D01*
Y604404D01*
X375400D01*
Y608500D01*
X369940D01*
Y611900D01*
X357400D01*
X344860D01*
Y608500D01*
X339400D01*
Y602603D01*
X312104D01*
Y680000D01*
X311691Y683133D01*
X310482Y686052D01*
X308559Y688559D01*
X306052Y690482D01*
X303133Y691691D01*
X300000Y692104D01*
X31000D01*
X27867Y691691D01*
X24948Y690482D01*
X22441Y688559D01*
X20518Y686052D01*
X19309Y683133D01*
X18896Y680000D01*
Y291900D01*
X19309Y288767D01*
X20518Y285848D01*
X22441Y283342D01*
X24948Y281418D01*
X27867Y280209D01*
X31000Y279796D01*
X57000D01*
Y273900D01*
X93000D01*
Y299300D01*
Y305196D01*
X107000D01*
Y277000D01*
X142896D01*
Y273000D01*
X107000D01*
Y247104D01*
X93000D01*
Y253000D01*
X57000D01*
Y217000D01*
Y191600D01*
X62460D01*
Y188200D01*
X75000D01*
X87540D01*
Y191600D01*
X93000D01*
Y197496D01*
X107000D01*
Y162000D01*
X143000D01*
Y195000D01*
X187000D01*
Y191500D01*
X192460D01*
Y188100D01*
X205000D01*
X217540D01*
Y191500D01*
X223000D01*
Y216900D01*
Y242300D01*
Y267700D01*
Y293100D01*
Y318500D01*
Y343900D01*
Y369300D01*
Y394700D01*
Y420100D01*
Y445500D01*
Y470900D01*
Y496300D01*
Y502196D01*
X248900D01*
X249077Y501932D01*
X251932Y499077D01*
X255290Y496833D01*
X259020Y495288D01*
X262981Y494500D01*
X267019D01*
X270980Y495288D01*
X274710Y496833D01*
X278068Y499077D01*
X280923Y501932D01*
X283167Y505290D01*
X284712Y509020D01*
X285500Y512981D01*
Y517019D01*
X284712Y520980D01*
X283167Y524710D01*
X280923Y528068D01*
X278068Y530923D01*
X274710Y533167D01*
X270980Y534712D01*
X267019Y535500D01*
X262981D01*
X259020Y534712D01*
X255290Y533167D01*
X251932Y530923D01*
X249077Y528068D01*
X247964Y526404D01*
X223000D01*
Y532300D01*
Y547100D01*
Y572500D01*
Y597900D01*
Y623300D01*
Y659300D01*
X187000D01*
Y623300D01*
Y597900D01*
Y572500D01*
Y547100D01*
Y532300D01*
Y526404D01*
X152104D01*
Y537000D01*
X158000D01*
Y573000D01*
X122000D01*
Y537000D01*
X127896D01*
Y526404D01*
X93000D01*
Y531100D01*
X57000D01*
Y495100D01*
Y469700D01*
Y444300D01*
X62460D01*
Y440900D01*
X75000D01*
X87540D01*
Y444300D01*
X89000D01*
Y386100D01*
X87540D01*
Y389500D01*
X75000D01*
X62460D01*
Y386100D01*
X57000D01*
Y385000D01*
X45000D01*
Y304004D01*
X43103D01*
Y667896D01*
X287896D01*
Y590500D01*
X288309Y587367D01*
X289518Y584448D01*
X291441Y581941D01*
X293948Y580018D01*
X296867Y578809D01*
X300000Y578396D01*
X339400D01*
Y572500D01*
Y547100D01*
Y521700D01*
Y496300D01*
Y470900D01*
Y445500D01*
Y427104D01*
X312104D01*
Y433432D01*
X313068Y434077D01*
X315923Y436932D01*
X318167Y440290D01*
X319712Y444020D01*
X320500Y447981D01*
Y452019D01*
X319712Y455980D01*
X318167Y459710D01*
X315923Y463068D01*
X313068Y465923D01*
X310623Y467557D01*
X310462Y469192D01*
X311682Y470413D01*
X313328Y472876D01*
X314462Y475613D01*
X314539Y476000D01*
X300000D01*
X285461D01*
X285538Y475613D01*
X286672Y472876D01*
X288318Y470413D01*
X289538Y469192D01*
X289377Y467557D01*
X286932Y465923D01*
X284077Y463068D01*
X281833Y459710D01*
X280288Y455980D01*
X279500Y452019D01*
Y447981D01*
X280288Y444020D01*
X281833Y440290D01*
X284077Y436932D01*
X286932Y434077D01*
X287896Y433432D01*
Y427104D01*
X281568D01*
X280923Y428068D01*
X278068Y430923D01*
X274710Y433167D01*
X270980Y434712D01*
X267019Y435500D01*
X262981D01*
X259020Y434712D01*
X255290Y433167D01*
X251932Y430923D01*
X249077Y428068D01*
X246833Y424710D01*
X245288Y420980D01*
X244500Y417019D01*
Y412981D01*
X245288Y409020D01*
X246833Y405290D01*
X249077Y401932D01*
X251932Y399077D01*
X255290Y396833D01*
X259020Y395288D01*
X262981Y394500D01*
X267019D01*
X270980Y395288D01*
X274710Y396833D01*
X278068Y399077D01*
X280923Y401932D01*
X281568Y402896D01*
X339400D01*
Y394700D01*
Y369300D01*
Y343900D01*
Y318500D01*
Y293100D01*
Y267700D01*
Y242300D01*
Y216900D01*
Y191500D01*
Y166100D01*
Y140700D01*
X375400D01*
Y166100D01*
Y191500D01*
Y216900D01*
Y242300D01*
Y267700D01*
Y273596D01*
X387896D01*
Y250000D01*
X388309Y246867D01*
X389518Y243948D01*
X391441Y241441D01*
X393948Y239518D01*
X396867Y238309D01*
X400000Y237896D01*
X437896D01*
Y191568D01*
X436932Y190923D01*
X434077Y188068D01*
X431833Y184710D01*
X430288Y180980D01*
X429500Y177019D01*
Y172981D01*
X430288Y169020D01*
X431833Y165290D01*
X434077Y161932D01*
X436932Y159077D01*
X440290Y156833D01*
X444020Y155288D01*
X447981Y154500D01*
X452019D01*
X455980Y155288D01*
X459710Y156833D01*
X463068Y159077D01*
X465923Y161932D01*
X468167Y165290D01*
X469712Y169020D01*
X470500Y172981D01*
Y177019D01*
X469712Y180980D01*
X468167Y184710D01*
X465923Y188068D01*
X463068Y190923D01*
X462104Y191568D01*
Y250000D01*
X461691Y253133D01*
X460482Y256052D01*
X458559Y258559D01*
X456052Y260482D01*
X453133Y261691D01*
X450000Y262104D01*
X412104D01*
Y285700D01*
X411691Y288833D01*
X410482Y291752D01*
X408559Y294258D01*
X408034Y294661D01*
X408031Y298098D01*
X408929Y298996D01*
X432000D01*
Y292000D01*
X437460D01*
Y288600D01*
X450000D01*
X462540D01*
Y292000D01*
X468000D01*
Y297896D01*
X472896D01*
Y295000D01*
X473309Y291867D01*
X474518Y288948D01*
X476441Y286441D01*
X478948Y284518D01*
X481867Y283309D01*
X485000Y282896D01*
X507000D01*
Y277000D01*
X543000D01*
Y307000D01*
Y343000D01*
X508987D01*
X508559Y343559D01*
X506052Y345482D01*
X503133Y346691D01*
X500000Y347104D01*
X498038D01*
X495000Y347504D01*
X468000D01*
Y353400D01*
X432000D01*
Y347504D01*
X375400D01*
Y369300D01*
Y394700D01*
Y400596D01*
X392543D01*
X393948Y399518D01*
X396867Y398309D01*
X400000Y397896D01*
X432000D01*
Y392000D01*
X468000D01*
Y428000D01*
X432000D01*
Y422104D01*
X407457D01*
X406052Y423182D01*
X403133Y424391D01*
X400000Y424804D01*
X375400D01*
Y430700D01*
Y445500D01*
Y451396D01*
X532000D01*
Y417000D01*
X568000D01*
Y451396D01*
X647896D01*
Y245000D01*
X648309Y241867D01*
X649518Y238948D01*
X651441Y236441D01*
X653948Y234518D01*
X656867Y233309D01*
X660000Y232896D01*
X910000D01*
Y230000D01*
X940000D01*
Y260000D01*
X937886D01*
X937207Y261270D01*
X938293Y262895D01*
X939424Y265625D01*
X940000Y268523D01*
Y271477D01*
X939424Y274375D01*
X938293Y277105D01*
X936651Y279562D01*
X934562Y281651D01*
X934242Y281865D01*
Y283135D01*
X934562Y283349D01*
X936651Y285438D01*
X938293Y287895D01*
X939424Y290625D01*
X940000Y293523D01*
Y296477D01*
X939424Y299375D01*
X938293Y302105D01*
X936651Y304562D01*
X934562Y306651D01*
X934242Y306865D01*
Y308135D01*
X934562Y308349D01*
X936651Y310438D01*
X938293Y312895D01*
X939424Y315625D01*
X940000Y318523D01*
Y321477D01*
X939424Y324375D01*
X938293Y327105D01*
X936651Y329562D01*
X934587Y331626D01*
X934590Y331733D01*
X934984Y332896D01*
X950000D01*
X953133Y333309D01*
X956052Y334518D01*
X958559Y336441D01*
X960482Y338948D01*
X961691Y341867D01*
X962896Y341608D01*
Y164804D01*
X943000D01*
Y170700D01*
X937540D01*
Y174100D01*
X925000D01*
X912460D01*
Y170700D01*
X907000D01*
Y139404D01*
X762104D01*
Y183192D01*
X763195Y183921D01*
X766079Y186805D01*
X768344Y190195D01*
X769904Y193962D01*
X770700Y197961D01*
Y202039D01*
X769904Y206038D01*
X768344Y209805D01*
X766079Y213195D01*
X763195Y216079D01*
X759805Y218344D01*
X756038Y219904D01*
X752039Y220700D01*
X747961D01*
X743962Y219904D01*
X740195Y218344D01*
X736805Y216079D01*
X733921Y213195D01*
X731656Y209805D01*
X730096Y206038D01*
X729300Y202039D01*
Y197961D01*
X730096Y193962D01*
X731656Y190195D01*
X733921Y186805D01*
X736805Y183921D01*
X737896Y183192D01*
Y131986D01*
X738309Y128854D01*
X739518Y125934D01*
X741441Y123428D01*
X742000Y122869D01*
Y114004D01*
X712104D01*
Y183192D01*
X713195Y183921D01*
X716079Y186805D01*
X718344Y190195D01*
X719904Y193962D01*
X720700Y197961D01*
Y202039D01*
X719904Y206038D01*
X718344Y209805D01*
X716079Y213195D01*
X713195Y216079D01*
X709805Y218344D01*
X706038Y219904D01*
X702039Y220700D01*
X697961D01*
X693962Y219904D01*
X690195Y218344D01*
X686805Y216079D01*
X683921Y213195D01*
X681656Y209805D01*
X680096Y206038D01*
X679300Y202039D01*
Y197961D01*
X680096Y193962D01*
X681656Y190195D01*
X683921Y186805D01*
X686805Y183921D01*
X687896Y183192D01*
Y106586D01*
X688309Y103454D01*
X689518Y100534D01*
X691441Y98028D01*
X696128Y93342D01*
X698634Y91418D01*
X701554Y90209D01*
X704686Y89796D01*
X907000D01*
Y83900D01*
X943000D01*
Y109300D01*
Y134700D01*
Y140596D01*
X975000D01*
X978133Y141009D01*
X981052Y142218D01*
X983559Y144142D01*
X985482Y146648D01*
X986691Y149567D01*
X987104Y152700D01*
Y550000D01*
X986691Y553133D01*
X985482Y556052D01*
X983559Y558559D01*
X981052Y560482D01*
X978133Y561691D01*
X975000Y562104D01*
X941568D01*
X940923Y563068D01*
X938068Y565923D01*
X937104Y566568D01*
Y610000D01*
Y639300D01*
X943000D01*
Y664700D01*
Y700700D01*
X937104D01*
Y786338D01*
X937460Y787460D01*
X938374Y787460D01*
X946000D01*
Y800000D01*
Y812540D01*
X938374D01*
X937460Y812540D01*
X937104Y813662D01*
Y857000D01*
X968000D01*
Y893000D01*
X932000D01*
Y887104D01*
X902104D01*
Y913217D01*
X903119Y914233D01*
X904968Y917000D01*
X906241Y920073D01*
X906890Y923336D01*
Y926664D01*
X906241Y929927D01*
X904968Y933000D01*
X903119Y935767D01*
X900767Y938119D01*
X898000Y939968D01*
X894927Y941241D01*
X891664Y941890D01*
D02*
G37*
G36*
X375400Y659300D02*
X339400D01*
Y623300D01*
X344860D01*
Y619900D01*
X357400D01*
X369940D01*
Y623300D01*
X375400D01*
Y659300D01*
D02*
G37*
G36*
X304000Y494539D02*
Y484000D01*
X314539D01*
X314462Y484387D01*
X313328Y487124D01*
X311682Y489587D01*
X309587Y491682D01*
X307124Y493328D01*
X304387Y494462D01*
X304000Y494539D01*
D02*
G37*
G36*
X296000D02*
X295613Y494462D01*
X292876Y493328D01*
X290413Y491682D01*
X288318Y489587D01*
X286672Y487124D01*
X285538Y484387D01*
X285461Y484000D01*
X296000D01*
Y494539D01*
D02*
G37*
G36*
X87540Y432900D02*
X79000D01*
Y424360D01*
X87540D01*
Y432900D01*
D02*
G37*
G36*
X71000D02*
X62460D01*
Y424360D01*
X71000D01*
Y432900D01*
D02*
G37*
G36*
X87540Y406040D02*
X79000D01*
Y397500D01*
X87540D01*
Y406040D01*
D02*
G37*
G36*
X71000D02*
X62460D01*
Y397500D01*
X71000D01*
Y406040D01*
D02*
G37*
G36*
X462540Y280600D02*
X454000D01*
Y272060D01*
X462540D01*
Y280600D01*
D02*
G37*
G36*
X446000D02*
X437460D01*
Y272060D01*
X446000D01*
Y280600D01*
D02*
G37*
G36*
X937540Y190640D02*
X929000D01*
Y182100D01*
X937540D01*
Y190640D01*
D02*
G37*
G36*
X921000D02*
X912460D01*
Y182100D01*
X921000D01*
Y190640D01*
D02*
G37*
G36*
X87540Y180200D02*
X79000D01*
Y171660D01*
X87540D01*
Y180200D01*
D02*
G37*
G36*
X71000D02*
X62460D01*
Y171660D01*
X71000D01*
Y180200D01*
D02*
G37*
G36*
X504000Y149684D02*
Y144400D01*
X509284D01*
X508034Y146565D01*
X506165Y148434D01*
X504000Y149684D01*
D02*
G37*
G36*
X496000Y149684D02*
X493835Y148434D01*
X491966Y146565D01*
X490716Y144400D01*
X496000D01*
Y149684D01*
D02*
G37*
G36*
X217540Y180100D02*
X205000D01*
X192460D01*
Y176700D01*
X187000D01*
Y140700D01*
X223000D01*
Y176700D01*
X217540D01*
Y180100D01*
D02*
G37*
G36*
X87540Y117540D02*
X79000D01*
Y109000D01*
X87540D01*
Y117540D01*
D02*
G37*
G36*
X71000D02*
X62460D01*
Y109000D01*
X71000D01*
Y117540D01*
D02*
G37*
G36*
X87540Y101000D02*
X79000D01*
Y92460D01*
X87540D01*
Y101000D01*
D02*
G37*
G36*
X71000D02*
X62460D01*
Y92460D01*
X71000D01*
Y101000D01*
D02*
G37*
G36*
X509284Y136400D02*
X500000D01*
X490716D01*
X491966Y134235D01*
X493835Y132366D01*
X495760Y131255D01*
X495604Y129929D01*
X495479Y129904D01*
X492658Y128736D01*
X490119Y127040D01*
X487960Y124881D01*
X486264Y122342D01*
X485096Y119521D01*
X484500Y116527D01*
Y113473D01*
X485096Y110479D01*
X486264Y107658D01*
X487896Y105215D01*
Y87104D01*
X466568D01*
X465923Y88068D01*
X463068Y90923D01*
X459710Y93167D01*
X455980Y94712D01*
X452019Y95500D01*
X447981D01*
X444020Y94712D01*
X440290Y93167D01*
X436932Y90923D01*
X434077Y88068D01*
X431833Y84710D01*
X430288Y80980D01*
X429500Y77019D01*
Y72981D01*
X430288Y69020D01*
X431833Y65290D01*
X434077Y61932D01*
X436932Y59077D01*
X440290Y56833D01*
X444020Y55288D01*
X447981Y54500D01*
X452019D01*
X455980Y55288D01*
X459710Y56833D01*
X463068Y59077D01*
X465923Y61932D01*
X466568Y62896D01*
X500000D01*
X503133Y63309D01*
X506052Y64518D01*
X508559Y66441D01*
X510482Y68948D01*
X511691Y71867D01*
X512104Y75000D01*
Y105215D01*
X513736Y107658D01*
X514904Y110479D01*
X515500Y113473D01*
Y116527D01*
X514904Y119521D01*
X513736Y122342D01*
X512040Y124881D01*
X509881Y127040D01*
X507342Y128736D01*
X504521Y129904D01*
X504396Y129929D01*
X504240Y131255D01*
X506165Y132366D01*
X508034Y134235D01*
X509284Y136400D01*
D02*
G37*
G36*
X562540Y62540D02*
X554000D01*
Y54000D01*
X562540D01*
Y62540D01*
D02*
G37*
G36*
X546000D02*
X537460D01*
Y54000D01*
X546000D01*
Y62540D01*
D02*
G37*
G36*
X562540Y46000D02*
X554000D01*
Y37460D01*
X562540D01*
Y46000D01*
D02*
G37*
G36*
X546000D02*
X537460D01*
Y37460D01*
X546000D01*
Y46000D01*
D02*
G37*
G36*
X952597Y83000D02*
X947403D01*
X942272Y82187D01*
X937332Y80582D01*
X932704Y78224D01*
X928502Y75171D01*
X924829Y71498D01*
X921776Y67296D01*
X919418Y62668D01*
X917813Y57727D01*
X917000Y52597D01*
Y47403D01*
X917813Y42273D01*
X919418Y37332D01*
X921776Y32704D01*
X924829Y28502D01*
X928502Y24829D01*
X932704Y21776D01*
X937332Y19418D01*
X942272Y17813D01*
X947403Y17000D01*
X952597D01*
X957728Y17813D01*
X962668Y19418D01*
X967296Y21776D01*
X971498Y24829D01*
X975171Y28502D01*
X978224Y32704D01*
X980582Y37332D01*
X982187Y42273D01*
X983000Y47403D01*
Y52597D01*
X982187Y57727D01*
X980582Y62668D01*
X978224Y67296D01*
X975171Y71498D01*
X971498Y75171D01*
X967296Y78224D01*
X962668Y80582D01*
X957728Y82187D01*
X952597Y83000D01*
D02*
G37*
G36*
X52597D02*
X47403D01*
X42273Y82187D01*
X37332Y80582D01*
X32704Y78224D01*
X28502Y75171D01*
X24829Y71498D01*
X21776Y67296D01*
X19418Y62668D01*
X17813Y57727D01*
X17000Y52597D01*
Y47403D01*
X17813Y42273D01*
X19418Y37332D01*
X21776Y32704D01*
X24829Y28502D01*
X28502Y24829D01*
X32704Y21776D01*
X37332Y19418D01*
X42273Y17813D01*
X47403Y17000D01*
X52597D01*
X57727Y17813D01*
X62668Y19418D01*
X67296Y21776D01*
X71498Y24829D01*
X75171Y28502D01*
X78224Y32704D01*
X80582Y37332D01*
X82187Y42273D01*
X83000Y47403D01*
Y52597D01*
X82187Y57727D01*
X80582Y62668D01*
X78224Y67296D01*
X75171Y71498D01*
X71498Y75171D01*
X67296Y78224D01*
X62668Y80582D01*
X57727Y82187D01*
X52597Y83000D01*
D02*
G37*
%LPD*%
G36*
X833948Y599518D02*
X836867Y598309D01*
X837816Y598184D01*
X838104Y596947D01*
X836805Y596079D01*
X833921Y593195D01*
X831656Y589805D01*
X830096Y586038D01*
X829300Y582039D01*
Y577961D01*
X830096Y573962D01*
X831656Y570195D01*
X833921Y566805D01*
X836805Y563921D01*
X840195Y561656D01*
X843962Y560095D01*
X847961Y559300D01*
X852039D01*
X856038Y560095D01*
X859805Y561656D01*
X863195Y563921D01*
X866079Y566805D01*
X866808Y567896D01*
X882896D01*
Y500000D01*
X883309Y496867D01*
X884518Y493948D01*
X886441Y491441D01*
X888948Y489518D01*
X891867Y488309D01*
X895000Y487896D01*
X937896D01*
Y467385D01*
X936776Y466786D01*
X934710Y468167D01*
X930980Y469712D01*
X927019Y470500D01*
X922981D01*
X919020Y469712D01*
X915290Y468167D01*
X911932Y465923D01*
X909077Y463068D01*
X908432Y462104D01*
X879404D01*
Y477518D01*
X881036Y479961D01*
X882204Y482782D01*
X882800Y485777D01*
Y488830D01*
X882204Y491824D01*
X881036Y494645D01*
X879340Y497184D01*
X877181Y499343D01*
X874642Y501039D01*
X871821Y502208D01*
X871696Y502233D01*
X871541Y503558D01*
X873465Y504669D01*
X875334Y506539D01*
X876584Y508703D01*
X867300D01*
X858016D01*
X859266Y506539D01*
X861135Y504669D01*
X863059Y503558D01*
X862904Y502233D01*
X862779Y502208D01*
X859958Y501039D01*
X857419Y499343D01*
X855260Y497184D01*
X853564Y494645D01*
X852396Y491824D01*
X851800Y488830D01*
Y485777D01*
X852396Y482782D01*
X853564Y479961D01*
X855196Y477518D01*
Y450000D01*
X855609Y446867D01*
X856818Y443948D01*
X858742Y441441D01*
X861248Y439518D01*
X864167Y438309D01*
X867300Y437896D01*
X908432D01*
X909077Y436932D01*
X911932Y434077D01*
X915290Y431833D01*
X919020Y430288D01*
X922981Y429500D01*
X927019D01*
X930980Y430288D01*
X934710Y431833D01*
X936776Y433214D01*
X937896Y432615D01*
Y357104D01*
X933885D01*
X932105Y358293D01*
X929375Y359423D01*
X928181Y359661D01*
X928139Y360965D01*
X928682Y361110D01*
X930858Y362366D01*
X932634Y364142D01*
X933706Y366000D01*
X925000D01*
Y370000D01*
D01*
Y366000D01*
X916294D01*
X917366Y364142D01*
X919142Y362366D01*
X921318Y361110D01*
X921861Y360965D01*
X921819Y359661D01*
X920625Y359423D01*
X917895Y358293D01*
X916115Y357104D01*
X914675D01*
X913559Y358559D01*
X911052Y360482D01*
X908133Y361691D01*
X905000Y362104D01*
X866568D01*
X865923Y363068D01*
X863068Y365923D01*
X860623Y367557D01*
X860462Y369192D01*
X861682Y370413D01*
X863328Y372876D01*
X864462Y375613D01*
X864539Y376000D01*
X850000D01*
X835461D01*
X835538Y375613D01*
X836672Y372876D01*
X838318Y370413D01*
X839538Y369192D01*
X839377Y367557D01*
X836932Y365923D01*
X834077Y363068D01*
X831833Y359710D01*
X830288Y355980D01*
X829500Y352019D01*
Y347981D01*
X830288Y344020D01*
X831833Y340290D01*
X834077Y336932D01*
X836932Y334077D01*
X840290Y331833D01*
X844020Y330288D01*
X847981Y329500D01*
X852019D01*
X855980Y330288D01*
X859710Y331833D01*
X863068Y334077D01*
X865923Y336932D01*
X866568Y337896D01*
X895325D01*
X896441Y336441D01*
X898948Y334518D01*
X901867Y333309D01*
X905000Y332896D01*
X915016D01*
X915410Y331733D01*
X915413Y331626D01*
X913349Y329562D01*
X911707Y327105D01*
X910576Y324375D01*
X910000Y321477D01*
Y318523D01*
X910576Y315625D01*
X911707Y312895D01*
X913349Y310438D01*
X915413Y308374D01*
X915410Y308267D01*
X915016Y307104D01*
X859368D01*
X858559Y308158D01*
X856052Y310082D01*
X853133Y311291D01*
X850000Y311704D01*
X818000D01*
Y343000D01*
X812540D01*
Y346400D01*
X800000D01*
X787460D01*
Y343000D01*
X782000D01*
Y337104D01*
X762104D01*
Y472896D01*
X783432D01*
X784077Y471932D01*
X786932Y469077D01*
X790290Y466833D01*
X794020Y465288D01*
X797981Y464500D01*
X802019D01*
X805980Y465288D01*
X809710Y466833D01*
X813068Y469077D01*
X815923Y471932D01*
X818167Y475290D01*
X819712Y479020D01*
X820500Y482981D01*
Y487019D01*
X819712Y490980D01*
X818167Y494710D01*
X815923Y498068D01*
X813068Y500923D01*
X810623Y502557D01*
X810462Y504192D01*
X811682Y505413D01*
X813328Y507876D01*
X814462Y510613D01*
X814539Y511000D01*
X800000D01*
X785461D01*
X785538Y510613D01*
X786672Y507876D01*
X788318Y505413D01*
X789538Y504192D01*
X789377Y502557D01*
X786932Y500923D01*
X784077Y498068D01*
X783432Y497104D01*
X762104D01*
Y599650D01*
Y600896D01*
X788769D01*
X789482Y600184D01*
X792184Y598378D01*
X795187Y597134D01*
X798375Y596500D01*
X801625D01*
X804813Y597134D01*
X807816Y598378D01*
X810518Y600184D01*
X811231Y600896D01*
X832152D01*
X833948Y599518D01*
D02*
G37*
%LPC*%
G36*
X804000Y529539D02*
Y519000D01*
X814539D01*
X814462Y519387D01*
X813328Y522124D01*
X811682Y524587D01*
X809587Y526682D01*
X807124Y528328D01*
X804387Y529462D01*
X804000Y529539D01*
D02*
G37*
G36*
X796000Y529539D02*
X795613Y529462D01*
X792876Y528328D01*
X790413Y526682D01*
X788318Y524587D01*
X786672Y522124D01*
X785538Y519387D01*
X785461Y519000D01*
X796000D01*
Y529539D01*
D02*
G37*
G36*
X871300Y521987D02*
Y516703D01*
X876584D01*
X875334Y518868D01*
X873465Y520737D01*
X871300Y521987D01*
D02*
G37*
G36*
X863300Y521987D02*
X861135Y520737D01*
X859266Y518868D01*
X858016Y516703D01*
X863300D01*
Y521987D01*
D02*
G37*
G36*
X854000Y394539D02*
Y384000D01*
X864539D01*
X864462Y384387D01*
X863328Y387124D01*
X861682Y389587D01*
X859587Y391682D01*
X857124Y393328D01*
X854387Y394462D01*
X854000Y394539D01*
D02*
G37*
G36*
X846000Y394539D02*
X845613Y394462D01*
X842876Y393328D01*
X840413Y391682D01*
X838318Y389587D01*
X836672Y387124D01*
X835538Y384387D01*
X835461Y384000D01*
X846000D01*
Y394539D01*
D02*
G37*
G36*
X929000Y378706D02*
Y374000D01*
X933707D01*
X932634Y375858D01*
X930858Y377634D01*
X929000Y378706D01*
D02*
G37*
G36*
X921000Y378706D02*
X919142Y377634D01*
X917366Y375858D01*
X916293Y374000D01*
X921000D01*
Y378706D01*
D02*
G37*
G36*
X812540Y362940D02*
X804000D01*
Y354400D01*
X812540D01*
Y362940D01*
D02*
G37*
G36*
X796000D02*
X787460D01*
Y354400D01*
X796000D01*
Y362940D01*
D02*
G37*
%LPD*%
D24*
X230000Y875000D02*
D03*
D25*
Y825000D02*
D03*
D30*
X694600Y599650D02*
D03*
Y625000D02*
D03*
D31*
Y650350D02*
D03*
D32*
X925000Y245000D02*
D03*
D33*
Y270000D02*
D03*
Y295000D02*
D03*
Y320000D02*
D03*
Y345000D02*
D03*
Y370000D02*
D03*
D35*
X31000Y291900D02*
Y680000D01*
X850000D02*
Y702000D01*
X838000Y680000D02*
X850000D01*
X838000Y651000D02*
Y680000D01*
X730000D02*
X838000D01*
X140000Y462300D02*
X205000D01*
X75000D02*
X140000D01*
Y445000D02*
Y462300D01*
X180000Y488900D02*
X205000D01*
X180000Y487700D02*
Y488900D01*
X140000Y487700D02*
X180000D01*
X75000D02*
X140000D01*
Y514300D02*
X205000D01*
X75000D02*
X140000D01*
Y555000D01*
X925000Y875000D02*
X950000D01*
X925000Y682700D02*
Y875000D01*
Y610000D02*
Y657300D01*
X885000Y610000D02*
X925000D01*
X550000Y463500D02*
X660000D01*
X357400D02*
X550000D01*
Y435000D02*
Y463500D01*
Y514300D02*
X700000D01*
X357400D02*
X550000D01*
Y490000D02*
Y514300D01*
Y539700D02*
X720000D01*
X357400D02*
X550000D01*
Y560000D01*
X125000Y209600D02*
X175000D01*
X75000D02*
X125000D01*
Y180000D02*
Y209600D01*
Y235000D02*
X155000D01*
X75000D02*
X125000D01*
Y255000D01*
X357400Y592300D02*
X450000D01*
X300000Y590500D02*
X357400D01*
X300000D02*
Y680000D01*
X31000D02*
X300000D01*
X31000Y291900D02*
X75000D01*
X125000Y317300D02*
X140000D01*
X75000D02*
X125000D01*
Y295000D02*
Y317300D01*
Y361900D02*
X140000D01*
X205000D01*
X140000Y387300D02*
X205000D01*
X110000D02*
X140000D01*
Y410000D01*
X300000Y415000D02*
X357400D01*
X400000Y410000D02*
X450000D01*
X400000D02*
Y412700D01*
X357400D02*
X400000D01*
X357400Y311100D02*
X450000D01*
X485000Y295000D02*
X525000D01*
X485000D02*
Y310000D01*
X450000D02*
X485000D01*
X357400Y335400D02*
X450000D01*
X500000Y325000D02*
X525000D01*
X500000D02*
Y335000D01*
X495000D02*
X500000D01*
X495000D02*
Y335400D01*
X450000D02*
X495000D01*
X525000Y610000D02*
X600000D01*
Y613000D01*
X500000Y610000D02*
X525000D01*
X500000D02*
Y617700D01*
X450000D02*
X500000D01*
X905000Y345000D02*
X925000D01*
X905000D02*
Y350000D01*
X850000D02*
X905000D01*
X450000Y175000D02*
Y250000D01*
X400000D02*
X450000D01*
X400000D02*
Y285700D01*
X357400D02*
X400000D01*
X500000Y75000D02*
Y115000D01*
X450000Y75000D02*
X500000D01*
X265000Y415000D02*
X300000D01*
Y450000D01*
X357400Y412700D02*
Y415000D01*
X205000Y514300D02*
X265000D01*
Y515000D01*
X750000Y131986D02*
Y200000D01*
X754686Y127300D02*
X925000D01*
X750000Y131986D02*
X754686Y127300D01*
X704686Y101900D02*
X925000D01*
X700000Y106586D02*
Y200000D01*
Y106586D02*
X704686Y101900D01*
X700000Y274200D02*
X800000D01*
X700000Y275000D02*
Y514300D01*
Y274200D02*
Y275000D01*
X660000Y245000D02*
Y463500D01*
Y245000D02*
X925000D01*
Y550000D02*
X975000D01*
Y152700D02*
Y550000D01*
X925000Y152700D02*
X975000D01*
X950000Y345000D02*
Y500000D01*
X925000Y345000D02*
X950000D01*
X895000Y500000D02*
X950000D01*
X895000D02*
Y580000D01*
X867300Y450000D02*
Y487303D01*
Y450000D02*
X925000D01*
X850000Y580000D02*
X895000D01*
X730000Y625000D02*
Y680000D01*
X694600Y625000D02*
X730000D01*
X750000Y485000D02*
Y599650D01*
Y325000D02*
Y485000D01*
X800000D01*
X750000Y325000D02*
X800000D01*
X720000Y299600D02*
Y539700D01*
X925000Y550000D02*
Y610000D01*
X750000Y299600D02*
X800000D01*
X720000D02*
X750000D01*
X800000Y274200D02*
X850000D01*
X800000Y299600D02*
X850000D01*
Y295000D02*
Y299600D01*
Y295000D02*
X925000D01*
X850000Y270000D02*
X925000D01*
X850000D02*
Y274200D01*
X450000Y310000D02*
Y311100D01*
X357400Y335400D02*
Y336500D01*
Y590500D02*
Y592300D01*
X175000Y285700D02*
X205000D01*
X175000Y209600D02*
Y285700D01*
X155000Y235000D02*
Y311100D01*
X205000D01*
X140000Y317300D02*
Y336500D01*
X205000D01*
X75000Y342700D02*
X125000D01*
Y361900D01*
X75000Y342700D02*
Y345000D01*
X205000Y462300D02*
Y463500D01*
X75000Y513100D02*
Y514300D01*
X205000Y487700D02*
Y488900D01*
X110000Y368100D02*
Y387300D01*
X75000Y368100D02*
X110000D01*
X650000Y625000D02*
X694600D01*
X650000Y613000D02*
Y625000D01*
X600000Y613000D02*
X650000D01*
X750000D02*
X800000D01*
X750000Y599650D02*
Y613000D01*
X694600Y599650D02*
X750000D01*
X840000Y610000D02*
Y613000D01*
X800000D02*
X840000D01*
Y610000D02*
X885000D01*
X890000Y875000D02*
X925000D01*
X890000D02*
Y925000D01*
X890000D01*
D36*
X925000Y152700D02*
D03*
Y178100D02*
D03*
Y127300D02*
D03*
Y101900D02*
D03*
X140000Y555000D02*
D03*
Y487700D02*
D03*
X75000Y462300D02*
D03*
Y436900D02*
D03*
Y487700D02*
D03*
Y513100D02*
D03*
X140000Y445000D02*
D03*
Y410000D02*
D03*
Y361900D02*
D03*
X125000Y255000D02*
D03*
X75000Y105000D02*
D03*
X125000Y180000D02*
D03*
X450000Y410000D02*
D03*
X525000Y325000D02*
D03*
Y295000D02*
D03*
X75000Y235000D02*
D03*
Y184200D02*
D03*
Y209600D02*
D03*
Y317300D02*
D03*
Y342700D02*
D03*
Y393500D02*
D03*
Y368100D02*
D03*
Y291900D02*
D03*
X150000Y950000D02*
D03*
X950000Y875000D02*
D03*
X850000Y702000D02*
D03*
X550000Y435000D02*
D03*
Y50000D02*
D03*
Y490000D02*
D03*
X950000Y800000D02*
D03*
X550000Y560000D02*
D03*
X125000Y295000D02*
D03*
X925000Y682700D02*
D03*
Y657300D02*
D03*
X800000Y299600D02*
D03*
Y274200D02*
D03*
Y325000D02*
D03*
Y350400D02*
D03*
X357400Y412700D02*
D03*
Y488900D02*
D03*
Y438100D02*
D03*
Y463500D02*
D03*
Y158700D02*
D03*
Y184100D02*
D03*
Y209500D02*
D03*
Y234900D02*
D03*
Y260300D02*
D03*
Y336500D02*
D03*
Y285700D02*
D03*
Y387300D02*
D03*
Y361900D02*
D03*
Y311100D02*
D03*
Y565100D02*
D03*
Y641300D02*
D03*
Y590500D02*
D03*
Y615900D02*
D03*
Y539700D02*
D03*
Y514300D02*
D03*
X205000Y412700D02*
D03*
Y488900D02*
D03*
Y438100D02*
D03*
Y463500D02*
D03*
Y158700D02*
D03*
Y184100D02*
D03*
Y209500D02*
D03*
Y234900D02*
D03*
Y260300D02*
D03*
Y336500D02*
D03*
Y285700D02*
D03*
Y387300D02*
D03*
Y361900D02*
D03*
Y311100D02*
D03*
Y565100D02*
D03*
Y641300D02*
D03*
Y590500D02*
D03*
Y615900D02*
D03*
Y539700D02*
D03*
Y514300D02*
D03*
X450000Y335400D02*
D03*
Y284600D02*
D03*
Y310000D02*
D03*
Y617700D02*
D03*
Y592300D02*
D03*
D37*
X60500Y825000D02*
D03*
D38*
Y875000D02*
D03*
D39*
X890000Y795000D02*
D03*
Y925000D02*
D03*
X320000D02*
D03*
Y795000D02*
D03*
D40*
X450000Y175000D02*
D03*
Y75000D02*
D03*
X525000Y640000D02*
D03*
Y610000D02*
D03*
X800000Y515000D02*
D03*
Y485000D02*
D03*
X140000Y845000D02*
D03*
Y875000D02*
D03*
X925000Y550000D02*
D03*
Y450000D02*
D03*
X885000Y640000D02*
D03*
Y610000D02*
D03*
X850000Y380000D02*
D03*
Y350000D02*
D03*
X265000Y415000D02*
D03*
Y515000D02*
D03*
X300000Y480000D02*
D03*
Y450000D02*
D03*
D41*
X500000Y115000D02*
D03*
Y140400D02*
D03*
X867300Y487303D02*
D03*
Y512703D02*
D03*
D42*
X800000Y613000D02*
D03*
Y637000D02*
D03*
X600000Y613000D02*
D03*
Y637000D02*
D03*
D43*
X50000Y50000D02*
D03*
X950000D02*
D03*
Y950000D02*
D03*
X50000D02*
D03*
D44*
X755000Y642000D02*
D03*
X774000Y575000D02*
D03*
X838000Y651000D02*
D03*
X750000Y200000D02*
D03*
X700000D02*
D03*
Y275000D02*
D03*
X750000Y299600D02*
D03*
X850000Y580000D02*
D03*
D45*
X175000Y875000D02*
X230000D01*
X140000D02*
X175000D01*
Y950000D01*
X150000D02*
X175000D01*
X320000Y925000D02*
X320000D01*
X320000Y875000D02*
Y925000D01*
X230000Y875000D02*
X320000D01*
X230000Y875000D02*
X230000Y875000D01*
X60500Y875000D02*
X140000D01*
M02*
