G04*
G04 #@! TF.GenerationSoftware,Altium Limited,Altium Designer,24.3.1 (35)*
G04*
G04 Layer_Color=16711935*
%FSLAX44Y44*%
%MOMM*%
G71*
G04*
G04 #@! TF.SameCoordinates,E7721F7D-E282-41D9-B0B1-2D617A9ED9AD*
G04*
G04*
G04 #@! TF.FilePolarity,Positive*
G04*
G01*
G75*
%ADD14C,0.2000*%
G36*
X228142Y860568D02*
X228216Y860558D01*
X228299Y860540D01*
X228391Y860521D01*
X228493Y860503D01*
X228715Y860429D01*
X228835Y860373D01*
X228946Y860318D01*
X229066Y860244D01*
X229186Y860161D01*
X229307Y860068D01*
X229418Y859957D01*
X229427Y859948D01*
X229445Y859930D01*
X229473Y859893D01*
X229510Y859846D01*
X229556Y859791D01*
X229603Y859717D01*
X229658Y859634D01*
X229704Y859532D01*
X229760Y859430D01*
X229815Y859310D01*
X229861Y859190D01*
X229908Y859051D01*
X229945Y858903D01*
X229972Y858746D01*
X229991Y858589D01*
X230000Y858413D01*
Y858330D01*
X229991Y858275D01*
X229982Y858201D01*
X229972Y858118D01*
X229954Y858025D01*
X229935Y857923D01*
X229880Y857701D01*
X229787Y857470D01*
X229732Y857350D01*
X229667Y857239D01*
X229584Y857128D01*
X229501Y857017D01*
X229492Y857008D01*
X229473Y856990D01*
X229445Y856962D01*
X229408Y856934D01*
X229362Y856888D01*
X229297Y856842D01*
X229233Y856786D01*
X229149Y856731D01*
X229057Y856675D01*
X228965Y856620D01*
X228743Y856518D01*
X228484Y856435D01*
X228345Y856407D01*
X228197Y856389D01*
X228095Y857175D01*
X228105D01*
X228123Y857184D01*
X228160Y857193D01*
X228206Y857202D01*
X228262Y857211D01*
X228327Y857230D01*
X228465Y857276D01*
X228632Y857341D01*
X228789Y857424D01*
X228937Y857516D01*
X229066Y857627D01*
X229076Y857646D01*
X229112Y857683D01*
X229159Y857757D01*
X229205Y857849D01*
X229260Y857960D01*
X229307Y858099D01*
X229344Y858256D01*
X229353Y858423D01*
Y858478D01*
X229344Y858515D01*
X229334Y858617D01*
X229307Y858746D01*
X229260Y858894D01*
X229196Y859051D01*
X229103Y859209D01*
X228974Y859356D01*
X228955Y859375D01*
X228900Y859421D01*
X228817Y859477D01*
X228706Y859551D01*
X228567Y859624D01*
X228410Y859680D01*
X228225Y859726D01*
X228022Y859745D01*
X228012D01*
X227994D01*
X227966D01*
X227929Y859735D01*
X227827Y859726D01*
X227707Y859698D01*
X227559Y859661D01*
X227411Y859597D01*
X227263Y859504D01*
X227125Y859384D01*
X227106Y859366D01*
X227069Y859319D01*
X227014Y859246D01*
X226949Y859144D01*
X226884Y859014D01*
X226829Y858857D01*
X226792Y858681D01*
X226773Y858487D01*
Y858404D01*
X226783Y858339D01*
X226792Y858256D01*
X226810Y858164D01*
X226829Y858053D01*
X226857Y857933D01*
X226163Y858025D01*
Y858071D01*
X226172Y858108D01*
Y858229D01*
X226154Y858330D01*
X226135Y858450D01*
X226108Y858589D01*
X226061Y858746D01*
X225997Y858894D01*
X225914Y859051D01*
Y859061D01*
X225904Y859070D01*
X225867Y859116D01*
X225803Y859181D01*
X225719Y859255D01*
X225599Y859329D01*
X225460Y859393D01*
X225303Y859440D01*
X225211Y859458D01*
X225109D01*
X225100D01*
X225091D01*
X225035D01*
X224961Y859440D01*
X224860Y859421D01*
X224749Y859384D01*
X224628Y859338D01*
X224508Y859264D01*
X224397Y859162D01*
X224388Y859153D01*
X224351Y859107D01*
X224305Y859042D01*
X224249Y858959D01*
X224203Y858848D01*
X224157Y858718D01*
X224120Y858570D01*
X224111Y858404D01*
Y858330D01*
X224129Y858247D01*
X224148Y858136D01*
X224185Y858016D01*
X224231Y857896D01*
X224305Y857766D01*
X224397Y857646D01*
X224407Y857637D01*
X224453Y857600D01*
X224517Y857544D01*
X224610Y857480D01*
X224730Y857415D01*
X224878Y857350D01*
X225054Y857295D01*
X225257Y857258D01*
X225118Y856472D01*
X225109D01*
X225081Y856481D01*
X225044Y856490D01*
X224989Y856499D01*
X224924Y856518D01*
X224850Y856546D01*
X224675Y856601D01*
X224471Y856694D01*
X224268Y856805D01*
X224074Y856943D01*
X223898Y857119D01*
X223889Y857128D01*
X223880Y857147D01*
X223861Y857175D01*
X223833Y857211D01*
X223796Y857258D01*
X223759Y857322D01*
X223722Y857387D01*
X223676Y857470D01*
X223602Y857655D01*
X223528Y857868D01*
X223482Y858118D01*
X223463Y858247D01*
Y858478D01*
X223473Y858580D01*
X223491Y858700D01*
X223519Y858848D01*
X223565Y859014D01*
X223621Y859181D01*
X223695Y859347D01*
Y859356D01*
X223704Y859366D01*
X223732Y859421D01*
X223787Y859504D01*
X223852Y859597D01*
X223944Y859708D01*
X224046Y859819D01*
X224166Y859930D01*
X224305Y860022D01*
X224323Y860031D01*
X224370Y860059D01*
X224453Y860096D01*
X224554Y860142D01*
X224675Y860189D01*
X224813Y860226D01*
X224970Y860253D01*
X225128Y860263D01*
X225146D01*
X225202D01*
X225276Y860253D01*
X225377Y860235D01*
X225497Y860207D01*
X225627Y860161D01*
X225756Y860105D01*
X225886Y860031D01*
X225904Y860022D01*
X225941Y859994D01*
X226006Y859939D01*
X226080Y859865D01*
X226163Y859772D01*
X226256Y859661D01*
X226339Y859532D01*
X226422Y859375D01*
Y859384D01*
X226431Y859403D01*
X226441Y859430D01*
X226450Y859467D01*
X226487Y859569D01*
X226542Y859698D01*
X226616Y859846D01*
X226709Y859994D01*
X226829Y860133D01*
X226968Y860263D01*
X226986Y860272D01*
X227041Y860309D01*
X227134Y860364D01*
X227254Y860420D01*
X227402Y860475D01*
X227578Y860531D01*
X227781Y860568D01*
X228003Y860577D01*
X228012D01*
X228040D01*
X228086D01*
X228142Y860568D01*
D02*
G37*
G36*
X227911Y855649D02*
X227966Y855630D01*
X228040Y855603D01*
X228123Y855575D01*
X228225Y855538D01*
X228336Y855492D01*
X228456Y855436D01*
X228715Y855307D01*
X228974Y855140D01*
X229103Y855039D01*
X229233Y854937D01*
X229344Y854826D01*
X229455Y854697D01*
X229464Y854687D01*
X229482Y854669D01*
X229501Y854623D01*
X229538Y854576D01*
X229584Y854502D01*
X229630Y854428D01*
X229676Y854327D01*
X229723Y854225D01*
X229778Y854105D01*
X229824Y853976D01*
X229871Y853837D01*
X229917Y853689D01*
X229954Y853532D01*
X229972Y853365D01*
X229991Y853190D01*
X230000Y853005D01*
Y852903D01*
X229991Y852829D01*
Y852746D01*
X229982Y852644D01*
X229963Y852533D01*
X229945Y852404D01*
X229898Y852136D01*
X229824Y851858D01*
X229723Y851581D01*
X229658Y851451D01*
X229584Y851322D01*
X229575Y851313D01*
X229566Y851294D01*
X229538Y851257D01*
X229501Y851220D01*
X229464Y851165D01*
X229408Y851100D01*
X229344Y851026D01*
X229270Y850952D01*
X229186Y850878D01*
X229103Y850795D01*
X228891Y850629D01*
X228641Y850471D01*
X228364Y850333D01*
X228354D01*
X228327Y850314D01*
X228280Y850305D01*
X228225Y850277D01*
X228151Y850259D01*
X228058Y850231D01*
X227957Y850194D01*
X227846Y850166D01*
X227726Y850139D01*
X227587Y850102D01*
X227300Y850055D01*
X226977Y850018D01*
X226644Y850000D01*
X226635D01*
X226598D01*
X226542D01*
X226478Y850009D01*
X226385D01*
X226293Y850018D01*
X226172Y850028D01*
X226052Y850046D01*
X225784Y850092D01*
X225488Y850157D01*
X225192Y850249D01*
X224906Y850379D01*
X224897Y850388D01*
X224869Y850397D01*
X224832Y850416D01*
X224786Y850453D01*
X224721Y850490D01*
X224647Y850536D01*
X224480Y850656D01*
X224296Y850814D01*
X224111Y850998D01*
X223926Y851211D01*
X223769Y851461D01*
X223759Y851470D01*
X223750Y851498D01*
X223732Y851535D01*
X223704Y851581D01*
X223676Y851655D01*
X223648Y851729D01*
X223611Y851821D01*
X223574Y851923D01*
X223537Y852034D01*
X223500Y852154D01*
X223445Y852413D01*
X223399Y852709D01*
X223380Y853014D01*
Y853106D01*
X223389Y853171D01*
X223399Y853254D01*
X223408Y853356D01*
X223417Y853458D01*
X223445Y853578D01*
X223500Y853828D01*
X223584Y854105D01*
X223639Y854244D01*
X223704Y854373D01*
X223787Y854502D01*
X223870Y854632D01*
X223880Y854641D01*
X223889Y854660D01*
X223916Y854697D01*
X223963Y854743D01*
X224009Y854789D01*
X224074Y854854D01*
X224148Y854919D01*
X224222Y854993D01*
X224314Y855067D01*
X224425Y855140D01*
X224536Y855224D01*
X224656Y855298D01*
X224795Y855362D01*
X224933Y855436D01*
X225081Y855492D01*
X225248Y855547D01*
X225442Y854715D01*
X225433D01*
X225414Y854706D01*
X225377Y854687D01*
X225331Y854669D01*
X225276Y854650D01*
X225202Y854623D01*
X225054Y854549D01*
X224887Y854456D01*
X224721Y854345D01*
X224564Y854207D01*
X224425Y854059D01*
X224407Y854040D01*
X224370Y853985D01*
X224323Y853892D01*
X224259Y853772D01*
X224203Y853615D01*
X224148Y853439D01*
X224111Y853227D01*
X224101Y852995D01*
Y852922D01*
X224111Y852875D01*
Y852811D01*
X224120Y852737D01*
X224148Y852561D01*
X224185Y852367D01*
X224249Y852163D01*
X224342Y851951D01*
X224462Y851757D01*
Y851747D01*
X224480Y851738D01*
X224527Y851673D01*
X224601Y851590D01*
X224712Y851488D01*
X224850Y851368D01*
X225007Y851257D01*
X225202Y851156D01*
X225414Y851063D01*
X225424D01*
X225442Y851054D01*
X225470Y851045D01*
X225516Y851035D01*
X225571Y851017D01*
X225636Y850998D01*
X225793Y850971D01*
X225978Y850934D01*
X226182Y850897D01*
X226404Y850878D01*
X226644Y850869D01*
X226653D01*
X226681D01*
X226727D01*
X226783D01*
X226847Y850878D01*
X226931D01*
X227023Y850888D01*
X227125Y850897D01*
X227347Y850924D01*
X227587Y850971D01*
X227827Y851026D01*
X228068Y851100D01*
X228077D01*
X228095Y851109D01*
X228123Y851128D01*
X228169Y851146D01*
X228280Y851202D01*
X228410Y851285D01*
X228558Y851387D01*
X228715Y851516D01*
X228854Y851664D01*
X228983Y851840D01*
Y851849D01*
X228992Y851868D01*
X229011Y851895D01*
X229029Y851932D01*
X229048Y851978D01*
X229076Y852034D01*
X229131Y852163D01*
X229186Y852330D01*
X229233Y852515D01*
X229270Y852718D01*
X229279Y852931D01*
Y852995D01*
X229270Y853051D01*
Y853116D01*
X229260Y853180D01*
X229223Y853347D01*
X229177Y853541D01*
X229103Y853735D01*
X229002Y853939D01*
X228946Y854040D01*
X228872Y854133D01*
X228863Y854142D01*
X228854Y854151D01*
X228826Y854179D01*
X228798Y854216D01*
X228752Y854253D01*
X228696Y854299D01*
X228641Y854355D01*
X228567Y854401D01*
X228484Y854456D01*
X228391Y854521D01*
X228299Y854576D01*
X228188Y854632D01*
X228068Y854678D01*
X227938Y854724D01*
X227800Y854771D01*
X227652Y854808D01*
X227864Y855658D01*
X227874D01*
X227911Y855649D01*
D02*
G37*
G36*
X705030Y625928D02*
Y625919D01*
Y625882D01*
Y625836D01*
Y625771D01*
X705020Y625688D01*
Y625595D01*
X705011Y625484D01*
X705002Y625373D01*
X704974Y625124D01*
X704937Y624865D01*
X704882Y624615D01*
X704845Y624495D01*
X704808Y624384D01*
Y624375D01*
X704799Y624356D01*
X704780Y624329D01*
X704762Y624292D01*
X704706Y624190D01*
X704623Y624061D01*
X704512Y623913D01*
X704382Y623765D01*
X704216Y623608D01*
X704013Y623469D01*
X704003D01*
X703985Y623450D01*
X703957Y623441D01*
X703911Y623413D01*
X703855Y623386D01*
X703781Y623358D01*
X703708Y623330D01*
X703615Y623293D01*
X703513Y623256D01*
X703402Y623228D01*
X703282Y623201D01*
X703143Y623173D01*
X703005Y623154D01*
X702857Y623136D01*
X702524Y623117D01*
X702441D01*
X702376Y623127D01*
X702302D01*
X702210Y623136D01*
X702108Y623145D01*
X702006Y623154D01*
X701775Y623191D01*
X701525Y623247D01*
X701285Y623321D01*
X701054Y623423D01*
X701045D01*
X701026Y623441D01*
X700999Y623460D01*
X700962Y623478D01*
X700860Y623552D01*
X700740Y623654D01*
X700601Y623783D01*
X700471Y623931D01*
X700342Y624116D01*
X700240Y624319D01*
Y624329D01*
X700231Y624347D01*
X700222Y624384D01*
X700203Y624430D01*
X700185Y624486D01*
X700166Y624560D01*
X700139Y624643D01*
X700120Y624745D01*
X700102Y624856D01*
X700074Y624976D01*
X700055Y625105D01*
X700037Y625244D01*
X700018Y625401D01*
X700009Y625568D01*
X700000Y625743D01*
Y625928D01*
Y629627D01*
X700851D01*
Y625928D01*
Y625919D01*
Y625891D01*
Y625845D01*
Y625789D01*
X700860Y625725D01*
Y625642D01*
X700869Y625466D01*
X700888Y625262D01*
X700915Y625059D01*
X700952Y624865D01*
X700971Y624782D01*
X700999Y624698D01*
X701008Y624680D01*
X701026Y624634D01*
X701072Y624569D01*
X701128Y624477D01*
X701193Y624384D01*
X701285Y624282D01*
X701396Y624181D01*
X701525Y624098D01*
X701544Y624088D01*
X701590Y624061D01*
X701674Y624033D01*
X701784Y623996D01*
X701914Y623950D01*
X702080Y623922D01*
X702256Y623894D01*
X702450Y623885D01*
X702542D01*
X702598Y623894D01*
X702681D01*
X702764Y623903D01*
X702968Y623940D01*
X703190Y623987D01*
X703402Y624061D01*
X703606Y624162D01*
X703698Y624227D01*
X703781Y624301D01*
X703791Y624310D01*
X703800Y624319D01*
X703818Y624347D01*
X703846Y624384D01*
X703874Y624440D01*
X703911Y624495D01*
X703948Y624578D01*
X703985Y624662D01*
X704022Y624763D01*
X704050Y624883D01*
X704087Y625022D01*
X704114Y625170D01*
X704142Y625336D01*
X704161Y625512D01*
X704179Y625716D01*
Y625928D01*
Y629627D01*
X705030D01*
Y625928D01*
D02*
G37*
G36*
X708395Y629645D02*
X708469Y629636D01*
X708561Y629627D01*
X708663Y629608D01*
X708765Y629590D01*
X709005Y629525D01*
X709246Y629432D01*
X709366Y629377D01*
X709486Y629312D01*
X709597Y629229D01*
X709699Y629136D01*
X709708Y629127D01*
X709726Y629118D01*
X709745Y629081D01*
X709782Y629044D01*
X709828Y628998D01*
X709874Y628933D01*
X709921Y628868D01*
X709976Y628785D01*
X710069Y628609D01*
X710161Y628387D01*
X710198Y628277D01*
X710216Y628147D01*
X710235Y628018D01*
X710244Y627879D01*
Y627860D01*
Y627814D01*
X710235Y627740D01*
X710226Y627639D01*
X710207Y627528D01*
X710170Y627398D01*
X710133Y627260D01*
X710078Y627121D01*
X710069Y627102D01*
X710050Y627056D01*
X710013Y626982D01*
X709958Y626880D01*
X709883Y626770D01*
X709791Y626631D01*
X709680Y626492D01*
X709551Y626335D01*
X709532Y626316D01*
X709486Y626261D01*
X709440Y626215D01*
X709393Y626169D01*
X709338Y626113D01*
X709264Y626039D01*
X709190Y625965D01*
X709098Y625882D01*
X709005Y625789D01*
X708894Y625688D01*
X708774Y625586D01*
X708645Y625466D01*
X708497Y625346D01*
X708349Y625216D01*
X708339Y625207D01*
X708321Y625189D01*
X708284Y625161D01*
X708238Y625124D01*
X708182Y625068D01*
X708118Y625013D01*
X707970Y624893D01*
X707812Y624754D01*
X707665Y624615D01*
X707535Y624495D01*
X707480Y624449D01*
X707433Y624403D01*
X707424Y624393D01*
X707396Y624366D01*
X707359Y624329D01*
X707313Y624273D01*
X707267Y624208D01*
X707212Y624144D01*
X707101Y623987D01*
X710253D01*
Y623228D01*
X706010D01*
Y623238D01*
Y623275D01*
Y623330D01*
X706019Y623404D01*
X706028Y623487D01*
X706047Y623580D01*
X706065Y623672D01*
X706102Y623774D01*
Y623783D01*
X706111Y623792D01*
X706130Y623848D01*
X706167Y623931D01*
X706222Y624042D01*
X706296Y624171D01*
X706389Y624319D01*
X706490Y624467D01*
X706620Y624625D01*
Y624634D01*
X706638Y624643D01*
X706685Y624698D01*
X706768Y624782D01*
X706888Y624902D01*
X707027Y625041D01*
X707202Y625207D01*
X707415Y625392D01*
X707646Y625586D01*
X707655Y625595D01*
X707692Y625623D01*
X707748Y625669D01*
X707812Y625725D01*
X707896Y625799D01*
X707997Y625882D01*
X708099Y625974D01*
X708219Y626076D01*
X708450Y626298D01*
X708682Y626520D01*
X708793Y626631D01*
X708894Y626742D01*
X708987Y626843D01*
X709061Y626945D01*
Y626954D01*
X709079Y626964D01*
X709098Y626992D01*
X709116Y627028D01*
X709181Y627130D01*
X709255Y627250D01*
X709320Y627398D01*
X709384Y627555D01*
X709421Y627731D01*
X709440Y627897D01*
Y627907D01*
Y627916D01*
X709430Y627971D01*
X709421Y628064D01*
X709393Y628166D01*
X709357Y628295D01*
X709292Y628424D01*
X709209Y628554D01*
X709098Y628683D01*
X709079Y628702D01*
X709033Y628739D01*
X708968Y628785D01*
X708867Y628850D01*
X708737Y628905D01*
X708589Y628961D01*
X708413Y628998D01*
X708219Y629007D01*
X708164D01*
X708127Y628998D01*
X708016Y628988D01*
X707887Y628961D01*
X707748Y628924D01*
X707591Y628859D01*
X707443Y628776D01*
X707304Y628665D01*
X707286Y628646D01*
X707249Y628600D01*
X707193Y628526D01*
X707138Y628415D01*
X707073Y628286D01*
X707017Y628119D01*
X706980Y627934D01*
X706962Y627722D01*
X706158Y627805D01*
Y627814D01*
X706167Y627842D01*
Y627888D01*
X706176Y627953D01*
X706195Y628027D01*
X706213Y628110D01*
X706241Y628212D01*
X706268Y628314D01*
X706342Y628535D01*
X706453Y628757D01*
X706518Y628868D01*
X706601Y628979D01*
X706685Y629081D01*
X706777Y629173D01*
X706786Y629183D01*
X706805Y629192D01*
X706833Y629220D01*
X706879Y629247D01*
X706934Y629284D01*
X706999Y629321D01*
X707073Y629368D01*
X707165Y629414D01*
X707267Y629460D01*
X707378Y629506D01*
X707498Y629543D01*
X707628Y629580D01*
X707766Y629608D01*
X707914Y629636D01*
X708071Y629645D01*
X708238Y629654D01*
X708330D01*
X708395Y629645D01*
D02*
G37*
G36*
X919639Y314258D02*
X914637D01*
X914647Y314249D01*
X914684Y314203D01*
X914739Y314147D01*
X914804Y314055D01*
X914887Y313953D01*
X914979Y313824D01*
X915081Y313676D01*
X915183Y313510D01*
Y313500D01*
X915192Y313491D01*
X915229Y313435D01*
X915275Y313343D01*
X915331Y313232D01*
X915395Y313103D01*
X915460Y312964D01*
X915525Y312825D01*
X915580Y312687D01*
X914822D01*
Y312696D01*
X914804Y312714D01*
X914794Y312751D01*
X914767Y312798D01*
X914739Y312853D01*
X914702Y312918D01*
X914610Y313075D01*
X914508Y313260D01*
X914378Y313445D01*
X914230Y313639D01*
X914073Y313833D01*
X914064Y313842D01*
X914055Y313852D01*
X914027Y313879D01*
X913999Y313916D01*
X913907Y314000D01*
X913796Y314111D01*
X913667Y314221D01*
X913519Y314342D01*
X913371Y314443D01*
X913213Y314536D01*
Y315044D01*
X919639D01*
Y314258D01*
D02*
G37*
G36*
X917809Y311013D02*
X917883D01*
X918058Y310995D01*
X918261Y310976D01*
X918474Y310939D01*
X918668Y310884D01*
X918853Y310819D01*
X918863D01*
X918872Y310810D01*
X918927Y310782D01*
X919001Y310736D01*
X919103Y310671D01*
X919205Y310579D01*
X919315Y310477D01*
X919426Y310347D01*
X919519Y310200D01*
X919528Y310181D01*
X919556Y310126D01*
X919593Y310042D01*
X919630Y309922D01*
X919676Y309774D01*
X919713Y309608D01*
X919741Y309423D01*
X919750Y309219D01*
Y309136D01*
X919741Y309081D01*
X919732Y309007D01*
X919722Y308933D01*
X919685Y308739D01*
X919630Y308535D01*
X919547Y308323D01*
X919491Y308212D01*
X919426Y308110D01*
X919352Y308018D01*
X919269Y307925D01*
X919260Y307916D01*
X919251Y307907D01*
X919214Y307888D01*
X919177Y307860D01*
X919131Y307824D01*
X919066Y307787D01*
X918992Y307750D01*
X918909Y307703D01*
X918816Y307666D01*
X918705Y307629D01*
X918594Y307592D01*
X918465Y307555D01*
X918326Y307537D01*
X918169Y307509D01*
X918012Y307500D01*
X917836D01*
X917725Y308267D01*
X917735D01*
X917753D01*
X917790D01*
X917846Y308277D01*
X917901Y308286D01*
X917966D01*
X918123Y308314D01*
X918289Y308341D01*
X918456Y308397D01*
X918604Y308452D01*
X918668Y308489D01*
X918724Y308535D01*
X918733Y308545D01*
X918761Y308582D01*
X918807Y308637D01*
X918853Y308711D01*
X918909Y308813D01*
X918946Y308924D01*
X918983Y309062D01*
X918992Y309210D01*
Y309266D01*
X918983Y309321D01*
X918973Y309405D01*
X918955Y309488D01*
X918936Y309580D01*
X918900Y309673D01*
X918853Y309765D01*
X918844Y309774D01*
X918826Y309802D01*
X918789Y309839D01*
X918752Y309895D01*
X918687Y309941D01*
X918622Y309996D01*
X918548Y310042D01*
X918456Y310079D01*
X918446D01*
X918410Y310098D01*
X918345Y310107D01*
X918261Y310126D01*
X918151Y310144D01*
X918012Y310153D01*
X917846Y310172D01*
X917651D01*
X913241D01*
Y311022D01*
X917605D01*
X917614D01*
X917642D01*
X917679D01*
X917735D01*
X917809Y311013D01*
D02*
G37*
D14*
X675500Y570650D02*
Y679350D01*
Y570650D02*
X724500D01*
Y679350D01*
X675500D02*
X724500D01*
X890000Y219500D02*
Y395500D01*
X949500D01*
Y219500D02*
Y395500D01*
X890000Y219500D02*
X949500D01*
M02*
