G04*
G04 #@! TF.GenerationSoftware,Altium Limited,Altium Designer,24.3.1 (35)*
G04*
G04 Layer_Color=16711935*
%FSLAX44Y44*%
%MOMM*%
G71*
G04*
G04 #@! TF.SameCoordinates,E7721F7D-E282-41D9-B0B1-2D617A9ED9AD*
G04*
G04*
G04 #@! TF.FilePolarity,Negative*
G04*
G01*
G75*
%ADD20R,2.2032X2.2032*%
%ADD21C,3.2032*%
G04:AMPARAMS|DCode=22|XSize=3.2032mm|YSize=3.2032mm|CornerRadius=0.8516mm|HoleSize=0mm|Usage=FLASHONLY|Rotation=270.000|XOffset=0mm|YOffset=0mm|HoleType=Round|Shape=RoundedRectangle|*
%AMROUNDEDRECTD22*
21,1,3.2032,1.5000,0,0,270.0*
21,1,1.5000,3.2032,0,0,270.0*
1,1,1.7032,-0.7500,-0.7500*
1,1,1.7032,-0.7500,0.7500*
1,1,1.7032,0.7500,0.7500*
1,1,1.7032,0.7500,-0.7500*
%
%ADD22ROUNDEDRECTD22*%
%ADD23C,1.9812*%
%ADD24R,1.3000X1.3000*%
%ADD25C,1.3000*%
%ADD26C,2.7032*%
%ADD27C,1.7032*%
%ADD28C,1.9032*%
%ADD29C,5.2032*%
%ADD30C,2.0500*%
%ADD31R,2.0500X2.0500*%
%ADD32R,1.4000X1.4000*%
%ADD33C,1.4000*%
%ADD34C,2.7432*%
D20*
X925000Y152700D02*
D03*
Y178100D02*
D03*
Y127300D02*
D03*
Y101900D02*
D03*
X140000Y555000D02*
D03*
Y487700D02*
D03*
X75000Y462300D02*
D03*
Y436900D02*
D03*
Y487700D02*
D03*
Y513100D02*
D03*
X140000Y445000D02*
D03*
Y410000D02*
D03*
Y361900D02*
D03*
X125000Y255000D02*
D03*
X75000Y105000D02*
D03*
X125000Y180000D02*
D03*
X450000Y410000D02*
D03*
X525000Y325000D02*
D03*
Y295000D02*
D03*
X75000Y235000D02*
D03*
Y184200D02*
D03*
Y209600D02*
D03*
Y317300D02*
D03*
Y342700D02*
D03*
Y393500D02*
D03*
Y368100D02*
D03*
Y291900D02*
D03*
X150000Y950000D02*
D03*
X950000Y875000D02*
D03*
X850000Y702000D02*
D03*
X550000Y435000D02*
D03*
Y50000D02*
D03*
Y490000D02*
D03*
X950000Y800000D02*
D03*
X550000Y560000D02*
D03*
X125000Y295000D02*
D03*
X925000Y682700D02*
D03*
Y657300D02*
D03*
X800000Y299600D02*
D03*
Y274200D02*
D03*
Y325000D02*
D03*
Y350400D02*
D03*
X357400Y412700D02*
D03*
Y488900D02*
D03*
Y438100D02*
D03*
Y463500D02*
D03*
Y158700D02*
D03*
Y184100D02*
D03*
Y209500D02*
D03*
Y234900D02*
D03*
Y260300D02*
D03*
Y336500D02*
D03*
Y285700D02*
D03*
Y387300D02*
D03*
Y361900D02*
D03*
Y311100D02*
D03*
Y565100D02*
D03*
Y641300D02*
D03*
Y590500D02*
D03*
Y615900D02*
D03*
Y539700D02*
D03*
Y514300D02*
D03*
X205000Y412700D02*
D03*
Y488900D02*
D03*
Y438100D02*
D03*
Y463500D02*
D03*
Y158700D02*
D03*
Y184100D02*
D03*
Y209500D02*
D03*
Y234900D02*
D03*
Y260300D02*
D03*
Y336500D02*
D03*
Y285700D02*
D03*
Y387300D02*
D03*
Y361900D02*
D03*
Y311100D02*
D03*
Y565100D02*
D03*
Y641300D02*
D03*
Y590500D02*
D03*
Y615900D02*
D03*
Y539700D02*
D03*
Y514300D02*
D03*
X450000Y335400D02*
D03*
Y284600D02*
D03*
Y310000D02*
D03*
Y617700D02*
D03*
Y592300D02*
D03*
D21*
X60500Y825000D02*
D03*
D22*
Y875000D02*
D03*
D23*
X890000Y795000D02*
D03*
Y925000D02*
D03*
X320000D02*
D03*
Y795000D02*
D03*
D24*
X230000Y875000D02*
D03*
D25*
Y825000D02*
D03*
D26*
X450000Y175000D02*
D03*
Y75000D02*
D03*
X525000Y640000D02*
D03*
Y610000D02*
D03*
X800000Y515000D02*
D03*
Y485000D02*
D03*
X140000Y845000D02*
D03*
Y875000D02*
D03*
X925000Y550000D02*
D03*
Y450000D02*
D03*
X885000Y640000D02*
D03*
Y610000D02*
D03*
X850000Y380000D02*
D03*
Y350000D02*
D03*
X265000Y415000D02*
D03*
Y515000D02*
D03*
X300000Y480000D02*
D03*
Y450000D02*
D03*
D27*
X500000Y115000D02*
D03*
Y140400D02*
D03*
X867300Y487303D02*
D03*
Y512703D02*
D03*
D28*
X800000Y613000D02*
D03*
Y637000D02*
D03*
X600000Y613000D02*
D03*
Y637000D02*
D03*
D29*
X50000Y50000D02*
D03*
X950000D02*
D03*
Y950000D02*
D03*
X50000D02*
D03*
D30*
X694600Y599650D02*
D03*
Y625000D02*
D03*
D31*
Y650350D02*
D03*
D32*
X925000Y245000D02*
D03*
D33*
Y270000D02*
D03*
Y295000D02*
D03*
Y320000D02*
D03*
Y345000D02*
D03*
Y370000D02*
D03*
D34*
X755000Y642000D02*
D03*
X774000Y575000D02*
D03*
X838000Y651000D02*
D03*
X750000Y200000D02*
D03*
X700000D02*
D03*
Y275000D02*
D03*
X750000Y299600D02*
D03*
X850000Y580000D02*
D03*
M02*
