G04*
G04 #@! TF.GenerationSoftware,Altium Limited,Altium Designer,24.3.1 (35)*
G04*
G04 Layer_Color=128*
%FSLAX44Y44*%
%MOMM*%
G71*
G04*
G04 #@! TF.SameCoordinates,E7721F7D-E282-41D9-B0B1-2D617A9ED9AD*
G04*
G04*
G04 #@! TF.FilePolarity,Positive*
G04*
G01*
G75*
%ADD12C,0.1270*%
D12*
X919920Y152700D02*
X930080D01*
X925000Y147620D02*
Y157780D01*
X919920Y178100D02*
X930080D01*
X925000Y173020D02*
Y183180D01*
X919920Y127300D02*
X930080D01*
X925000Y122220D02*
Y132380D01*
X919920Y101900D02*
X930080D01*
X925000Y96820D02*
Y106980D01*
X54000Y825000D02*
X67000D01*
X60500Y818500D02*
Y831500D01*
X54000Y875000D02*
X67000D01*
X60500Y868500D02*
Y881500D01*
X884920Y795000D02*
X895080D01*
X890000Y789920D02*
Y800080D01*
X884920Y925000D02*
X895080D01*
X890000Y919920D02*
Y930080D01*
X314920Y925000D02*
X325080D01*
X320000Y919920D02*
Y930080D01*
X314920Y795000D02*
X325080D01*
X320000Y789920D02*
Y800080D01*
X226000Y875000D02*
X234000D01*
X230000Y871000D02*
Y879000D01*
X226000Y825000D02*
X234000D01*
X230000Y821000D02*
Y829000D01*
X446000Y175000D02*
X454000D01*
X450000Y171000D02*
Y179000D01*
X446000Y75000D02*
X454000D01*
X450000Y71000D02*
Y79000D01*
X495000Y115000D02*
X505000D01*
X500000Y110000D02*
Y120000D01*
X495000Y140400D02*
X505000D01*
X500000Y135400D02*
Y145400D01*
X134920Y555000D02*
X145080D01*
X140000Y549920D02*
Y560080D01*
X134920Y487700D02*
X145080D01*
X140000Y482620D02*
Y492780D01*
X69920Y462300D02*
X80080D01*
X75000Y457220D02*
Y467380D01*
X69920Y436900D02*
X80080D01*
X75000Y431820D02*
Y441980D01*
X69920Y487700D02*
X80080D01*
X75000Y482620D02*
Y492780D01*
X69920Y513100D02*
X80080D01*
X75000Y508020D02*
Y518180D01*
X134920Y445000D02*
X145080D01*
X140000Y439920D02*
Y450080D01*
X134920Y410000D02*
X145080D01*
X140000Y404920D02*
Y415080D01*
X134920Y361900D02*
X145080D01*
X140000Y356820D02*
Y366980D01*
X119920Y255000D02*
X130080D01*
X125000Y249920D02*
Y260080D01*
X69920Y105000D02*
X80080D01*
X75000Y99920D02*
Y110080D01*
X119920Y180000D02*
X130080D01*
X125000Y174920D02*
Y185080D01*
X521000Y640000D02*
X529000D01*
X525000Y636000D02*
Y644000D01*
X521000Y610000D02*
X529000D01*
X525000Y606000D02*
Y614000D01*
X444920Y410000D02*
X455080D01*
X450000Y404920D02*
Y415080D01*
X519920Y325000D02*
X530080D01*
X525000Y319920D02*
Y330080D01*
X519920Y295000D02*
X530080D01*
X525000Y289920D02*
Y300080D01*
X69920Y235000D02*
X80080D01*
X75000Y229920D02*
Y240080D01*
X69920Y184200D02*
X80080D01*
X75000Y179120D02*
Y189280D01*
X69920Y209600D02*
X80080D01*
X75000Y204520D02*
Y214680D01*
X69920Y317300D02*
X80080D01*
X75000Y312220D02*
Y322380D01*
X69920Y342700D02*
X80080D01*
X75000Y337620D02*
Y347780D01*
X69920Y393500D02*
X80080D01*
X75000Y388420D02*
Y398580D01*
X69920Y368100D02*
X80080D01*
X75000Y363020D02*
Y373180D01*
X69920Y291900D02*
X80080D01*
X75000Y286820D02*
Y296980D01*
X796000Y515000D02*
X804000D01*
X800000Y511000D02*
Y519000D01*
X796000Y485000D02*
X804000D01*
X800000Y481000D02*
Y489000D01*
X796000Y613000D02*
X804000D01*
X800000Y609000D02*
Y617000D01*
X796000Y637000D02*
X804000D01*
X800000Y633000D02*
Y641000D01*
X33500Y50000D02*
X66500D01*
X50000Y33500D02*
Y66500D01*
X933500Y50000D02*
X966500D01*
X950000Y33500D02*
Y66500D01*
X933500Y950000D02*
X966500D01*
X950000Y933500D02*
Y966500D01*
X33500Y950000D02*
X66500D01*
X50000Y933500D02*
Y966500D01*
X144920Y950000D02*
X155080D01*
X150000Y944920D02*
Y955080D01*
X944920Y875000D02*
X955080D01*
X950000Y869920D02*
Y880080D01*
X844920Y702000D02*
X855080D01*
X850000Y696920D02*
Y707080D01*
X544920Y435000D02*
X555080D01*
X550000Y429920D02*
Y440080D01*
X544920Y50000D02*
X555080D01*
X550000Y44920D02*
Y55080D01*
X544920Y490000D02*
X555080D01*
X550000Y484920D02*
Y495080D01*
X944920Y800000D02*
X955080D01*
X950000Y794920D02*
Y805080D01*
X544920Y560000D02*
X555080D01*
X550000Y554920D02*
Y565080D01*
X119920Y295000D02*
X130080D01*
X125000Y289920D02*
Y300080D01*
X919920Y682700D02*
X930080D01*
X925000Y677620D02*
Y687780D01*
X919920Y657300D02*
X930080D01*
X925000Y652220D02*
Y662380D01*
X687850Y599650D02*
X701350D01*
X694600Y592900D02*
Y606400D01*
X687850Y625000D02*
X701350D01*
X694600Y618250D02*
Y631750D01*
X687850Y650350D02*
X701350D01*
X694600Y643600D02*
Y657100D01*
X596000Y613000D02*
X604000D01*
X600000Y609000D02*
Y617000D01*
X596000Y637000D02*
X604000D01*
X600000Y633000D02*
Y641000D01*
X136000Y845000D02*
X144000D01*
X140000Y841000D02*
Y849000D01*
X136000Y875000D02*
X144000D01*
X140000Y871000D02*
Y879000D01*
X921000Y550000D02*
X929000D01*
X925000Y546000D02*
Y554000D01*
X921000Y450000D02*
X929000D01*
X925000Y446000D02*
Y454000D01*
X881000Y640000D02*
X889000D01*
X885000Y636000D02*
Y644000D01*
X881000Y610000D02*
X889000D01*
X885000Y606000D02*
Y614000D01*
X846000Y380000D02*
X854000D01*
X850000Y376000D02*
Y384000D01*
X846000Y350000D02*
X854000D01*
X850000Y346000D02*
Y354000D01*
X862300Y487303D02*
X872300D01*
X867300Y482303D02*
Y492303D01*
X862300Y512703D02*
X872300D01*
X867300Y507703D02*
Y517703D01*
X261000Y415000D02*
X269000D01*
X265000Y411000D02*
Y419000D01*
X261000Y515000D02*
X269000D01*
X265000Y511000D02*
Y519000D01*
X920500Y245000D02*
X929500D01*
X925000Y240500D02*
Y249500D01*
X920500Y270000D02*
X929500D01*
X925000Y265500D02*
Y274500D01*
X920500Y295000D02*
X929500D01*
X925000Y290500D02*
Y299500D01*
X920500Y320000D02*
X929500D01*
X925000Y315500D02*
Y324500D01*
X920500Y345000D02*
X929500D01*
X925000Y340500D02*
Y349500D01*
X920500Y370000D02*
X929500D01*
X925000Y365500D02*
Y374500D01*
X794920Y299600D02*
X805080D01*
X800000Y294520D02*
Y304680D01*
X794920Y274200D02*
X805080D01*
X800000Y269120D02*
Y279280D01*
X794920Y325000D02*
X805080D01*
X800000Y319920D02*
Y330080D01*
X794920Y350400D02*
X805080D01*
X800000Y345320D02*
Y355480D01*
X296000Y480000D02*
X304000D01*
X300000Y476000D02*
Y484000D01*
X296000Y450000D02*
X304000D01*
X300000Y446000D02*
Y454000D01*
X352320Y412700D02*
X362480D01*
X357400Y407620D02*
Y417780D01*
X352320Y488900D02*
X362480D01*
X357400Y483820D02*
Y493980D01*
X352320Y438100D02*
X362480D01*
X357400Y433020D02*
Y443180D01*
X352320Y463500D02*
X362480D01*
X357400Y458420D02*
Y468580D01*
X352320Y158700D02*
X362480D01*
X357400Y153620D02*
Y163780D01*
X352320Y184100D02*
X362480D01*
X357400Y179020D02*
Y189180D01*
X352320Y209500D02*
X362480D01*
X357400Y204420D02*
Y214580D01*
X352320Y234900D02*
X362480D01*
X357400Y229820D02*
Y239980D01*
X352320Y260300D02*
X362480D01*
X357400Y255220D02*
Y265380D01*
X352320Y336500D02*
X362480D01*
X357400Y331420D02*
Y341580D01*
X352320Y285700D02*
X362480D01*
X357400Y280620D02*
Y290780D01*
X352320Y387300D02*
X362480D01*
X357400Y382220D02*
Y392380D01*
X352320Y361900D02*
X362480D01*
X357400Y356820D02*
Y366980D01*
X352320Y311100D02*
X362480D01*
X357400Y306020D02*
Y316180D01*
X352320Y565100D02*
X362480D01*
X357400Y560020D02*
Y570180D01*
X352320Y641300D02*
X362480D01*
X357400Y636220D02*
Y646380D01*
X352320Y590500D02*
X362480D01*
X357400Y585420D02*
Y595580D01*
X352320Y615900D02*
X362480D01*
X357400Y610820D02*
Y620980D01*
X352320Y539700D02*
X362480D01*
X357400Y534620D02*
Y544780D01*
X352320Y514300D02*
X362480D01*
X357400Y509220D02*
Y519380D01*
X199920Y412700D02*
X210080D01*
X205000Y407620D02*
Y417780D01*
X199920Y488900D02*
X210080D01*
X205000Y483820D02*
Y493980D01*
X199920Y438100D02*
X210080D01*
X205000Y433020D02*
Y443180D01*
X199920Y463500D02*
X210080D01*
X205000Y458420D02*
Y468580D01*
X199920Y158700D02*
X210080D01*
X205000Y153620D02*
Y163780D01*
X199920Y184100D02*
X210080D01*
X205000Y179020D02*
Y189180D01*
X199920Y209500D02*
X210080D01*
X205000Y204420D02*
Y214580D01*
X199920Y234900D02*
X210080D01*
X205000Y229820D02*
Y239980D01*
X199920Y260300D02*
X210080D01*
X205000Y255220D02*
Y265380D01*
X199920Y336500D02*
X210080D01*
X205000Y331420D02*
Y341580D01*
X199920Y285700D02*
X210080D01*
X205000Y280620D02*
Y290780D01*
X199920Y387300D02*
X210080D01*
X205000Y382220D02*
Y392380D01*
X199920Y361900D02*
X210080D01*
X205000Y356820D02*
Y366980D01*
X199920Y311100D02*
X210080D01*
X205000Y306020D02*
Y316180D01*
X199920Y565100D02*
X210080D01*
X205000Y560020D02*
Y570180D01*
X199920Y641300D02*
X210080D01*
X205000Y636220D02*
Y646380D01*
X199920Y590500D02*
X210080D01*
X205000Y585420D02*
Y595580D01*
X199920Y615900D02*
X210080D01*
X205000Y610820D02*
Y620980D01*
X199920Y539700D02*
X210080D01*
X205000Y534620D02*
Y544780D01*
X199920Y514300D02*
X210080D01*
X205000Y509220D02*
Y519380D01*
X444920Y335400D02*
X455080D01*
X450000Y330320D02*
Y340480D01*
X444920Y284600D02*
X455080D01*
X450000Y279520D02*
Y289680D01*
X444920Y310000D02*
X455080D01*
X450000Y304920D02*
Y315080D01*
X444920Y617700D02*
X455080D01*
X450000Y612620D02*
Y622780D01*
X444920Y592300D02*
X455080D01*
X450000Y587220D02*
Y597380D01*
X749920Y642000D02*
X760080D01*
X755000Y636920D02*
Y647080D01*
X768920Y575000D02*
X779080D01*
X774000Y569920D02*
Y580080D01*
X832920Y651000D02*
X843080D01*
X838000Y645920D02*
Y656080D01*
X744920Y200000D02*
X755080D01*
X750000Y194920D02*
Y205080D01*
X694920Y200000D02*
X705080D01*
X700000Y194920D02*
Y205080D01*
X694920Y275000D02*
X705080D01*
X700000Y269920D02*
Y280080D01*
X744920Y299600D02*
X755080D01*
X750000Y294520D02*
Y304680D01*
X844920Y580000D02*
X855080D01*
X850000Y574920D02*
Y585080D01*
M02*
