G04*
G04 #@! TF.GenerationSoftware,Altium Limited,Altium Designer,24.3.1 (35)*
G04*
G04 Layer_Color=32768*
%FSLAX44Y44*%
%MOMM*%
G71*
G04*
G04 #@! TF.SameCoordinates,E7721F7D-E282-41D9-B0B1-2D617A9ED9AD*
G04*
G04*
G04 #@! TF.FilePolarity,Positive*
G04*
G01*
G75*
%ADD14C,0.2000*%
%ADD48C,0.0500*%
D14*
X230000Y796500D02*
G03*
X230000Y903500I0J53500D01*
G01*
D02*
G03*
X230000Y796500I0J-53500D01*
G01*
X675500Y570650D02*
Y679350D01*
Y570650D02*
X724500D01*
Y679350D01*
X675500D02*
X724500D01*
X890000Y219500D02*
Y395500D01*
X949500D01*
Y219500D02*
Y395500D01*
X890000Y219500D02*
X949500D01*
D48*
X482606Y155447D02*
G03*
X517399Y155445I17395J-27748D01*
G01*
X849906Y527750D02*
G03*
X884699Y527748I17395J-27748D01*
G01*
X104500Y792000D02*
Y908000D01*
X25500Y792000D02*
X104500D01*
X25500D02*
Y908000D01*
X104500D01*
X495002Y127698D02*
X505002D01*
X500002Y122698D02*
Y132698D01*
X482606Y155448D02*
X517402D01*
X862302Y500002D02*
X872302D01*
X867302Y495002D02*
Y505002D01*
X849906Y527752D02*
X884702D01*
M02*
