ISO-10303-21;
HEADER;
FILE_DESCRIPTION(('STEP AP203'),'1');
FILE_NAME('1815069.stp','2024-09-19T11:09:59',('TraceParts'),('TraceParts S.A.'),'Spatial InterOp 3D',' ',' ');
FILE_SCHEMA(('CONFIG_CONTROL_DESIGN'));
ENDSEC;
DATA;
#1=DESIGN_CONTEXT('',#27,'design');
#2=APPLICATION_PROTOCOL_DEFINITION('INTERNATIONAL STANDARD','config_control_design',1994,#27);
#3=PRODUCT_CATEGORY_RELATIONSHIP('NONE','NONE',#28,#29);
#4=DATE_AND_TIME(#30,#31);
#5=DATE_TIME_ROLE('creation_date');
#6=DATE_TIME_ROLE('classification_date');
#7=PERSON_AND_ORGANIZATION_ROLE('creator');
#8=PERSON_AND_ORGANIZATION_ROLE('design_supplier');
#9=PERSON_AND_ORGANIZATION_ROLE('classification_officer');
#10=PERSON_AND_ORGANIZATION_ROLE('design_owner');
#11=APPROVAL_PERSON_ORGANIZATION(#32,#33,#34);
#12=APPROVAL_DATE_TIME(#4,#33);
#13=CC_DESIGN_APPROVAL(#33,(#35,#36,#37));
#14=CC_DESIGN_DATE_AND_TIME_ASSIGNMENT(#4,#5,(#37));
#15=CC_DESIGN_DATE_AND_TIME_ASSIGNMENT(#4,#6,(#35));
#16=CC_DESIGN_PERSON_AND_ORGANIZATION_ASSIGNMENT(#32,#10,(#38));
#17=CC_DESIGN_PERSON_AND_ORGANIZATION_ASSIGNMENT(#32,#7,(#37));
#18=CC_DESIGN_PERSON_AND_ORGANIZATION_ASSIGNMENT(#32,#7,(#36));
#19=CC_DESIGN_PERSON_AND_ORGANIZATION_ASSIGNMENT(#32,#8,(#36));
#20=CC_DESIGN_SECURITY_CLASSIFICATION(#35,(#36));
#21=CC_DESIGN_PERSON_AND_ORGANIZATION_ASSIGNMENT(#32,#9,(#35));
#22=SHAPE_DEFINITION_REPRESENTATION(#39,#40);
#23= (GEOMETRIC_REPRESENTATION_CONTEXT(3)GLOBAL_UNCERTAINTY_ASSIGNED_CONTEXT((#43))GLOBAL_UNIT_ASSIGNED_CONTEXT((#45,#46,#47))REPRESENTATION_CONTEXT('NONE','WORKSPACE'));
#27=APPLICATION_CONTEXT('CONFIGURATION CONTROLLED 3D DESIGNS OF MECHANICAL PARTS AND ASSEMBLIES');
#28=PRODUCT_CATEGORY('part','NONE');
#29=PRODUCT_RELATED_PRODUCT_CATEGORY('detail',' ',(#38));
#30=CALENDAR_DATE(2024,19,8);
#31=LOCAL_TIME(13,9,59.0,#49);
#32=PERSON_AND_ORGANIZATION(#50,#51);
#33=APPROVAL(#52,'SOLID MODEL');
#34=APPROVAL_ROLE('APPROVED');
#35=SECURITY_CLASSIFICATION('','',#53);
#36=PRODUCT_DEFINITION_FORMATION_WITH_SPECIFIED_SOURCE(' ','NONE',#38,.NOT_KNOWN.);
#37=PRODUCT_DEFINITION('','NONE',#36,#1);
#38=PRODUCT('1','','PART--DESC',(#54));
#39=PRODUCT_DEFINITION_SHAPE('NONE','NONE',#37);
#40=ADVANCED_BREP_SHAPE_REPRESENTATION('1',(#55,#56),#23);
#43=UNCERTAINTY_MEASURE_WITH_UNIT(LENGTH_MEASURE(1.0E-06),#45,'','');
#45= (CONVERSION_BASED_UNIT('MILLIMETRE',#59)LENGTH_UNIT()NAMED_UNIT(#62));
#46= (NAMED_UNIT(#64)PLANE_ANGLE_UNIT()SI_UNIT($,.RADIAN.));
#47= (NAMED_UNIT(#64)SOLID_ANGLE_UNIT()SI_UNIT($,.STERADIAN.));
#49=COORDINATED_UNIVERSAL_TIME_OFFSET(1,0,.AHEAD.);
#50=PERSON('','UNSPECIFIED',$,$,$,$);
#51=ORGANIZATION('UNSPECIFIED','UNSPECIFIED','UNSPECIFIED');
#52=APPROVAL_STATUS('approved');
#53=SECURITY_CLASSIFICATION_LEVEL('unclassified');
#54=MECHANICAL_CONTEXT('',#27,'mechanical');
#55=MANIFOLD_SOLID_BREP('1',#70);
#56=AXIS2_PLACEMENT_3D('',#71,#72,#73);
#59=LENGTH_MEASURE_WITH_UNIT(LENGTH_MEASURE(1.0),#74);
#62=DIMENSIONAL_EXPONENTS(1.0,0.0,0.0,0.0,0.0,0.0,0.0);
#64=DIMENSIONAL_EXPONENTS(0.0,0.0,0.0,0.0,0.0,0.0,0.0);
#70=CLOSED_SHELL('',(#75,#76,#77,#78,#79,#80,#81,#82,#83,#84,#85,#86,#87,#88,#89,#90,#91,#92,#93,#94,#95,#96,#97,#98,#99,#100,#101,#102));
#71=CARTESIAN_POINT('',(0.0,0.0,0.0));
#72=DIRECTION('',(0.0,0.0,1.0));
#73=DIRECTION('',(1.0,0.0,0.0));
#74= (NAMED_UNIT(#62)LENGTH_UNIT()SI_UNIT(.MILLI.,.METRE.));
#75=ADVANCED_FACE('',(#104),#105,.T.);
#76=ADVANCED_FACE('',(#106),#107,.T.);
#77=ADVANCED_FACE('',(#108),#109,.T.);
#78=ADVANCED_FACE('',(#110),#111,.F.);
#79=ADVANCED_FACE('',(#112),#113,.T.);
#80=ADVANCED_FACE('',(#114),#115,.F.);
#81=ADVANCED_FACE('',(#116),#117,.T.);
#82=ADVANCED_FACE('',(#118),#119,.T.);
#83=ADVANCED_FACE('',(#120),#121,.T.);
#84=ADVANCED_FACE('',(#122),#123,.T.);
#85=ADVANCED_FACE('',(#124),#125,.T.);
#86=ADVANCED_FACE('',(#126),#127,.T.);
#87=ADVANCED_FACE('',(#128),#129,.T.);
#88=ADVANCED_FACE('',(#130),#131,.T.);
#89=ADVANCED_FACE('',(#132),#133,.T.);
#90=ADVANCED_FACE('',(#134,#135,#136),#137,.T.);
#91=ADVANCED_FACE('',(#138),#139,.T.);
#92=ADVANCED_FACE('',(#140),#141,.T.);
#93=ADVANCED_FACE('',(#142),#143,.T.);
#94=ADVANCED_FACE('',(#144,#145),#146,.T.);
#95=ADVANCED_FACE('',(#147),#148,.F.);
#96=ADVANCED_FACE('',(#149),#150,.T.);
#97=ADVANCED_FACE('',(#151),#152,.F.);
#98=ADVANCED_FACE('',(#153,#154),#155,.T.);
#99=ADVANCED_FACE('',(#156),#157,.T.);
#100=ADVANCED_FACE('',(#158),#159,.T.);
#101=ADVANCED_FACE('',(#160),#161,.T.);
#102=ADVANCED_FACE('',(#162),#163,.T.);
#104=FACE_OUTER_BOUND('',#164,.T.);
#105=TOROIDAL_SURFACE('',#165,2.7,0.3);
#106=FACE_OUTER_BOUND('',#166,.T.);
#107=CYLINDRICAL_SURFACE('',#167,3.0);
#108=FACE_OUTER_BOUND('',#168,.T.);
#109=TOROIDAL_SURFACE('',#169,2.925,0.075);
#110=FACE_OUTER_BOUND('',#170,.T.);
#111=TOROIDAL_SURFACE('',#171,2.775,0.075);
#112=FACE_OUTER_BOUND('',#172,.T.);
#113=CYLINDRICAL_SURFACE('',#173,2.7);
#114=FACE_OUTER_BOUND('',#174,.T.);
#115=TOROIDAL_SURFACE('',#175,2.775,0.075);
#116=FACE_OUTER_BOUND('',#176,.T.);
#117=TOROIDAL_SURFACE('',#177,2.925,0.075);
#118=FACE_OUTER_BOUND('',#178,.T.);
#119=CYLINDRICAL_SURFACE('',#179,3.0);
#120=FACE_OUTER_BOUND('',#180,.T.);
#121=TOROIDAL_SURFACE('',#181,2.7,0.3);
#122=FACE_OUTER_BOUND('',#182,.T.);
#123=CYLINDRICAL_SURFACE('',#183,0.25);
#124=FACE_OUTER_BOUND('',#184,.T.);
#125=CYLINDRICAL_SURFACE('',#185,0.25);
#126=FACE_OUTER_BOUND('',#186,.T.);
#127=CYLINDRICAL_SURFACE('',#187,0.25);
#128=FACE_OUTER_BOUND('',#188,.T.);
#129=PLANE('',#189);
#130=FACE_OUTER_BOUND('',#190,.T.);
#131=CYLINDRICAL_SURFACE('',#191,0.25);
#132=FACE_OUTER_BOUND('',#192,.T.);
#133=PLANE('',#193);
#134=FACE_OUTER_BOUND('',#194,.T.);
#135=FACE_BOUND('',#195,.T.);
#136=FACE_BOUND('',#196,.T.);
#137=PLANE('',#197);
#138=FACE_OUTER_BOUND('',#198,.T.);
#139=TOROIDAL_SURFACE('',#199,2.7,0.3);
#140=FACE_OUTER_BOUND('',#200,.T.);
#141=CYLINDRICAL_SURFACE('',#201,3.0);
#142=FACE_OUTER_BOUND('',#202,.T.);
#143=TOROIDAL_SURFACE('',#203,2.925,0.075);
#144=FACE_OUTER_BOUND('',#204,.T.);
#145=FACE_BOUND('',#205,.T.);
#146=PLANE('',#206);
#147=FACE_OUTER_BOUND('',#207,.T.);
#148=TOROIDAL_SURFACE('',#208,2.775,0.075);
#149=FACE_OUTER_BOUND('',#209,.T.);
#150=CYLINDRICAL_SURFACE('',#210,2.7);
#151=FACE_OUTER_BOUND('',#211,.T.);
#152=TOROIDAL_SURFACE('',#212,2.775,0.075);
#153=FACE_OUTER_BOUND('',#213,.T.);
#154=FACE_BOUND('',#214,.T.);
#155=PLANE('',#215);
#156=FACE_OUTER_BOUND('',#216,.T.);
#157=TOROIDAL_SURFACE('',#217,2.925,0.075);
#158=FACE_OUTER_BOUND('',#218,.T.);
#159=CYLINDRICAL_SURFACE('',#219,3.0);
#160=FACE_OUTER_BOUND('',#220,.T.);
#161=TOROIDAL_SURFACE('',#221,2.7,0.3);
#162=FACE_OUTER_BOUND('',#222,.T.);
#163=PLANE('',#223);
#164=EDGE_LOOP('',(#224,#225,#226,#227,#228));
#165=AXIS2_PLACEMENT_3D('',#229,#230,#231);
#166=EDGE_LOOP('',(#232,#233,#234,#235,#236,#237));
#167=AXIS2_PLACEMENT_3D('',#238,#239,#240);
#168=EDGE_LOOP('',(#241,#242,#243,#244,#245));
#169=AXIS2_PLACEMENT_3D('',#246,#247,#248);
#170=EDGE_LOOP('',(#249,#250,#251,#252,#253));
#171=AXIS2_PLACEMENT_3D('',#254,#255,#256);
#172=EDGE_LOOP('',(#257,#258,#259,#260,#261,#262));
#173=AXIS2_PLACEMENT_3D('',#263,#264,#265);
#174=EDGE_LOOP('',(#266,#267,#268,#269,#270));
#175=AXIS2_PLACEMENT_3D('',#271,#272,#273);
#176=EDGE_LOOP('',(#274,#275,#276,#277,#278));
#177=AXIS2_PLACEMENT_3D('',#279,#280,#281);
#178=EDGE_LOOP('',(#282,#283,#284,#285,#286,#287));
#179=AXIS2_PLACEMENT_3D('',#288,#289,#290);
#180=EDGE_LOOP('',(#291,#292,#293,#294,#295));
#181=AXIS2_PLACEMENT_3D('',#296,#297,#298);
#182=EDGE_LOOP('',(#299,#300,#301,#302));
#183=AXIS2_PLACEMENT_3D('',#303,#304,#305);
#184=EDGE_LOOP('',(#306,#307,#308,#309));
#185=AXIS2_PLACEMENT_3D('',#310,#311,#312);
#186=EDGE_LOOP('',(#313,#314,#315,#316));
#187=AXIS2_PLACEMENT_3D('',#317,#318,#319);
#188=EDGE_LOOP('',(#320,#321));
#189=AXIS2_PLACEMENT_3D('',#322,#323,#324);
#190=EDGE_LOOP('',(#325,#326,#327,#328));
#191=AXIS2_PLACEMENT_3D('',#329,#330,#331);
#192=EDGE_LOOP('',(#332,#333));
#193=AXIS2_PLACEMENT_3D('',#334,#335,#336);
#194=EDGE_LOOP('',(#337,#338));
#195=EDGE_LOOP('',(#339,#340));
#196=EDGE_LOOP('',(#341,#342));
#197=AXIS2_PLACEMENT_3D('',#343,#344,#345);
#198=EDGE_LOOP('',(#346,#347,#348,#349,#350));
#199=AXIS2_PLACEMENT_3D('',#351,#352,#353);
#200=EDGE_LOOP('',(#354,#355,#356,#357,#358,#359));
#201=AXIS2_PLACEMENT_3D('',#360,#361,#362);
#202=EDGE_LOOP('',(#363,#364,#365,#366,#367));
#203=AXIS2_PLACEMENT_3D('',#368,#369,#370);
#204=EDGE_LOOP('',(#371,#372));
#205=EDGE_LOOP('',(#373,#374,#375));
#206=AXIS2_PLACEMENT_3D('',#376,#377,#378);
#207=EDGE_LOOP('',(#379,#380,#381,#382,#383,#384));
#208=AXIS2_PLACEMENT_3D('',#385,#386,#387);
#209=EDGE_LOOP('',(#388,#389,#390,#391,#392,#393));
#210=AXIS2_PLACEMENT_3D('',#394,#395,#396);
#211=EDGE_LOOP('',(#397,#398,#399,#400,#401,#402));
#212=AXIS2_PLACEMENT_3D('',#403,#404,#405);
#213=EDGE_LOOP('',(#406,#407));
#214=EDGE_LOOP('',(#408,#409,#410));
#215=AXIS2_PLACEMENT_3D('',#411,#412,#413);
#216=EDGE_LOOP('',(#414,#415,#416,#417,#418));
#217=AXIS2_PLACEMENT_3D('',#419,#420,#421);
#218=EDGE_LOOP('',(#422,#423,#424,#425,#426,#427));
#219=AXIS2_PLACEMENT_3D('',#428,#429,#430);
#220=EDGE_LOOP('',(#431,#432,#433,#434,#435));
#221=AXIS2_PLACEMENT_3D('',#436,#437,#438);
#222=EDGE_LOOP('',(#439,#440));
#223=AXIS2_PLACEMENT_3D('',#441,#442,#443);
#224=ORIENTED_EDGE('',*,*,#444,.F.);
#225=ORIENTED_EDGE('',*,*,#445,.T.);
#226=ORIENTED_EDGE('',*,*,#446,.T.);
#227=ORIENTED_EDGE('',*,*,#447,.F.);
#228=ORIENTED_EDGE('',*,*,#448,.F.);
#229=CARTESIAN_POINT('',(0.300000000000001,0.0,-6.36795303987636E-16));
#230=DIRECTION('',(-1.0,0.0,-1.22460635382238E-16));
#231=DIRECTION('',(-1.22460635382238E-16,0.0,1.0));
#232=ORIENTED_EDGE('',*,*,#449,.F.);
#233=ORIENTED_EDGE('',*,*,#450,.T.);
#234=ORIENTED_EDGE('',*,*,#451,.T.);
#235=ORIENTED_EDGE('',*,*,#452,.F.);
#236=ORIENTED_EDGE('',*,*,#453,.F.);
#237=ORIENTED_EDGE('',*,*,#446,.F.);
#238=CARTESIAN_POINT('',(4.58125,0.0,-1.12510708757431E-16));
#239=DIRECTION('',(1.0,-0.0,1.22460635382238E-16));
#240=DIRECTION('',(0.0,1.0,0.0));
#241=ORIENTED_EDGE('',*,*,#454,.F.);
#242=ORIENTED_EDGE('',*,*,#455,.T.);
#243=ORIENTED_EDGE('',*,*,#456,.F.);
#244=ORIENTED_EDGE('',*,*,#450,.F.);
#245=ORIENTED_EDGE('',*,*,#457,.F.);
#246=CARTESIAN_POINT('',(8.8625,0.0,4.11773886472774E-16));
#247=DIRECTION('',(-1.0,0.0,-1.22460635382238E-16));
#248=DIRECTION('',(-1.22460635382238E-16,0.0,1.0));
#249=ORIENTED_EDGE('',*,*,#458,.F.);
#250=ORIENTED_EDGE('',*,*,#459,.T.);
#251=ORIENTED_EDGE('',*,*,#460,.T.);
#252=ORIENTED_EDGE('',*,*,#461,.F.);
#253=ORIENTED_EDGE('',*,*,#462,.F.);
#254=CARTESIAN_POINT('',(9.0125,0.0,4.3014298178011E-16));
#255=DIRECTION('',(-1.0,0.0,-1.22460635382238E-16));
#256=DIRECTION('',(-1.22460635382238E-16,0.0,1.0));
#257=ORIENTED_EDGE('',*,*,#463,.F.);
#258=ORIENTED_EDGE('',*,*,#464,.T.);
#259=ORIENTED_EDGE('',*,*,#465,.T.);
#260=ORIENTED_EDGE('',*,*,#466,.F.);
#261=ORIENTED_EDGE('',*,*,#459,.F.);
#262=ORIENTED_EDGE('',*,*,#467,.F.);
#263=CARTESIAN_POINT('',(9.28125,0.0,4.63054277539086E-16));
#264=DIRECTION('',(1.0,-0.0,1.22460635382238E-16));
#265=DIRECTION('',(0.0,1.0,0.0));
#266=ORIENTED_EDGE('',*,*,#468,.F.);
#267=ORIENTED_EDGE('',*,*,#469,.T.);
#268=ORIENTED_EDGE('',*,*,#470,.F.);
#269=ORIENTED_EDGE('',*,*,#471,.F.);
#270=ORIENTED_EDGE('',*,*,#465,.F.);
#271=CARTESIAN_POINT('',(9.55,0.0,4.95965573298063E-16));
#272=DIRECTION('',(-1.0,0.0,-1.22460635382238E-16));
#273=DIRECTION('',(-1.22460635382238E-16,0.0,1.0));
#274=ORIENTED_EDGE('',*,*,#472,.F.);
#275=ORIENTED_EDGE('',*,*,#473,.T.);
#276=ORIENTED_EDGE('',*,*,#474,.T.);
#277=ORIENTED_EDGE('',*,*,#475,.F.);
#278=ORIENTED_EDGE('',*,*,#476,.F.);
#279=CARTESIAN_POINT('',(9.7,0.0,5.14334668605398E-16));
#280=DIRECTION('',(-1.0,0.0,-1.22460635382238E-16));
#281=DIRECTION('',(-1.22460635382238E-16,0.0,1.0));
#282=ORIENTED_EDGE('',*,*,#477,.F.);
#283=ORIENTED_EDGE('',*,*,#478,.T.);
#284=ORIENTED_EDGE('',*,*,#479,.T.);
#285=ORIENTED_EDGE('',*,*,#480,.F.);
#286=ORIENTED_EDGE('',*,*,#481,.F.);
#287=ORIENTED_EDGE('',*,*,#474,.F.);
#288=CARTESIAN_POINT('',(10.2,0.0,5.75564986296517E-16));
#289=DIRECTION('',(1.0,-0.0,1.22460635382238E-16));
#290=DIRECTION('',(0.0,1.0,0.0));
#291=ORIENTED_EDGE('',*,*,#482,.F.);
#292=ORIENTED_EDGE('',*,*,#483,.T.);
#293=ORIENTED_EDGE('',*,*,#484,.F.);
#294=ORIENTED_EDGE('',*,*,#478,.F.);
#295=ORIENTED_EDGE('',*,*,#485,.F.);
#296=CARTESIAN_POINT('',(10.7,0.0,6.36795303987636E-16));
#297=DIRECTION('',(-1.0,0.0,-1.22460635382238E-16));
#298=DIRECTION('',(-1.22460635382238E-16,0.0,1.0));
#299=ORIENTED_EDGE('',*,*,#486,.F.);
#300=ORIENTED_EDGE('',*,*,#487,.F.);
#301=ORIENTED_EDGE('',*,*,#488,.F.);
#302=ORIENTED_EDGE('',*,*,#489,.F.);
#303=CARTESIAN_POINT('',(15.75,-1.25,0.0));
#304=DIRECTION('',(-1.0,0.0,-0.0));
#305=DIRECTION('',(0.0,0.0,-1.0));
#306=ORIENTED_EDGE('',*,*,#490,.F.);
#307=ORIENTED_EDGE('',*,*,#491,.F.);
#308=ORIENTED_EDGE('',*,*,#492,.F.);
#309=ORIENTED_EDGE('',*,*,#493,.F.);
#310=CARTESIAN_POINT('',(18.25,1.25,0.0));
#311=DIRECTION('',(-1.0,0.0,-0.0));
#312=DIRECTION('',(0.0,0.0,-1.0));
#313=ORIENTED_EDGE('',*,*,#490,.T.);
#314=ORIENTED_EDGE('',*,*,#494,.F.);
#315=ORIENTED_EDGE('',*,*,#492,.T.);
#316=ORIENTED_EDGE('',*,*,#495,.F.);
#317=CARTESIAN_POINT('',(18.25,1.25,0.0));
#318=DIRECTION('',(-1.0,0.0,-0.0));
#319=DIRECTION('',(0.0,0.0,-1.0));
#320=ORIENTED_EDGE('',*,*,#493,.T.);
#321=ORIENTED_EDGE('',*,*,#494,.T.);
#322=CARTESIAN_POINT('',(31.0,1.25,0.0));
#323=DIRECTION('',(1.0,0.0,0.0));
#324=DIRECTION('',(0.0,1.0,0.0));
#325=ORIENTED_EDGE('',*,*,#486,.T.);
#326=ORIENTED_EDGE('',*,*,#496,.F.);
#327=ORIENTED_EDGE('',*,*,#488,.T.);
#328=ORIENTED_EDGE('',*,*,#497,.F.);
#329=CARTESIAN_POINT('',(15.75,-1.25,0.0));
#330=DIRECTION('',(-1.0,0.0,-0.0));
#331=DIRECTION('',(0.0,0.0,-1.0));
#332=ORIENTED_EDGE('',*,*,#489,.T.);
#333=ORIENTED_EDGE('',*,*,#496,.T.);
#334=CARTESIAN_POINT('',(26.0,-1.25,0.0));
#335=DIRECTION('',(1.0,0.0,0.0));
#336=DIRECTION('',(0.0,1.0,0.0));
#337=ORIENTED_EDGE('',*,*,#483,.F.);
#338=ORIENTED_EDGE('',*,*,#498,.F.);
#339=ORIENTED_EDGE('',*,*,#491,.T.);
#340=ORIENTED_EDGE('',*,*,#495,.T.);
#341=ORIENTED_EDGE('',*,*,#487,.T.);
#342=ORIENTED_EDGE('',*,*,#497,.T.);
#343=CARTESIAN_POINT('',(11.0,1.35,6.73533494602307E-16));
#344=DIRECTION('',(1.0,2.05596856412066E-17,1.22460635382238E-16));
#345=DIRECTION('',(-1.22460635382238E-16,0.0,1.0));
#346=ORIENTED_EDGE('',*,*,#482,.T.);
#347=ORIENTED_EDGE('',*,*,#499,.F.);
#348=ORIENTED_EDGE('',*,*,#479,.F.);
#349=ORIENTED_EDGE('',*,*,#484,.T.);
#350=ORIENTED_EDGE('',*,*,#498,.T.);
#351=CARTESIAN_POINT('',(10.7,0.0,6.36795303987636E-16));
#352=DIRECTION('',(-1.0,0.0,-1.22460635382238E-16));
#353=DIRECTION('',(-1.22460635382238E-16,0.0,1.0));
#354=ORIENTED_EDGE('',*,*,#477,.T.);
#355=ORIENTED_EDGE('',*,*,#473,.F.);
#356=ORIENTED_EDGE('',*,*,#500,.F.);
#357=ORIENTED_EDGE('',*,*,#480,.T.);
#358=ORIENTED_EDGE('',*,*,#499,.T.);
#359=ORIENTED_EDGE('',*,*,#485,.T.);
#360=CARTESIAN_POINT('',(10.2,0.0,5.75564986296517E-16));
#361=DIRECTION('',(1.0,-0.0,1.22460635382238E-16));
#362=DIRECTION('',(0.0,1.0,0.0));
#363=ORIENTED_EDGE('',*,*,#472,.T.);
#364=ORIENTED_EDGE('',*,*,#501,.F.);
#365=ORIENTED_EDGE('',*,*,#475,.T.);
#366=ORIENTED_EDGE('',*,*,#481,.T.);
#367=ORIENTED_EDGE('',*,*,#500,.T.);
#368=CARTESIAN_POINT('',(9.7,0.0,5.14334668605398E-16));
#369=DIRECTION('',(-1.0,0.0,-1.22460635382238E-16));
#370=DIRECTION('',(-1.22460635382238E-16,0.0,1.0));
#371=ORIENTED_EDGE('',*,*,#501,.T.);
#372=ORIENTED_EDGE('',*,*,#476,.T.);
#373=ORIENTED_EDGE('',*,*,#502,.F.);
#374=ORIENTED_EDGE('',*,*,#503,.F.);
#375=ORIENTED_EDGE('',*,*,#469,.F.);
#376=CARTESIAN_POINT('',(9.625,2.85,5.05150120951731E-16));
#377=DIRECTION('',(-1.0,0.0,-1.22460635382238E-16));
#378=DIRECTION('',(-1.22460635382238E-16,0.0,1.0));
#379=ORIENTED_EDGE('',*,*,#468,.T.);
#380=ORIENTED_EDGE('',*,*,#464,.F.);
#381=ORIENTED_EDGE('',*,*,#504,.F.);
#382=ORIENTED_EDGE('',*,*,#470,.T.);
#383=ORIENTED_EDGE('',*,*,#503,.T.);
#384=ORIENTED_EDGE('',*,*,#502,.T.);
#385=CARTESIAN_POINT('',(9.55,0.0,4.95965573298063E-16));
#386=DIRECTION('',(-1.0,0.0,-1.22460635382238E-16));
#387=DIRECTION('',(-1.22460635382238E-16,0.0,1.0));
#388=ORIENTED_EDGE('',*,*,#463,.T.);
#389=ORIENTED_EDGE('',*,*,#505,.F.);
#390=ORIENTED_EDGE('',*,*,#460,.F.);
#391=ORIENTED_EDGE('',*,*,#466,.T.);
#392=ORIENTED_EDGE('',*,*,#471,.T.);
#393=ORIENTED_EDGE('',*,*,#504,.T.);
#394=CARTESIAN_POINT('',(9.28125,0.0,4.63054277539086E-16));
#395=DIRECTION('',(1.0,-0.0,1.22460635382238E-16));
#396=DIRECTION('',(0.0,1.0,0.0));
#397=ORIENTED_EDGE('',*,*,#458,.T.);
#398=ORIENTED_EDGE('',*,*,#506,.F.);
#399=ORIENTED_EDGE('',*,*,#507,.F.);
#400=ORIENTED_EDGE('',*,*,#461,.T.);
#401=ORIENTED_EDGE('',*,*,#505,.T.);
#402=ORIENTED_EDGE('',*,*,#467,.T.);
#403=CARTESIAN_POINT('',(9.0125,0.0,4.3014298178011E-16));
#404=DIRECTION('',(-1.0,0.0,-1.22460635382238E-16));
#405=DIRECTION('',(-1.22460635382238E-16,0.0,1.0));
#406=ORIENTED_EDGE('',*,*,#455,.F.);
#407=ORIENTED_EDGE('',*,*,#508,.F.);
#408=ORIENTED_EDGE('',*,*,#506,.T.);
#409=ORIENTED_EDGE('',*,*,#462,.T.);
#410=ORIENTED_EDGE('',*,*,#507,.T.);
#411=CARTESIAN_POINT('',(8.9375,2.85,4.20958434126442E-16));
#412=DIRECTION('',(1.0,0.0,1.22460635382238E-16));
#413=DIRECTION('',(-1.22460635382238E-16,0.0,1.0));
#414=ORIENTED_EDGE('',*,*,#454,.T.);
#415=ORIENTED_EDGE('',*,*,#509,.F.);
#416=ORIENTED_EDGE('',*,*,#451,.F.);
#417=ORIENTED_EDGE('',*,*,#456,.T.);
#418=ORIENTED_EDGE('',*,*,#508,.T.);
#419=CARTESIAN_POINT('',(8.8625,0.0,4.11773886472774E-16));
#420=DIRECTION('',(-1.0,0.0,-1.22460635382238E-16));
#421=DIRECTION('',(-1.22460635382238E-16,0.0,1.0));
#422=ORIENTED_EDGE('',*,*,#449,.T.);
#423=ORIENTED_EDGE('',*,*,#445,.F.);
#424=ORIENTED_EDGE('',*,*,#510,.F.);
#425=ORIENTED_EDGE('',*,*,#452,.T.);
#426=ORIENTED_EDGE('',*,*,#509,.T.);
#427=ORIENTED_EDGE('',*,*,#457,.T.);
#428=CARTESIAN_POINT('',(4.58125,0.0,-1.12510708757431E-16));
#429=DIRECTION('',(1.0,-0.0,1.22460635382238E-16));
#430=DIRECTION('',(0.0,1.0,0.0));
#431=ORIENTED_EDGE('',*,*,#444,.T.);
#432=ORIENTED_EDGE('',*,*,#511,.F.);
#433=ORIENTED_EDGE('',*,*,#447,.T.);
#434=ORIENTED_EDGE('',*,*,#453,.T.);
#435=ORIENTED_EDGE('',*,*,#510,.T.);
#436=CARTESIAN_POINT('',(0.300000000000001,0.0,-6.36795303987636E-16));
#437=DIRECTION('',(-1.0,0.0,-1.22460635382238E-16));
#438=DIRECTION('',(-1.22460635382238E-16,0.0,1.0));
#439=ORIENTED_EDGE('',*,*,#511,.T.);
#440=ORIENTED_EDGE('',*,*,#448,.T.);
#441=CARTESIAN_POINT('',(0.0,1.35,-6.73533494602307E-16));
#442=DIRECTION('',(-1.0,0.0,-1.22460635382238E-16));
#443=DIRECTION('',(-1.22460635382238E-16,0.0,1.0));
#444=EDGE_CURVE('',#512,#513,#514,.T.);
#445=EDGE_CURVE('',#512,#515,#516,.T.);
#446=EDGE_CURVE('',#515,#517,#518,.T.);
#447=EDGE_CURVE('',#519,#517,#520,.T.);
#448=EDGE_CURVE('',#513,#519,#521,.T.);
#449=EDGE_CURVE('',#522,#515,#523,.T.);
#450=EDGE_CURVE('',#522,#524,#525,.T.);
#451=EDGE_CURVE('',#524,#526,#527,.T.);
#452=EDGE_CURVE('',#528,#526,#529,.T.);
#453=EDGE_CURVE('',#517,#528,#530,.T.);
#454=EDGE_CURVE('',#531,#532,#533,.T.);
#455=EDGE_CURVE('',#531,#534,#535,.T.);
#456=EDGE_CURVE('',#524,#534,#536,.T.);
#457=EDGE_CURVE('',#532,#522,#537,.T.);
#458=EDGE_CURVE('',#538,#539,#540,.T.);
#459=EDGE_CURVE('',#538,#541,#542,.T.);
#460=EDGE_CURVE('',#541,#543,#544,.T.);
#461=EDGE_CURVE('',#545,#543,#546,.T.);
#462=EDGE_CURVE('',#539,#545,#547,.T.);
#463=EDGE_CURVE('',#548,#549,#550,.T.);
#464=EDGE_CURVE('',#548,#551,#552,.T.);
#465=EDGE_CURVE('',#551,#553,#554,.T.);
#466=EDGE_CURVE('',#541,#553,#555,.T.);
#467=EDGE_CURVE('',#549,#538,#556,.T.);
#468=EDGE_CURVE('',#557,#551,#558,.T.);
#469=EDGE_CURVE('',#557,#559,#560,.T.);
#470=EDGE_CURVE('',#561,#559,#562,.T.);
#471=EDGE_CURVE('',#553,#561,#563,.T.);
#472=EDGE_CURVE('',#564,#565,#566,.T.);
#473=EDGE_CURVE('',#564,#567,#568,.T.);
#474=EDGE_CURVE('',#567,#569,#570,.T.);
#475=EDGE_CURVE('',#571,#569,#572,.T.);
#476=EDGE_CURVE('',#565,#571,#573,.T.);
#477=EDGE_CURVE('',#574,#567,#575,.T.);
#478=EDGE_CURVE('',#574,#576,#577,.T.);
#479=EDGE_CURVE('',#576,#578,#579,.T.);
#480=EDGE_CURVE('',#580,#578,#581,.T.);
#481=EDGE_CURVE('',#569,#580,#582,.T.);
#482=EDGE_CURVE('',#583,#584,#585,.T.);
#483=EDGE_CURVE('',#583,#586,#587,.T.);
#484=EDGE_CURVE('',#576,#586,#588,.T.);
#485=EDGE_CURVE('',#584,#574,#589,.T.);
#486=EDGE_CURVE('',#590,#591,#592,.T.);
#487=EDGE_CURVE('',#593,#590,#594,.T.);
#488=EDGE_CURVE('',#595,#593,#596,.T.);
#489=EDGE_CURVE('',#591,#595,#597,.T.);
#490=EDGE_CURVE('',#598,#599,#600,.T.);
#491=EDGE_CURVE('',#601,#598,#602,.T.);
#492=EDGE_CURVE('',#603,#601,#604,.T.);
#493=EDGE_CURVE('',#599,#603,#605,.T.);
#494=EDGE_CURVE('',#603,#599,#606,.T.);
#495=EDGE_CURVE('',#598,#601,#607,.T.);
#496=EDGE_CURVE('',#595,#591,#608,.T.);
#497=EDGE_CURVE('',#590,#593,#609,.T.);
#498=EDGE_CURVE('',#586,#583,#610,.T.);
#499=EDGE_CURVE('',#578,#584,#611,.T.);
#500=EDGE_CURVE('',#580,#564,#612,.T.);
#501=EDGE_CURVE('',#571,#565,#613,.T.);
#502=EDGE_CURVE('',#614,#557,#615,.T.);
#503=EDGE_CURVE('',#559,#614,#616,.T.);
#504=EDGE_CURVE('',#561,#548,#617,.T.);
#505=EDGE_CURVE('',#543,#549,#618,.T.);
#506=EDGE_CURVE('',#619,#539,#620,.T.);
#507=EDGE_CURVE('',#545,#619,#621,.T.);
#508=EDGE_CURVE('',#534,#531,#622,.T.);
#509=EDGE_CURVE('',#526,#532,#623,.T.);
#510=EDGE_CURVE('',#528,#512,#624,.T.);
#511=EDGE_CURVE('',#519,#513,#625,.T.);
#512=VERTEX_POINT('',#626);
#513=VERTEX_POINT('',#627);
#514=CIRCLE('',#628,0.3);
#515=VERTEX_POINT('',#629);
#516=CIRCLE('',#630,3.0);
#517=VERTEX_POINT('',#631);
#518=CIRCLE('',#632,3.0);
#519=VERTEX_POINT('',#633);
#520=CIRCLE('',#634,0.3);
#521=CIRCLE('',#635,2.7);
#522=VERTEX_POINT('',#636);
#523=LINE('',#637,#638);
#524=VERTEX_POINT('',#639);
#525=CIRCLE('',#640,3.0);
#526=VERTEX_POINT('',#641);
#527=CIRCLE('',#642,3.0);
#528=VERTEX_POINT('',#643);
#529=LINE('',#644,#645);
#530=CIRCLE('',#646,3.0);
#531=VERTEX_POINT('',#647);
#532=VERTEX_POINT('',#648);
#533=CIRCLE('',#649,0.075);
#534=VERTEX_POINT('',#650);
#535=CIRCLE('',#651,2.925);
#536=CIRCLE('',#652,0.075);
#537=CIRCLE('',#653,3.0);
#538=VERTEX_POINT('',#654);
#539=VERTEX_POINT('',#655);
#540=CIRCLE('',#656,0.075);
#541=VERTEX_POINT('',#657);
#542=CIRCLE('',#658,2.7);
#543=VERTEX_POINT('',#659);
#544=CIRCLE('',#660,2.7);
#545=VERTEX_POINT('',#661);
#546=CIRCLE('',#662,0.075);
#547=CIRCLE('',#663,2.775);
#548=VERTEX_POINT('',#664);
#549=VERTEX_POINT('',#665);
#550=LINE('',#666,#667);
#551=VERTEX_POINT('',#668);
#552=CIRCLE('',#669,2.7);
#553=VERTEX_POINT('',#670);
#554=CIRCLE('',#671,2.7);
#555=LINE('',#672,#673);
#556=CIRCLE('',#674,2.7);
#557=VERTEX_POINT('',#675);
#558=CIRCLE('',#676,0.075);
#559=VERTEX_POINT('',#677);
#560=CIRCLE('',#678,2.775);
#561=VERTEX_POINT('',#679);
#562=CIRCLE('',#680,0.075);
#563=CIRCLE('',#681,2.7);
#564=VERTEX_POINT('',#682);
#565=VERTEX_POINT('',#683);
#566=CIRCLE('',#684,0.075);
#567=VERTEX_POINT('',#685);
#568=CIRCLE('',#686,3.0);
#569=VERTEX_POINT('',#687);
#570=CIRCLE('',#688,3.0);
#571=VERTEX_POINT('',#689);
#572=CIRCLE('',#690,0.075);
#573=CIRCLE('',#691,2.925);
#574=VERTEX_POINT('',#692);
#575=LINE('',#693,#694);
#576=VERTEX_POINT('',#695);
#577=CIRCLE('',#696,3.0);
#578=VERTEX_POINT('',#697);
#579=CIRCLE('',#698,3.0);
#580=VERTEX_POINT('',#699);
#581=LINE('',#700,#701);
#582=CIRCLE('',#702,3.0);
#583=VERTEX_POINT('',#703);
#584=VERTEX_POINT('',#704);
#585=CIRCLE('',#705,0.3);
#586=VERTEX_POINT('',#706);
#587=CIRCLE('',#707,2.7);
#588=CIRCLE('',#708,0.3);
#589=CIRCLE('',#709,3.0);
#590=VERTEX_POINT('',#710);
#591=VERTEX_POINT('',#711);
#592=LINE('',#712,#713);
#593=VERTEX_POINT('',#714);
#594=CIRCLE('',#715,0.25);
#595=VERTEX_POINT('',#716);
#596=LINE('',#717,#718);
#597=CIRCLE('',#719,0.25);
#598=VERTEX_POINT('',#720);
#599=VERTEX_POINT('',#721);
#600=LINE('',#722,#723);
#601=VERTEX_POINT('',#724);
#602=CIRCLE('',#725,0.25);
#603=VERTEX_POINT('',#726);
#604=LINE('',#727,#728);
#605=CIRCLE('',#729,0.25);
#606=CIRCLE('',#730,0.25);
#607=CIRCLE('',#731,0.25);
#608=CIRCLE('',#732,0.25);
#609=CIRCLE('',#733,0.25);
#610=CIRCLE('',#734,2.7);
#611=CIRCLE('',#735,3.0);
#612=CIRCLE('',#736,3.0);
#613=CIRCLE('',#737,2.925);
#614=VERTEX_POINT('',#738);
#615=CIRCLE('',#739,2.775);
#616=CIRCLE('',#740,2.775);
#617=CIRCLE('',#741,2.7);
#618=CIRCLE('',#742,2.7);
#619=VERTEX_POINT('',#743);
#620=CIRCLE('',#744,2.775);
#621=CIRCLE('',#745,2.775);
#622=CIRCLE('',#746,2.925);
#623=CIRCLE('',#747,3.0);
#624=CIRCLE('',#748,3.0);
#625=CIRCLE('',#749,2.7);
#626=CARTESIAN_POINT('',(0.3,-3.67381906146713E-16,3.0));
#627=CARTESIAN_POINT('',(-3.30643715532042E-16,-3.30643715532042E-16,2.7));
#628=AXIS2_PLACEMENT_3D('',#750,#751,#752);
#629=CARTESIAN_POINT('',(0.300000000000001,3.0,-6.36795303987636E-16));
#630=AXIS2_PLACEMENT_3D('',#753,#754,#755);
#631=CARTESIAN_POINT('',(0.300000000000001,3.67381906146713E-16,-3.0));
#632=AXIS2_PLACEMENT_3D('',#756,#757,#758);
#633=CARTESIAN_POINT('',(3.30643715532042E-16,3.30643715532042E-16,-2.7));
#634=AXIS2_PLACEMENT_3D('',#759,#760,#761);
#635=AXIS2_PLACEMENT_3D('',#762,#763,#764);
#636=CARTESIAN_POINT('',(8.8625,3.0,4.11773886472774E-16));
#637=CARTESIAN_POINT('',(4.58125,3.0,2.54871197389282E-16));
#638=VECTOR('',#765,1.0);
#639=CARTESIAN_POINT('',(8.8625,3.67381906146713E-16,-3.0));
#640=AXIS2_PLACEMENT_3D('',#766,#767,#768);
#641=CARTESIAN_POINT('',(8.8625,-3.0,4.43919803260612E-17));
#642=AXIS2_PLACEMENT_3D('',#769,#770,#771);
#643=CARTESIAN_POINT('',(0.300000000000001,-3.0,-1.00417721013435E-15));
#644=CARTESIAN_POINT('',(4.58125,-3.0,-4.79892614904144E-16));
#645=VECTOR('',#772,1.0);
#646=AXIS2_PLACEMENT_3D('',#773,#774,#775);
#647=CARTESIAN_POINT('',(8.9375,-3.58197358493045E-16,2.925));
#648=CARTESIAN_POINT('',(8.8625,-3.67381906146713E-16,3.0));
#649=AXIS2_PLACEMENT_3D('',#776,#777,#778);
#650=CARTESIAN_POINT('',(8.9375,3.58197358493045E-16,-2.925));
#651=AXIS2_PLACEMENT_3D('',#779,#780,#781);
#652=AXIS2_PLACEMENT_3D('',#782,#783,#784);
#653=AXIS2_PLACEMENT_3D('',#785,#786,#787);
#654=CARTESIAN_POINT('',(9.0125,3.30643715532042E-16,-2.7));
#655=CARTESIAN_POINT('',(8.9375,3.3982826318571E-16,-2.775));
#656=AXIS2_PLACEMENT_3D('',#788,#789,#790);
#657=CARTESIAN_POINT('',(9.0125,-2.7,9.94992662480681E-17));
#658=AXIS2_PLACEMENT_3D('',#791,#792,#793);
#659=CARTESIAN_POINT('',(9.0125,-3.30643715532042E-16,2.7));
#660=AXIS2_PLACEMENT_3D('',#794,#795,#796);
#661=CARTESIAN_POINT('',(8.9375,-3.3982826318571E-16,2.775));
#662=AXIS2_PLACEMENT_3D('',#797,#798,#799);
#663=AXIS2_PLACEMENT_3D('',#800,#801,#802);
#664=CARTESIAN_POINT('',(9.55,2.7,4.95965573298063E-16));
#665=CARTESIAN_POINT('',(9.0125,2.7,4.3014298178011E-16));
#666=CARTESIAN_POINT('',(9.28125,2.7,7.93697993071128E-16));
#667=VECTOR('',#803,1.0);
#668=CARTESIAN_POINT('',(9.55,3.30643715532042E-16,-2.7));
#669=AXIS2_PLACEMENT_3D('',#804,#805,#806);
#670=CARTESIAN_POINT('',(9.55,-2.7,1.65321857766021E-16));
#671=AXIS2_PLACEMENT_3D('',#807,#808,#809);
#672=CARTESIAN_POINT('',(9.28125,-2.7,1.32410562007045E-16));
#673=VECTOR('',#810,1.0);
#674=AXIS2_PLACEMENT_3D('',#811,#812,#813);
#675=CARTESIAN_POINT('',(9.625,3.3982826318571E-16,-2.775));
#676=AXIS2_PLACEMENT_3D('',#814,#815,#816);
#677=CARTESIAN_POINT('',(9.625,-3.3982826318571E-16,2.775));
#678=AXIS2_PLACEMENT_3D('',#817,#818,#819);
#679=CARTESIAN_POINT('',(9.55,-3.30643715532042E-16,2.7));
#680=AXIS2_PLACEMENT_3D('',#820,#821,#822);
#681=AXIS2_PLACEMENT_3D('',#823,#824,#825);
#682=CARTESIAN_POINT('',(9.7,-3.67381906146713E-16,3.0));
#683=CARTESIAN_POINT('',(9.625,-3.58197358493045E-16,2.925));
#684=AXIS2_PLACEMENT_3D('',#826,#827,#828);
#685=CARTESIAN_POINT('',(9.7,3.0,5.14334668605398E-16));
#686=AXIS2_PLACEMENT_3D('',#829,#830,#831);
#687=CARTESIAN_POINT('',(9.7,3.67381906146713E-16,-3.0));
#688=AXIS2_PLACEMENT_3D('',#832,#833,#834);
#689=CARTESIAN_POINT('',(9.625,3.58197358493045E-16,-2.925));
#690=AXIS2_PLACEMENT_3D('',#835,#836,#837);
#691=AXIS2_PLACEMENT_3D('',#838,#839,#840);
#692=CARTESIAN_POINT('',(10.7,3.0,6.36795303987636E-16));
#693=CARTESIAN_POINT('',(10.2,3.0,9.4294689244323E-16));
#694=VECTOR('',#841,1.0);
#695=CARTESIAN_POINT('',(10.7,3.67381906146713E-16,-3.0));
#696=AXIS2_PLACEMENT_3D('',#842,#843,#844);
#697=CARTESIAN_POINT('',(10.7,-3.0,2.69413397840923E-16));
#698=AXIS2_PLACEMENT_3D('',#845,#846,#847);
#699=CARTESIAN_POINT('',(9.7,-3.0,1.46952762458685E-16));
#700=CARTESIAN_POINT('',(10.2,-3.0,2.08183080149804E-16));
#701=VECTOR('',#848,1.0);
#702=AXIS2_PLACEMENT_3D('',#849,#850,#851);
#703=CARTESIAN_POINT('',(11.0,-3.30643715532042E-16,2.7));
#704=CARTESIAN_POINT('',(10.7,-3.67381906146713E-16,3.0));
#705=AXIS2_PLACEMENT_3D('',#852,#853,#854);
#706=CARTESIAN_POINT('',(11.0,3.30643715532042E-16,-2.7));
#707=AXIS2_PLACEMENT_3D('',#855,#856,#857);
#708=AXIS2_PLACEMENT_3D('',#858,#859,#860);
#709=AXIS2_PLACEMENT_3D('',#861,#862,#863);
#710=CARTESIAN_POINT('',(11.0,-1.25,-0.25));
#711=CARTESIAN_POINT('',(26.0,-1.25,-0.25));
#712=CARTESIAN_POINT('',(15.75,-1.25,-0.25));
#713=VECTOR('',#864,1.0);
#714=CARTESIAN_POINT('',(11.0,-1.25,0.25));
#715=AXIS2_PLACEMENT_3D('',#865,#866,#867);
#716=CARTESIAN_POINT('',(26.0,-1.25,0.25));
#717=CARTESIAN_POINT('',(15.75,-1.25,0.25));
#718=VECTOR('',#868,1.0);
#719=AXIS2_PLACEMENT_3D('',#869,#870,#871);
#720=CARTESIAN_POINT('',(11.0,1.25,-0.25));
#721=CARTESIAN_POINT('',(31.0,1.25,-0.25));
#722=CARTESIAN_POINT('',(18.25,1.25,-0.25));
#723=VECTOR('',#872,1.0);
#724=CARTESIAN_POINT('',(11.0,1.25,0.25));
#725=AXIS2_PLACEMENT_3D('',#873,#874,#875);
#726=CARTESIAN_POINT('',(31.0,1.25,0.25));
#727=CARTESIAN_POINT('',(18.25,1.25,0.25));
#728=VECTOR('',#876,1.0);
#729=AXIS2_PLACEMENT_3D('',#877,#878,#879);
#730=AXIS2_PLACEMENT_3D('',#880,#881,#882);
#731=AXIS2_PLACEMENT_3D('',#883,#884,#885);
#732=AXIS2_PLACEMENT_3D('',#886,#887,#888);
#733=AXIS2_PLACEMENT_3D('',#889,#890,#891);
#734=AXIS2_PLACEMENT_3D('',#892,#893,#894);
#735=AXIS2_PLACEMENT_3D('',#895,#896,#897);
#736=AXIS2_PLACEMENT_3D('',#898,#899,#900);
#737=AXIS2_PLACEMENT_3D('',#901,#902,#903);
#738=CARTESIAN_POINT('',(9.625,2.775,5.05150120951731E-16));
#739=AXIS2_PLACEMENT_3D('',#904,#905,#906);
#740=AXIS2_PLACEMENT_3D('',#907,#908,#909);
#741=AXIS2_PLACEMENT_3D('',#910,#911,#912);
#742=AXIS2_PLACEMENT_3D('',#913,#914,#915);
#743=CARTESIAN_POINT('',(8.9375,2.775,4.20958434126442E-16));
#744=AXIS2_PLACEMENT_3D('',#916,#917,#918);
#745=AXIS2_PLACEMENT_3D('',#919,#920,#921);
#746=AXIS2_PLACEMENT_3D('',#922,#923,#924);
#747=AXIS2_PLACEMENT_3D('',#925,#926,#927);
#748=AXIS2_PLACEMENT_3D('',#928,#929,#930);
#749=AXIS2_PLACEMENT_3D('',#931,#932,#933);
#750=CARTESIAN_POINT('',(0.3,-3.30643715532042E-16,2.7));
#751=DIRECTION('',(1.49966072182214E-32,-1.0,-1.22460635382238E-16));
#752=DIRECTION('',(-1.22460635382238E-16,-1.22460635382238E-16,1.0));
#753=CARTESIAN_POINT('',(0.300000000000001,0.0,-6.36795303987636E-16));
#754=DIRECTION('',(-1.0,0.0,-1.22460635382238E-16));
#755=DIRECTION('',(0.0,1.0,0.0));
#756=CARTESIAN_POINT('',(0.300000000000001,0.0,-6.36795303987636E-16));
#757=DIRECTION('',(-1.0,0.0,-1.22460635382238E-16));
#758=DIRECTION('',(0.0,1.0,0.0));
#759=CARTESIAN_POINT('',(0.300000000000001,3.30643715532042E-16,-2.7));
#760=DIRECTION('',(1.49966072182214E-32,-1.0,-1.22460635382238E-16));
#761=DIRECTION('',(1.22460635382238E-16,1.22460635382238E-16,-1.0));
#762=CARTESIAN_POINT('',(0.0,0.0,-6.73533494602307E-16));
#763=DIRECTION('',(-1.0,0.0,-1.22460635382238E-16));
#764=DIRECTION('',(0.0,1.0,0.0));
#765=DIRECTION('',(-1.0,0.0,-1.22460635382238E-16));
#766=CARTESIAN_POINT('',(8.8625,0.0,4.11773886472774E-16));
#767=DIRECTION('',(-1.0,0.0,-1.22460635382238E-16));
#768=DIRECTION('',(0.0,1.0,0.0));
#769=CARTESIAN_POINT('',(8.8625,0.0,4.11773886472774E-16));
#770=DIRECTION('',(-1.0,0.0,-1.22460635382238E-16));
#771=DIRECTION('',(0.0,1.0,0.0));
#772=DIRECTION('',(1.0,-0.0,1.22460635382238E-16));
#773=CARTESIAN_POINT('',(0.300000000000001,0.0,-6.36795303987636E-16));
#774=DIRECTION('',(-1.0,0.0,-1.22460635382238E-16));
#775=DIRECTION('',(0.0,1.0,0.0));
#776=CARTESIAN_POINT('',(8.8625,-3.58197358493045E-16,2.925));
#777=DIRECTION('',(1.49966072182214E-32,-1.0,-1.22460635382238E-16));
#778=DIRECTION('',(-1.22460635382238E-16,-1.22460635382238E-16,1.0));
#779=CARTESIAN_POINT('',(8.9375,0.0,4.20958434126442E-16));
#780=DIRECTION('',(-1.0,0.0,-1.22460635382238E-16));
#781=DIRECTION('',(0.0,1.0,0.0));
#782=CARTESIAN_POINT('',(8.8625,3.58197358493045E-16,-2.925));
#783=DIRECTION('',(1.49966072182214E-32,-1.0,-1.22460635382238E-16));
#784=DIRECTION('',(1.22460635382238E-16,1.22460635382238E-16,-1.0));
#785=CARTESIAN_POINT('',(8.8625,0.0,4.11773886472774E-16));
#786=DIRECTION('',(-1.0,0.0,-1.22460635382238E-16));
#787=DIRECTION('',(0.0,1.0,0.0));
#788=CARTESIAN_POINT('',(9.0125,3.3982826318571E-16,-2.775));
#789=DIRECTION('',(1.49966072182214E-32,-1.0,-1.22460635382238E-16));
#790=DIRECTION('',(1.22460635382238E-16,1.22460635382238E-16,-1.0));
#791=CARTESIAN_POINT('',(9.0125,0.0,4.3014298178011E-16));
#792=DIRECTION('',(-1.0,0.0,-1.22460635382238E-16));
#793=DIRECTION('',(0.0,1.0,0.0));
#794=CARTESIAN_POINT('',(9.0125,0.0,4.3014298178011E-16));
#795=DIRECTION('',(-1.0,0.0,-1.22460635382238E-16));
#796=DIRECTION('',(0.0,1.0,0.0));
#797=CARTESIAN_POINT('',(9.0125,-3.3982826318571E-16,2.775));
#798=DIRECTION('',(1.49966072182214E-32,-1.0,-1.22460635382238E-16));
#799=DIRECTION('',(-1.22460635382238E-16,-1.22460635382238E-16,1.0));
#800=CARTESIAN_POINT('',(8.9375,0.0,4.20958434126442E-16));
#801=DIRECTION('',(-1.0,0.0,-1.22460635382238E-16));
#802=DIRECTION('',(0.0,1.0,0.0));
#803=DIRECTION('',(-1.0,0.0,-1.22460635382238E-16));
#804=CARTESIAN_POINT('',(9.55,0.0,4.95965573298063E-16));
#805=DIRECTION('',(-1.0,0.0,-1.22460635382238E-16));
#806=DIRECTION('',(0.0,1.0,0.0));
#807=CARTESIAN_POINT('',(9.55,0.0,4.95965573298063E-16));
#808=DIRECTION('',(-1.0,0.0,-1.22460635382238E-16));
#809=DIRECTION('',(0.0,1.0,0.0));
#810=DIRECTION('',(1.0,-0.0,1.22460635382238E-16));
#811=CARTESIAN_POINT('',(9.0125,0.0,4.3014298178011E-16));
#812=DIRECTION('',(-1.0,0.0,-1.22460635382238E-16));
#813=DIRECTION('',(0.0,1.0,0.0));
#814=CARTESIAN_POINT('',(9.55,3.3982826318571E-16,-2.775));
#815=DIRECTION('',(1.49966072182214E-32,-1.0,-1.22460635382238E-16));
#816=DIRECTION('',(1.22460635382238E-16,1.22460635382238E-16,-1.0));
#817=CARTESIAN_POINT('',(9.625,0.0,5.05150120951731E-16));
#818=DIRECTION('',(-1.0,0.0,-1.22460635382238E-16));
#819=DIRECTION('',(0.0,1.0,0.0));
#820=CARTESIAN_POINT('',(9.55,-3.3982826318571E-16,2.775));
#821=DIRECTION('',(1.49966072182214E-32,-1.0,-1.22460635382238E-16));
#822=DIRECTION('',(-1.22460635382238E-16,-1.22460635382238E-16,1.0));
#823=CARTESIAN_POINT('',(9.55,0.0,4.95965573298063E-16));
#824=DIRECTION('',(-1.0,0.0,-1.22460635382238E-16));
#825=DIRECTION('',(0.0,1.0,0.0));
#826=CARTESIAN_POINT('',(9.7,-3.58197358493045E-16,2.925));
#827=DIRECTION('',(1.49966072182214E-32,-1.0,-1.22460635382238E-16));
#828=DIRECTION('',(-1.22460635382238E-16,-1.22460635382238E-16,1.0));
#829=CARTESIAN_POINT('',(9.7,0.0,5.14334668605398E-16));
#830=DIRECTION('',(-1.0,0.0,-1.22460635382238E-16));
#831=DIRECTION('',(0.0,1.0,0.0));
#832=CARTESIAN_POINT('',(9.7,0.0,5.14334668605398E-16));
#833=DIRECTION('',(-1.0,0.0,-1.22460635382238E-16));
#834=DIRECTION('',(0.0,1.0,0.0));
#835=CARTESIAN_POINT('',(9.7,3.58197358493045E-16,-2.925));
#836=DIRECTION('',(1.49966072182214E-32,-1.0,-1.22460635382238E-16));
#837=DIRECTION('',(1.22460635382238E-16,1.22460635382238E-16,-1.0));
#838=CARTESIAN_POINT('',(9.625,0.0,5.05150120951731E-16));
#839=DIRECTION('',(-1.0,0.0,-1.22460635382238E-16));
#840=DIRECTION('',(0.0,1.0,0.0));
#841=DIRECTION('',(-1.0,0.0,-1.22460635382238E-16));
#842=CARTESIAN_POINT('',(10.7,0.0,6.36795303987636E-16));
#843=DIRECTION('',(-1.0,0.0,-1.22460635382238E-16));
#844=DIRECTION('',(0.0,1.0,0.0));
#845=CARTESIAN_POINT('',(10.7,0.0,6.36795303987636E-16));
#846=DIRECTION('',(-1.0,0.0,-1.22460635382238E-16));
#847=DIRECTION('',(0.0,1.0,0.0));
#848=DIRECTION('',(1.0,-0.0,1.22460635382238E-16));
#849=CARTESIAN_POINT('',(9.7,0.0,5.14334668605398E-16));
#850=DIRECTION('',(-1.0,0.0,-1.22460635382238E-16));
#851=DIRECTION('',(0.0,1.0,0.0));
#852=CARTESIAN_POINT('',(10.7,-3.30643715532042E-16,2.7));
#853=DIRECTION('',(1.49966072182214E-32,-1.0,-1.22460635382238E-16));
#854=DIRECTION('',(-1.22460635382238E-16,-1.22460635382238E-16,1.0));
#855=CARTESIAN_POINT('',(11.0,0.0,6.73533494602307E-16));
#856=DIRECTION('',(-1.0,0.0,-1.22460635382238E-16));
#857=DIRECTION('',(0.0,1.0,0.0));
#858=CARTESIAN_POINT('',(10.7,3.30643715532042E-16,-2.7));
#859=DIRECTION('',(1.49966072182214E-32,-1.0,-1.22460635382238E-16));
#860=DIRECTION('',(1.22460635382238E-16,1.22460635382238E-16,-1.0));
#861=CARTESIAN_POINT('',(10.7,0.0,6.36795303987636E-16));
#862=DIRECTION('',(-1.0,0.0,-1.22460635382238E-16));
#863=DIRECTION('',(0.0,1.0,0.0));
#864=DIRECTION('',(1.0,0.0,0.0));
#865=CARTESIAN_POINT('',(11.0,-1.25,0.0));
#866=DIRECTION('',(-1.0,-2.05596856412066E-17,-1.22460635382238E-16));
#867=DIRECTION('',(1.22460635382238E-16,2.51775216688123E-33,-1.0));
#868=DIRECTION('',(-1.0,-0.0,-0.0));
#869=CARTESIAN_POINT('',(26.0,-1.25,0.0));
#870=DIRECTION('',(1.0,0.0,0.0));
#871=DIRECTION('',(0.0,0.0,-1.0));
#872=DIRECTION('',(1.0,0.0,0.0));
#873=CARTESIAN_POINT('',(11.0,1.25,0.0));
#874=DIRECTION('',(-1.0,-2.05596856412066E-17,-1.22460635382238E-16));
#875=DIRECTION('',(1.22460635382238E-16,2.51775216688123E-33,-1.0));
#876=DIRECTION('',(-1.0,-0.0,-0.0));
#877=CARTESIAN_POINT('',(31.0,1.25,0.0));
#878=DIRECTION('',(1.0,0.0,0.0));
#879=DIRECTION('',(0.0,0.0,-1.0));
#880=CARTESIAN_POINT('',(31.0,1.25,0.0));
#881=DIRECTION('',(1.0,0.0,0.0));
#882=DIRECTION('',(0.0,0.0,-1.0));
#883=CARTESIAN_POINT('',(11.0,1.25,0.0));
#884=DIRECTION('',(-1.0,-2.05596856412066E-17,-1.22460635382238E-16));
#885=DIRECTION('',(1.22460635382238E-16,2.51775216688123E-33,-1.0));
#886=CARTESIAN_POINT('',(26.0,-1.25,0.0));
#887=DIRECTION('',(1.0,0.0,0.0));
#888=DIRECTION('',(0.0,0.0,-1.0));
#889=CARTESIAN_POINT('',(11.0,-1.25,0.0));
#890=DIRECTION('',(-1.0,-2.05596856412066E-17,-1.22460635382238E-16));
#891=DIRECTION('',(1.22460635382238E-16,2.51775216688123E-33,-1.0));
#892=CARTESIAN_POINT('',(11.0,0.0,6.73533494602307E-16));
#893=DIRECTION('',(-1.0,0.0,-1.22460635382238E-16));
#894=DIRECTION('',(0.0,1.0,0.0));
#895=CARTESIAN_POINT('',(10.7,0.0,6.36795303987636E-16));
#896=DIRECTION('',(-1.0,0.0,-1.22460635382238E-16));
#897=DIRECTION('',(0.0,1.0,0.0));
#898=CARTESIAN_POINT('',(9.7,0.0,5.14334668605398E-16));
#899=DIRECTION('',(-1.0,0.0,-1.22460635382238E-16));
#900=DIRECTION('',(0.0,1.0,0.0));
#901=CARTESIAN_POINT('',(9.625,0.0,5.05150120951731E-16));
#902=DIRECTION('',(-1.0,0.0,-1.22460635382238E-16));
#903=DIRECTION('',(0.0,1.0,0.0));
#904=CARTESIAN_POINT('',(9.625,0.0,5.05150120951731E-16));
#905=DIRECTION('',(-1.0,0.0,-1.22460635382238E-16));
#906=DIRECTION('',(0.0,1.0,0.0));
#907=CARTESIAN_POINT('',(9.625,0.0,5.05150120951731E-16));
#908=DIRECTION('',(-1.0,0.0,-1.22460635382238E-16));
#909=DIRECTION('',(0.0,1.0,0.0));
#910=CARTESIAN_POINT('',(9.55,0.0,4.95965573298063E-16));
#911=DIRECTION('',(-1.0,0.0,-1.22460635382238E-16));
#912=DIRECTION('',(0.0,1.0,0.0));
#913=CARTESIAN_POINT('',(9.0125,0.0,4.3014298178011E-16));
#914=DIRECTION('',(-1.0,0.0,-1.22460635382238E-16));
#915=DIRECTION('',(0.0,1.0,0.0));
#916=CARTESIAN_POINT('',(8.9375,0.0,4.20958434126442E-16));
#917=DIRECTION('',(-1.0,0.0,-1.22460635382238E-16));
#918=DIRECTION('',(0.0,1.0,0.0));
#919=CARTESIAN_POINT('',(8.9375,0.0,4.20958434126442E-16));
#920=DIRECTION('',(-1.0,0.0,-1.22460635382238E-16));
#921=DIRECTION('',(0.0,1.0,0.0));
#922=CARTESIAN_POINT('',(8.9375,0.0,4.20958434126442E-16));
#923=DIRECTION('',(-1.0,0.0,-1.22460635382238E-16));
#924=DIRECTION('',(0.0,1.0,0.0));
#925=CARTESIAN_POINT('',(8.8625,0.0,4.11773886472774E-16));
#926=DIRECTION('',(-1.0,0.0,-1.22460635382238E-16));
#927=DIRECTION('',(0.0,1.0,0.0));
#928=CARTESIAN_POINT('',(0.300000000000001,0.0,-6.36795303987636E-16));
#929=DIRECTION('',(-1.0,0.0,-1.22460635382238E-16));
#930=DIRECTION('',(0.0,1.0,0.0));
#931=CARTESIAN_POINT('',(0.0,0.0,-6.73533494602307E-16));
#932=DIRECTION('',(-1.0,0.0,-1.22460635382238E-16));
#933=DIRECTION('',(0.0,1.0,0.0));
ENDSEC;
END-ISO-10303-21;
